<svg width="262" height="275" viewBox="0 0 262 275" version="1.1" xmlns="http://www.w3.org/2000/svg" xmlns:xlink="http://www.w3.org/1999/xlink">
<title>Group</title>
<desc>Created using Figma</desc>
<g id="Canvas" transform="translate(-13121 2505)">
<g id="Group">
<g id="blank-paper">
<g id="Vector">
<use xlink:href="#path0_fill" transform="translate(13130.6 -2505)" fill="url(#paint0_linear)"/>
</g>
<g id="Vector">
<use xlink:href="#path1_fill" transform="translate(13140.3 -2485.76)" fill="#00F8FE"/>
</g>
<g id="Group">
<g id="Vector">
<use xlink:href="#path2_fill" transform="translate(13214.6 -2485.76)" fill="#00D9E0"/>
</g>
<g id="Vector">
<use xlink:href="#path1_fill" transform="translate(13130.9 -2495.11)" fill="#00D9E0"/>
</g>
</g>
<g id="Vector">
<use xlink:href="#path3_fill" transform="translate(13214.6 -2495.11)" fill="#00B7BE"/>
</g>
<g id="Vector">
<use xlink:href="#path4_fill" transform="translate(13121 -2505)" fill="#FFFFFF"/>
</g>
<g id="Vector">
<use xlink:href="#path5_fill" transform="translate(13214.6 -2505)" fill="#E1E1E3"/>
</g>
<g id="Group">
<g id="Vector">
<use xlink:href="#path6_fill" transform="translate(13260.4 -2329.84)" fill="#00F8FE"/>
</g>
<g id="Vector">
<use xlink:href="#path6_fill" transform="translate(13260.4 -2329.84)" fill="#00F8FE"/>
</g>
</g>
<g id="Vector">
<use xlink:href="#path7_fill" transform="translate(13260.4 -2329.84)" fill="#00D9E0"/>
</g>
<g id="Group">
<g id="Vector">
<use xlink:href="#path8_fill" transform="matrix(-1 0 0 1 13214.4 -2464)" fill="#2D9CDB"/>
</g>
<g id="Vector">
<use xlink:href="#path9_fill" transform="translate(13156 -2422.86)" fill="#2D9CDB"/>
</g>
<g id="Vector">
<use xlink:href="#path10_fill" transform="translate(13215.2 -2422.86)" fill="#005FD2"/>
</g>
<g id="Vector">
<use xlink:href="#path11_fill" transform="translate(13156 -2382.5)" fill="#2D9CDB"/>
</g>
<g id="Vector">
<use xlink:href="#path10_fill" transform="translate(13215.2 -2382.5)" fill="#005FD2"/>
</g>
</g>
</g>
<g id="Group">
<g id="Vector">
<use xlink:href="#path12_fill" transform="translate(13200.9 -2277.14)" fill="#324A5E"/>
</g>
<g id="Vector">
<use xlink:href="#path13_fill" transform="translate(13214.4 -2277.14)" fill="#2B3B4E"/>
</g>
<g id="Vector">
<use xlink:href="#path14_fill" transform="translate(13181 -2327)" fill="#17BB38"/>
</g>
<g id="Vector">
<use xlink:href="#path15_fill" transform="translate(13214.4 -2327)" fill="#10922A"/>
</g>
<g id="Vector">
<use xlink:href="#path16_fill" transform="translate(13192 -2315.84)" fill="#FFD15D"/>
</g>
<g id="Vector">
<use xlink:href="#path17_fill" transform="translate(13214.4 -2315.84)" fill="#F9B54C"/>
</g>
</g>
</g>
</g>
<defs>
<linearGradient id="paint0_linear" x1="0" y1="0" x2="1" y2="0" gradientUnits="userSpaceOnUse" gradientTransform="matrix(127.106 226.954 -208.285 116.588 165.012 -58.5245)">
<stop offset="0" stop-color="#003D8D"/>
<stop offset="1" stop-color="#003D8D" stop-opacity="0"/>
</linearGradient>
<path id="path0_fill" d="M 252.378 116.298C 252.378 103.883 250.95 91.8014 248.252 80.2063L 168.024 9.45935e-07L 0 9.45935e-07L 0 213.355L 57.536 270.876C 69.133 273.572 81.2168 275 93.6342 275C 181.306 275 252.378 203.947 252.378 116.298Z"/>
<path id="path1_fill" d="M 168.021 0L 0 0L 0 213.354L 168.021 213.354L 168.021 0Z"/>
<path id="path2_fill" d="M 103.258 0L -2.64933e-06 0L -2.64933e-06 213.354L 103.258 213.354L 103.258 0Z"/>
<path id="path3_fill" d="M 93.907 0L -2.64933e-06 0L -2.64933e-06 213.354L 93.907 213.354L 93.907 0Z"/>
<path id="path4_fill" d="M 168.024 9.45935e-07L 177.646 175.163L 129.815 213.355L 1.05973e-06 213.355L 1.05973e-06 9.45935e-07L 168.024 9.45935e-07Z"/>
<path id="path5_fill" d="M 84.0147 9.45935e-07L 84.0147 175.161L 45.8045 213.354L 1.05973e-06 213.354L 1.05973e-06 9.45935e-07L 84.0147 9.45935e-07Z"/>
<path id="path6_fill" d="M 3.78475e-06 38.1944L 38.2046 7.56748e-06L 3.78475e-06 7.56748e-06L 3.78475e-06 38.1944Z"/>
<path id="path7_fill" d="M 38.209 6.20533e-06L -4.99587e-06 38.1919L -4.99587e-06 6.20533e-06L 38.209 6.20533e-06Z"/>
<path id="path8_fill" d="M 57.8039 -4.08237e-06L 2.64728e-06 -4.08237e-06L 2.64728e-06 18.3333L 57.8039 18.3333L 57.8039 -4.08237e-06Z"/>
<path id="path9_fill" d="M 118.503 0L -2.71343e-06 0L -2.71343e-06 17.2959L 118.503 17.2959L 118.503 0Z"/>
<path id="path10_fill" d="M 59.2483 0L 0 0L 0 17.2971L 59.2483 17.2971L 59.2483 0Z"/>
<path id="path11_fill" d="M 118.503 4.62196e-06L -2.71343e-06 4.62196e-06L -2.71343e-06 17.2959L 118.503 17.2959L 118.503 4.62196e-06Z"/>
<path id="path12_fill" d="M 27.1289 41.1369L 13.5644 34.2808L -1.80457e-06 41.1369L -1.80457e-06 2.70696e-06L 27.1289 2.70696e-06L 27.1289 41.1369Z"/>
<path id="path13_fill" d="M -1.22245e-06 2.70696e-06L -1.22245e-06 34.3502L 0.136863 34.2808L 13.7013 41.1369L 13.7013 2.70696e-06L -1.22245e-06 2.70696e-06Z"/>
<path id="path14_fill" d="M -2.61954e-07 33.8652C -2.61954e-07 30.9733 3.42157 28.5742 4.12686 25.9074C 4.85648 23.148 3.10135 19.3449 4.48404 16.9292C 5.887 14.4784 10.0351 14.1229 12.0029 12.1336C 13.9705 10.1445 14.3224 5.95097 16.7468 4.53271C 19.1372 3.13493 22.8985 4.90921 25.6281 4.17163C 28.2664 3.45888 30.6394 7.35587e-08 33.4999 7.35587e-08C 36.3606 7.35587e-08 38.7338 3.45888 41.3719 4.17187C 44.1015 4.90945 47.8635 3.13517 50.2532 4.53295C 52.6776 5.95121 53.0293 10.1445 54.9971 12.1338C 56.9647 14.1229 61.113 14.4786 62.516 16.9295C 63.8986 19.3459 62.1435 23.1483 62.8731 25.9076C 63.5784 28.575 67 30.9733 67 33.8655C 67 36.7575 63.5784 39.1563 62.8731 41.8231C 62.1435 44.5825 63.8986 48.3856 62.516 50.8013C 61.113 53.2521 56.9649 53.6077 54.9971 55.5969C 53.0295 57.586 52.6776 61.7795 50.2532 63.1978C 47.8628 64.5956 44.1015 62.8213 41.3719 63.5589C 38.7333 64.2719 36.3604 67.7307 33.4999 67.7307C 30.6391 67.7307 28.266 64.2719 25.6279 63.5589C 22.8983 62.8213 19.1362 64.5956 16.7466 63.1978C 14.3222 61.7795 13.9705 57.5862 12.0027 55.5969C 10.0351 53.6079 5.88677 53.2521 4.4838 50.8013C 3.10111 48.3849 4.85624 44.5825 4.12663 41.8231C 3.42133 39.1558 -2.61954e-07 36.757 -2.61954e-07 33.8652Z"/>
<path id="path15_fill" d="M 29.5099 41.8231C 30.2152 39.1558 33.6367 36.7575 33.6367 33.8652C 33.6367 30.9735 30.2152 28.5747 29.5099 25.9074C 28.7803 23.148 30.5359 19.3454 29.1527 16.9292C 27.7497 14.4784 23.6017 14.1229 21.6338 12.1336C 19.6663 10.1445 19.3143 5.95097 16.8899 4.53271C 14.4996 3.13493 10.7382 4.9092 8.00861 4.17163C 5.37079 3.45888 2.99763 7.35587e-08 0.136863 7.35587e-08C 0.0908444 7.35587e-08 0.0460171 0.00819543 -1.22245e-06 0.00988269L -1.22245e-06 67.7206C 0.0460171 67.7223 0.0908444 67.7305 0.136863 67.7305C 2.99739 67.7305 5.37031 64.2716 8.00885 63.5586C 10.7385 62.8211 14.5005 64.5958 16.8901 63.198C 19.3146 61.7798 19.6663 57.5865 21.6341 55.5972C 23.6017 53.6081 27.75 53.2524 29.1529 50.8015C 30.5354 48.3856 28.7803 44.5825 29.5099 41.8231Z"/>
<path id="path16_fill" d="M 22.4622 45.4143C 34.8677 45.4143 44.9243 35.248 44.9243 22.7072C 44.9243 10.1663 34.8677 0 22.4622 0C 10.0567 0 0 10.1663 0 22.7072C 0 35.248 10.0567 45.4143 22.4622 45.4143Z"/>
<path id="path17_fill" d="M 0.136863 2.94235e-08C 0.0908444 2.94235e-08 0.0460171 0.00337427 -1.22245e-06 0.00385635L -1.22245e-06 45.4117C 0.0460171 45.4121 0.0908444 45.4155 0.136863 45.4155C 12.5425 45.4155 22.599 35.2488 22.599 22.7084C 22.599 10.1679 12.5425 2.94235e-08 0.136863 2.94235e-08Z"/>
</defs>
</svg>
