<svg width="352" height="308" viewBox="0 0 352 308" version="1.1" xmlns="http://www.w3.org/2000/svg" xmlns:xlink="http://www.w3.org/1999/xlink">
<title>cogwheels</title>
<desc>Created using Figma</desc>
<g id="Canvas" transform="translate(8985 4024)">
<g id="cogwheels">
<g id="Vector">
<use xlink:href="#path0_fill" transform="translate(-8985 -4024)" fill="url(#paint0_linear)"/>
</g>
<g id="Vector">
<use xlink:href="#path1_fill" transform="translate(-8985 -3955.91)" fill="#FD8469"/>
</g>
<g id="Group">
<g id="Vector">
<use xlink:href="#path2_fill" transform="translate(-8928.14 -3955.91)" fill="#FC6F58"/>
</g>
<g id="Vector">
<use xlink:href="#path3_fill" transform="translate(-8860.16 -3865.12)" fill="#46C35F"/>
</g>
</g>
<g id="Vector">
<use xlink:href="#path4_fill" transform="translate(-8820.37 -3865.12)" fill="#358E46"/>
</g>
<g id="Vector">
<use xlink:href="#path5_fill" transform="translate(-8860.15 -4024)" fill="#FFD15D"/>
</g>
<g id="Vector">
<use xlink:href="#path6_fill" transform="translate(-8785.98 -4024)" fill="#F9B54C"/>
</g>
</g>
</g>
<defs>
<linearGradient id="paint0_linear" x1="0" y1="0" x2="1" y2="0" gradientUnits="userSpaceOnUse" gradientTransform="matrix(82 216 -246.857 93.7143 299.429 -46.8571)">
<stop offset="0" stop-color="#2B3B4E"/>
<stop offset="1" stop-color="#2B3B4E" stop-opacity="0"/>
</linearGradient>
<path id="path0_fill" d="M 261.218 32.0376L 253.128 39.7506L 213.373 -1.7533e-06L 152.247 63.6787L 124.847 88.518L 163.446 127.114L 156.886 136.357L 189.746 169.214L 186.297 172.662L 172.514 158.88L 172.056 159.886L 104.899 92.7367L 94.6888 94.6821L 68.098 68.0921L 31.1833 89.8154L 1.07156e-06 136.183L 27.309 163.489L 24.646 172.981L 159.678 308C 261.091 302.569 342.846 223.185 352 122.815L 261.218 32.0376Z"/>
<path id="path1_fill" d="M 113.496 68.0913L 113.496 45.3945L 100.715 45.3945C 99.6437 41.2308 97.987 37.3017 95.8523 33.691L 104.899 24.6454L 88.8481 8.59629L 79.8018 17.6418C 76.1891 15.5081 72.2613 13.8524 68.0972 12.7791L 68.0972 -2.04552e-06L 45.3984 -2.04552e-06L 45.3984 12.7791C 41.2344 13.8508 37.3049 15.5073 33.6939 17.6418L 24.6476 8.59629L 8.59705 24.6454L 17.6434 33.691C 15.5095 37.3017 13.8536 41.2292 12.7818 45.3929L 6.33193e-07 45.3929L 6.33193e-07 68.0897L 12.7803 68.0897C 13.852 72.255 15.5087 76.1825 17.6418 79.7948L 8.59545 88.8411L 24.646 104.89L 33.6923 95.8456C 37.3049 97.9793 41.2328 99.6366 45.3984 100.708L 45.3984 113.487L 68.0972 113.487L 68.0972 100.708C 72.2613 99.6366 76.1891 97.9801 79.8018 95.8456L 88.8497 104.893L 104.9 88.8436L 95.8523 79.7964C 97.987 76.1841 99.6437 72.2566 100.715 68.0913L 113.496 68.0913ZM 56.7478 77.377C 45.3513 77.377 36.1119 68.1384 36.1119 56.7429C 36.1119 45.3474 45.3513 36.1087 56.7478 36.1087C 68.1443 36.1087 77.3838 45.3474 77.3838 56.7429C 77.3838 68.1384 68.1459 77.377 56.7478 77.377Z"/>
<path id="path2_fill" d="M 56.6321 68.0913L 56.6321 45.3945L 43.8519 45.3945C 42.7801 41.2308 41.1234 37.3017 38.9888 33.691L 48.0351 24.6454L 31.9846 8.59629L 22.9382 17.6418C 19.3256 15.5081 15.3978 13.8524 11.2337 12.7791L 11.2337 -2.04552e-06L 4.0914e-06 -2.04552e-06L 4.0914e-06 36.1143C 11.343 36.1774 20.5202 45.3857 20.5202 56.7429C 20.5202 68.1001 11.343 77.3076 4.0914e-06 77.3714L 4.0914e-06 113.486L 11.2337 113.486L 11.2337 100.707C 15.3978 99.635 19.3256 97.9785 22.9382 95.8439L 31.9861 104.891L 48.0367 88.8419L 38.9888 79.7948C 41.1234 76.1825 42.7801 72.255 43.8519 68.0897L 56.6321 68.0897L 56.6321 68.0913Z"/>
<path id="path3_fill" d="M 79.4482 47.6646L 79.4482 31.7767L 70.5017 31.7767C 69.7515 28.8618 68.592 26.1121 67.0981 23.5834L 73.4304 17.2516L 62.1951 6.01733L 55.8628 12.349C 53.3339 10.8553 50.5839 9.69586 47.6688 8.94579L 47.6688 -7.79246e-06L 31.7795 -7.79246e-06L 31.7795 8.94579C 28.8643 9.69666 26.1143 10.8553 23.5854 12.349L 17.2531 6.01733L 6.01785 17.2516L 12.3501 23.5834C 10.8562 26.1121 9.69671 28.8602 8.94658 31.7751L 1.26639e-06 31.7751L 1.26639e-06 47.663L 8.94658 47.663C 9.69671 50.5779 10.8562 53.3277 12.3501 55.8564L 6.01785 62.1881L 17.2531 73.4224L 23.5854 67.0907C 26.1143 68.5844 28.8643 69.7439 31.7795 70.4955L 31.7795 79.4413L 47.6688 79.4413L 47.6688 70.4955C 50.5839 69.7447 53.3339 68.5861 55.8612 67.0923L 62.1951 73.4256L 73.4304 62.1913L 67.0965 55.858C 68.5904 53.3293 69.7499 50.5795 70.5001 47.6646L 79.4482 47.6646ZM 39.7245 54.1647C 31.7467 54.1647 25.2796 47.6982 25.2796 39.7211C 25.2796 31.744 31.7467 25.2774 39.7245 25.2774C 47.7023 25.2774 54.1694 31.744 54.1694 39.7211C 54.1694 47.6974 47.7023 54.1647 39.7245 54.1647Z"/>
<path id="path4_fill" d="M 39.6663 47.663L 39.6663 31.7751L 30.7197 31.7751C 29.9695 28.8602 28.81 26.1105 27.3162 23.5818L 33.6484 17.25L 22.4131 6.01574L 16.0809 12.349C 13.5519 10.8553 10.802 9.69587 7.8868 8.9458L 7.8868 3.50661e-06L -3.89657e-07 3.50661e-06L -3.89657e-07 25.279C 7.94985 25.3109 14.3875 31.7623 14.3875 39.7203C 14.3875 47.6782 7.95065 54.1296 -3.89657e-07 54.1615L -3.89657e-07 79.4405L 7.8868 79.4405L 7.8868 70.4947C 10.802 69.7439 13.5519 68.5852 16.0792 67.0915L 22.4131 73.4248L 33.6484 62.1905L 27.3145 55.8572C 28.8084 53.3285 29.968 50.5787 30.7181 47.6638L 39.6655 47.6638L 39.6663 47.663Z"/>
<path id="path5_fill" d="M 147.544 88.5188L 147.544 59.0123L 130.929 59.0123C 129.536 53.5982 127.383 48.4921 124.608 43.797L 136.369 32.0368L 115.504 11.1737L 103.743 22.9338C 99.0476 20.1594 93.941 18.0065 88.5265 16.6133L 88.5265 -2.19163e-06L 59.0174 -2.19163e-06L 59.0174 16.6117C 53.6028 18.0049 48.4971 20.1578 43.8008 22.9322L 32.0396 11.1721L 11.1746 32.0368L 22.9358 43.797C 20.1611 48.4921 18.0081 53.5982 16.6147 59.0107L 6.03968e-06 59.0107L 6.03968e-06 88.5172L 16.6131 88.5172C 18.0065 93.9313 20.1595 99.0373 22.9342 103.732L 11.173 115.491L 32.038 136.354L 43.7976 124.596C 48.4939 127.37 53.6013 129.525 59.0158 130.918L 59.0158 147.529L 88.5249 147.529L 88.5249 130.918C 93.9387 129.525 99.0451 127.372 103.74 124.597L 115.502 136.359L 136.367 115.494L 124.605 103.733C 127.38 99.0373 129.533 93.9305 130.926 88.518L 147.543 88.518L 147.543 88.5188L 147.544 88.5188ZM 73.7711 100.589C 58.9552 100.589 46.945 88.5794 46.945 73.7655C 46.945 58.9516 58.9552 46.9417 73.7711 46.9417C 88.5871 46.9417 100.597 58.9516 100.597 73.7655C 100.597 88.5794 88.5879 100.589 73.7711 100.589Z"/>
<path id="path6_fill" d="M 73.3713 88.5188L 73.3713 59.0123L 56.7566 59.0123C 55.3633 53.5982 53.2102 48.4929 50.4355 43.797L 62.1967 32.0368L 41.3317 11.1737L 29.5706 22.9338C 24.875 20.1594 19.7685 18.0065 14.3539 16.6133L 14.3539 -2.19163e-06L -6.819e-06 -2.19163e-06L -6.819e-06 46.9624C 14.6277 47.1795 26.4248 59.0873 26.4248 73.7655C 26.4248 88.4438 14.6285 100.352 -6.819e-06 100.569L -6.819e-06 147.531L 14.3532 147.531L 14.3532 130.919C 19.7669 129.526 24.8734 127.373 29.5681 124.599L 41.3301 136.36L 62.1959 115.495L 50.4339 103.734C 53.2086 99.0381 55.3617 93.9313 56.755 88.5188L 73.3713 88.5188Z"/>
</defs>
</svg>
