<svg width="162" height="142" viewBox="0 0 162 142" version="1.1" xmlns="http://www.w3.org/2000/svg" xmlns:xlink="http://www.w3.org/1999/xlink">
<title>cogwheels</title>
<desc>Created using Figma</desc>
<g id="Canvas" transform="translate(9461 4131)">
<g id="cogwheels">
<g id="Vector">
<use xlink:href="#path0_fill" transform="translate(-9461 -4131)" fill="url(#paint0_linear)"/>
</g>
<g id="Vector">
<use xlink:href="#path1_fill" transform="translate(-9461 -4099.61)" fill="#FD8469"/>
</g>
<g id="Group">
<g id="Vector">
<use xlink:href="#path2_fill" transform="translate(-9434.83 -4099.61)" fill="#FC6F58"/>
</g>
<g id="Vector">
<use xlink:href="#path3_fill" transform="translate(-9403.54 -4057.75)" fill="#46C35F"/>
</g>
</g>
<g id="Vector">
<use xlink:href="#path4_fill" transform="translate(-9385.23 -4057.75)" fill="#358E46"/>
</g>
<g id="Vector">
<use xlink:href="#path5_fill" transform="translate(-9403.54 -4131)" fill="#FFD15D"/>
</g>
<g id="Vector">
<use xlink:href="#path6_fill" transform="translate(-9369.41 -4131)" fill="#F9B54C"/>
</g>
</g>
</g>
<defs>
<linearGradient id="paint0_linear" x1="0" y1="0" x2="1" y2="0" gradientUnits="userSpaceOnUse" gradientTransform="matrix(37.7386 99.5844 -113.61 43.2059 137.805 -21.603)">
<stop offset="0" stop-color="#2B3B4E"/>
<stop offset="1" stop-color="#2B3B4E" stop-opacity="0"/>
</linearGradient>
<path id="path0_fill" d="M 120.219 14.7706L 116.496 18.3266L 98.2002 -8.08341e-07L 70.068 29.3583L 57.4578 40.8102L 75.2223 58.6045L 72.2033 62.8657L 87.3264 78.0141L 85.7391 79.6041L 79.3956 73.25L 79.1848 73.7135L 48.2776 42.7553L 43.5784 43.6522L 31.3406 31.3931L 14.3514 41.4084L 4.9316e-07 62.7855L 12.5683 75.3749L 11.3427 79.7509L 73.4881 142C 120.161 139.496 157.787 102.897 162 56.6223L 120.219 14.7706Z"/>
<path id="path1_fill" d="M 52.2338 31.3927L 52.2338 20.9286L 46.352 20.9286C 45.8587 19.009 45.0963 17.1975 44.1138 15.5328L 48.2772 11.3625L 40.8903 3.96322L 36.7269 8.13358C 35.0643 7.14985 33.2566 6.38649 31.3402 5.89168L 31.3402 -9.43065e-07L 20.8936 -9.43065e-07L 20.8936 5.89168C 18.9772 6.38575 17.1687 7.14948 15.5069 8.13358L 11.3435 3.96322L 3.9566 11.3625L 8.11996 15.5328C 7.13788 17.1975 6.3758 19.0083 5.88255 20.9279L 2.91413e-07 20.9279L 2.91413e-07 31.392L 5.88182 31.392C 6.37506 33.3124 7.13752 35.1231 8.11923 36.7885L 3.95586 40.9592L 11.3428 48.3585L 15.5061 44.1885C 17.1687 45.1723 18.9764 45.9364 20.8936 46.4304L 20.8936 52.3221L 31.3402 52.3221L 31.3402 46.4304C 33.2566 45.9364 35.0643 45.1726 36.7269 44.1885L 40.8911 48.3596L 48.2779 40.9603L 44.1138 36.7893C 45.0963 35.1238 45.8587 33.3131 46.352 31.3927L 52.2338 31.3927ZM 26.1169 35.6738C 20.8719 35.6738 16.6197 31.4145 16.6197 26.1607C 16.6197 20.9069 20.8719 16.6475 26.1169 16.6475C 31.3619 16.6475 35.6141 20.9069 35.6141 26.1607C 35.6141 31.4145 31.3626 35.6738 26.1169 35.6738Z"/>
<path id="path2_fill" d="M 26.0636 31.3927L 26.0636 20.9286L 20.1818 20.9286C 19.6886 19.009 18.9261 17.1975 17.9437 15.5328L 22.1071 11.3625L 14.7202 3.96322L 10.5568 8.13358C 8.89416 7.14985 7.08647 6.38649 5.17005 5.89168L 5.17005 -9.43065e-07L 1.88297e-06 -9.43065e-07L 1.88297e-06 16.6501C 5.22037 16.6792 9.44397 20.9246 9.44397 26.1607C 9.44397 31.3968 5.22037 35.6418 1.88297e-06 35.6713L 1.88297e-06 52.3214L 5.17005 52.3214L 5.17005 46.4297C 7.08647 45.9356 8.89416 45.1719 10.5568 44.1878L 14.7209 48.3589L 22.1078 40.9596L 17.9437 36.7885C 18.9261 35.1231 19.6886 33.3124 20.1818 31.392L 26.0636 31.392L 26.0636 31.3927Z"/>
<path id="path3_fill" d="M 36.5643 21.9753L 36.5643 14.6503L 32.4468 14.6503C 32.1016 13.3064 31.5679 12.0387 30.8804 10.8729L 33.7947 7.95367L 28.6239 2.77422L 25.7096 5.69339C 24.5457 5.00471 23.2801 4.47017 21.9385 4.12436L 21.9385 -3.59263e-06L 14.6258 -3.59263e-06L 14.6258 4.12436C 13.2841 4.47054 12.0185 5.00471 10.8546 5.69339L 7.94037 2.77422L 2.76958 7.95367L 5.68386 10.8729C 4.99634 12.0387 4.46269 13.3057 4.11746 14.6496L 5.82825e-07 14.6496L 5.82825e-07 21.9745L 4.11746 21.9745C 4.46269 23.3184 4.99634 24.5861 5.68386 25.752L 2.76958 28.6711L 7.94037 33.8506L 10.8546 30.9314C 12.0185 31.6201 13.2841 32.1546 14.6258 32.5012L 14.6258 36.6255L 21.9385 36.6255L 21.9385 32.5012C 23.2801 32.155 24.5457 31.6208 25.7089 30.9322L 28.6239 33.8521L 33.7947 28.6726L 30.8797 25.7527C 31.5672 24.5869 32.1008 23.3191 32.4461 21.9753L 36.5643 21.9753ZM 18.2823 24.972C 14.6107 24.972 11.6344 21.9907 11.6344 18.313C 11.6344 14.6352 14.6107 11.6539 18.2823 11.6539C 21.9539 11.6539 24.9303 14.6352 24.9303 18.313C 24.9303 21.9903 21.9539 24.972 18.2823 24.972Z"/>
<path id="path4_fill" d="M 18.2555 21.9745L 18.2555 14.6496L 14.138 14.6496C 13.7928 13.3057 13.2592 12.0379 12.5716 10.8721L 15.4859 7.95294L 10.3151 2.77349L 7.40085 5.69339C 6.23697 5.00471 4.97136 4.47017 3.62972 4.12436L 3.62972 1.61668e-06L -1.79331e-07 1.61668e-06L -1.79331e-07 11.6546C 3.65874 11.6693 6.6215 14.6437 6.6215 18.3126C 6.6215 21.9815 3.65911 24.9559 -1.79331e-07 24.9706L -1.79331e-07 36.6252L 3.62972 36.6252L 3.62972 32.5008C 4.97136 32.1546 6.23697 31.6205 7.40011 30.9318L 10.3151 33.8517L 15.4859 28.6722L 12.5709 25.7523C 13.2584 24.5865 13.7921 23.3188 14.1373 21.9749L 18.2551 21.9749L 18.2555 21.9745Z"/>
<path id="path5_fill" d="M 67.9037 40.8106L 67.9037 27.207L 60.2572 27.207C 59.6159 24.7109 58.625 22.3568 57.348 20.1921L 62.7608 14.7702L 53.1582 5.15149L 47.7454 10.5734C 45.5844 9.29425 43.2342 8.3017 40.7423 7.65937L 40.7423 -1.01043e-06L 27.1614 -1.01043e-06L 27.1614 7.65863C 24.6695 8.30096 22.3197 9.29352 20.1583 10.5727L 14.7455 5.15076L 5.14287 14.7702L 10.5557 20.1921C 9.2787 22.3568 8.2878 24.7108 7.64655 27.2062L 2.77963e-06 27.2062L 2.77963e-06 40.8099L 7.64582 40.8099C 8.28707 43.306 9.27796 45.6601 10.555 47.8247L 5.14214 53.2459L 14.7448 62.8646L 20.1569 57.4434C 22.3182 58.7226 24.6688 59.7159 27.1607 60.3582L 27.1607 68.0168L 40.7416 68.0168L 40.7416 60.3582C 43.2331 59.7159 45.5833 58.7233 47.7439 57.4442L 53.1571 62.8668L 62.7597 53.2473L 57.3466 47.8251C 58.6236 45.6601 59.6144 43.3056 60.2557 40.8102L 67.9034 40.8102L 67.9034 40.8106L 67.9037 40.8106ZM 33.9515 46.3756C 27.1328 46.3756 21.6054 40.8386 21.6054 34.0088C 21.6054 27.179 27.1328 21.6419 33.9515 21.6419C 40.7702 21.6419 46.2976 27.179 46.2976 34.0088C 46.2976 40.8386 40.7706 46.3756 33.9515 46.3756Z"/>
<path id="path6_fill" d="M 33.7675 40.8106L 33.7675 27.2069L 26.1209 27.2069C 25.4797 24.7108 24.4888 22.3571 23.2118 20.1921L 28.6246 14.7702L 19.022 5.15149L 13.6092 10.5734C 11.4482 9.29425 9.098 8.30169 6.60607 7.65937L 6.60607 -1.01043e-06L -3.13829e-06 -1.01043e-06L -3.13829e-06 21.6515C 6.73205 21.7516 12.1614 27.2415 12.1614 34.0088C 12.1614 40.776 6.73241 46.266 -3.13829e-06 46.366L -3.13829e-06 68.0175L 6.60571 68.0175L 6.60571 60.3589C 9.09727 59.7166 11.4474 58.724 13.6081 57.4449L 19.0213 62.8672L 28.6242 53.2477L 23.2111 47.8254C 24.4881 45.6604 25.4789 43.306 26.1202 40.8106L 33.7675 40.8106Z"/>
</defs>
</svg>
