<svg width="18" height="18" viewBox="0 0 18 18" version="1.1" xmlns="http://www.w3.org/2000/svg" xmlns:xlink="http://www.w3.org/1999/xlink">
<title>Group</title>
<desc>Created using Figma</desc>
<g id="Canvas" transform="translate(-2522 -4611)">
<g id="Group">
<g id="Group">
<g id="Stroke 345">
<use xlink:href="#path0_stroke" transform="translate(2531 4612)" fill="#005F91"/>
</g>
<g id="Stroke 346">
<use xlink:href="#path1_stroke" transform="translate(2531 4612)" fill="#005F91"/>
</g>
<g id="Stroke 347">
<use xlink:href="#path2_stroke" transform="translate(2528.71 4612)" fill="#005F91"/>
</g>
<g id="Stroke 348">
<use xlink:href="#path3_stroke" transform="translate(2523 4615.43)" fill="#005F91"/>
</g>
</g>
</g>
</g>
<defs>
<path id="path0_stroke" d="M -0.5 11.4286C -0.5 11.7047 -0.276142 11.9286 0 11.9286C 0.276142 11.9286 0.5 11.7047 0.5 11.4286L -0.5 11.4286ZM 0.5 0C 0.5 -0.276142 0.276142 -0.5 0 -0.5C -0.276142 -0.5 -0.5 -0.276142 -0.5 0L 0.5 0ZM 0.5 11.4286L 0.5 0L -0.5 0L -0.5 11.4286L 0.5 11.4286Z"/>
<path id="path1_stroke" d="M 1.93216 2.63927C 2.12742 2.83453 2.44401 2.83453 2.63927 2.63927C 2.83453 2.44401 2.83453 2.12742 2.63927 1.93216L 1.93216 2.63927ZM 0.353553 -0.353553C 0.158291 -0.548816 -0.158291 -0.548816 -0.353553 -0.353553C -0.548816 -0.158291 -0.548816 0.158291 -0.353553 0.353553L 0.353553 -0.353553ZM 2.63927 1.93216L 0.353553 -0.353553L -0.353553 0.353553L 1.93216 2.63927L 2.63927 1.93216Z"/>
<path id="path2_stroke" d="M 2.63927 0.353553C 2.83453 0.158291 2.83453 -0.158291 2.63927 -0.353553C 2.44401 -0.548816 2.12742 -0.548816 1.93216 -0.353553L 2.63927 0.353553ZM -0.353553 1.93216C -0.548816 2.12742 -0.548816 2.44401 -0.353553 2.63927C -0.158291 2.83453 0.158291 2.83453 0.353553 2.63927L -0.353553 1.93216ZM 1.93216 -0.353553L -0.353553 1.93216L 0.353553 2.63927L 2.63927 0.353553L 1.93216 -0.353553Z"/>
<path id="path3_stroke" d="M 14.8571 -0.5C 14.581 -0.5 14.3571 -0.276142 14.3571 0C 14.3571 0.276142 14.581 0.5 14.8571 0.5L 14.8571 -0.5ZM 1.14286 0.5C 1.419 0.5 1.64286 0.276142 1.64286 0C 1.64286 -0.276142 1.419 -0.5 1.14286 -0.5L 1.14286 0.5ZM 14.8571 0.5C 15.213 0.5 15.5 0.787 15.5 1.14286L 16.5 1.14286C 16.5 0.234715 15.7653 -0.5 14.8571 -0.5L 14.8571 0.5ZM 15.5 1.14286L 15.5 11.4286L 16.5 11.4286L 16.5 1.14286L 15.5 1.14286ZM 15.5 11.4286C 15.5 11.7844 15.213 12.0714 14.8571 12.0714L 14.8571 13.0714C 15.7653 13.0714 16.5 12.3367 16.5 11.4286L 15.5 11.4286ZM 14.8571 12.0714L 1.14286 12.0714L 1.14286 13.0714L 14.8571 13.0714L 14.8571 12.0714ZM 1.14286 12.0714C 0.787 12.0714 0.5 11.7844 0.5 11.4286L -0.5 11.4286C -0.5 12.3367 0.234715 13.0714 1.14286 13.0714L 1.14286 12.0714ZM 0.5 11.4286L 0.5 1.14286L -0.5 1.14286L -0.5 11.4286L 0.5 11.4286ZM 0.5 1.14286C 0.5 0.787 0.786999 0.5 1.14286 0.5L 1.14286 -0.5C 0.234715 -0.5 -0.5 0.234715 -0.5 1.14286L 0.5 1.14286Z"/>
</defs>
</svg>
