<svg width="16" height="16" viewBox="0 0 16 16" version="1.1" xmlns="http://www.w3.org/2000/svg" xmlns:xlink="http://www.w3.org/1999/xlink">
<title>Group</title>
<desc>Created using Figma</desc>
<g id="Canvas" transform="translate(-2409 -4613)">
<g id="Group">
<g id="Stroke 190">
<use xlink:href="#path0_stroke" transform="translate(2415 4621)" fill="#005F91"/>
</g>
<g id="Stroke 191">
<use xlink:href="#path1_stroke" transform="translate(2417 4619)" fill="#005F91"/>
</g>
<g id="Stroke 192">
<use xlink:href="#path2_stroke" transform="translate(2410 4614)" fill="#005F91"/>
</g>
</g>
</g>
<defs>
<path id="path0_stroke" d="M 0 -0.5C -0.276142 -0.5 -0.5 -0.276142 -0.5 0C -0.5 0.276142 -0.276142 0.5 0 0.5L 0 -0.5ZM 4 0.5C 4.27614 0.5 4.5 0.276142 4.5 0C 4.5 -0.276142 4.27614 -0.5 4 -0.5L 4 0.5ZM 0 0.5L 4 0.5L 4 -0.5L 0 -0.5L 0 0.5Z"/>
<path id="path1_stroke" d="M 0.5 0C 0.5 -0.276142 0.276142 -0.5 0 -0.5C -0.276142 -0.5 -0.5 -0.276142 -0.5 0L 0.5 0ZM -0.5 3.99739C -0.5 4.27353 -0.276142 4.49739 0 4.49739C 0.276142 4.49739 0.5 4.27353 0.5 3.99739L -0.5 3.99739ZM -0.5 0L -0.5 3.99739L 0.5 3.99739L 0.5 0L -0.5 0Z"/>
<path id="path2_stroke" d="M 13 13.4909L 1 13.4909L 1 14.4909L 13 14.4909L 13 13.4909ZM 1 13.4909C 0.723835 13.4909 0.5 13.2667 0.5 12.9915L -0.5 12.9915C -0.5 13.8196 0.172165 14.4909 1 14.4909L 1 13.4909ZM 0.5 12.9915L 0.5 0.999348L -0.5 0.999348L -0.5 12.9915L 0.5 12.9915ZM 0.5 0.999348C 0.5 0.724158 0.723835 0.5 1 0.5L 1 -0.5C 0.172165 -0.5 -0.5 0.171258 -0.5 0.999348L 0.5 0.999348ZM 1 0.5L 13 0.5L 13 -0.5L 1 -0.5L 1 0.5ZM 13 0.5C 13.2762 0.5 13.5 0.724158 13.5 0.999348L 14.5 0.999348C 14.5 0.171258 13.8278 -0.5 13 -0.5L 13 0.5ZM 13.5 0.999348L 13.5 12.9915L 14.5 12.9915L 14.5 0.999348L 13.5 0.999348ZM 13.5 12.9915C 13.5 13.2667 13.2762 13.4909 13 13.4909L 13 14.4909C 13.8278 14.4909 14.5 13.8196 14.5 12.9915L 13.5 12.9915Z"/>
</defs>
</svg>
