<svg width="10" height="6" viewBox="0 0 10 6" version="1.1" xmlns="http://www.w3.org/2000/svg" xmlns:xlink="http://www.w3.org/1999/xlink">
<title>Stroke 186</title>
<desc>Created using Figma</desc>
<g id="Canvas" transform="translate(-1642 -3045)">
<g id="Stroke 186">
<use xlink:href="#path0_stroke" transform="matrix(6.12323e-17 -1 1 6.12323e-17 1643 3050)" fill="#343434"/>
</g>
</g>
<defs>
<path id="path0_stroke" d="M 3.29289 8.70711C 3.68342 9.09763 4.31658 9.09763 4.70711 8.70711C 5.09763 8.31658 5.09763 7.68342 4.70711 7.29289L 3.29289 8.70711ZM 0 4L -0.707107 3.29289C -0.894643 3.48043 -1 3.73478 -1 4C -1 4.26522 -0.894643 4.51957 -0.707107 4.70711L 0 4ZM 4.70711 0.707107C 5.09763 0.316583 5.09763 -0.316583 4.70711 -0.707107C 4.31658 -1.09763 3.68342 -1.09763 3.29289 -0.707107L 4.70711 0.707107ZM 4.70711 7.29289L 0.707107 3.29289L -0.707107 4.70711L 3.29289 8.70711L 4.70711 7.29289ZM 0.707107 4.70711L 4.70711 0.707107L 3.29289 -0.707107L -0.707107 3.29289L 0.707107 4.70711Z"/>
</defs>
</svg>
