<svg width="137" height="142" viewBox="0 0 137 142" version="1.1" xmlns="http://www.w3.org/2000/svg" xmlns:xlink="http://www.w3.org/1999/xlink">
<title>email 2</title>
<desc>Created using Figma</desc>
<g id="Canvas" transform="translate(9147 4129)">
<g id="email 2">
<g id="Vector">
<use xlink:href="#path0_fill" transform="translate(-9147 -4116.89)" fill="url(#paint0_linear)"/>
</g>
<g id="Vector">
<use xlink:href="#path1_fill" transform="translate(-9147 -4092.68)" fill="#CECECE"/>
</g>
<g id="Vector">
<use xlink:href="#path2_fill" transform="translate(-9098.47 -4092.68)" fill="#EFEFEF"/>
</g>
<g id="Vector">
<use xlink:href="#path3_fill" transform="translate(-9147 -4129)" fill="#31BAFD"/>
</g>
<g id="Vector">
<use xlink:href="#path4_fill" transform="translate(-9098.47 -4128.92)" fill="#2B9ED8"/>
</g>
<g id="Vector">
<use xlink:href="#path5_fill" transform="translate(-9134.89 -4116.89)" fill="#FFFFFF"/>
</g>
<g id="Vector">
<use xlink:href="#path6_fill" transform="translate(-9098.47 -4116.89)" fill="#D0D1D3"/>
</g>
<g id="Group">
<g id="Vector">
<use xlink:href="#path7_fill" transform="translate(-9124.44 -4102.38)" fill="#FD8469"/>
</g>
<g id="Vector">
<use xlink:href="#path8_fill" transform="translate(-9124.44 -4096.21)" fill="#FD8469"/>
</g>
</g>
<g id="Group">
<g id="Vector">
<use xlink:href="#path9_fill" transform="translate(-9098.47 -4102.38)" fill="#FC6F58"/>
</g>
<g id="Vector">
<use xlink:href="#path10_fill" transform="translate(-9098.47 -4096.21)" fill="#FC6F58"/>
</g>
</g>
</g>
</g>
<defs>
<linearGradient id="paint0_linear" x1="0" y1="0" x2="1" y2="0" gradientUnits="userSpaceOnUse" gradientTransform="matrix(49.1413 77.8102 -82.0688 51.754 109.534 -25.877)">
<stop offset="0" stop-color="#133474"/>
<stop offset="1" stop-color="#133474" stop-opacity="0"/>
</linearGradient>
<path id="path0_fill" d="M 137 52.2589L 84.7497 1.74686e-06L 30.3847 48.3655L -7.24186e-07 84.7637L 45.0499 129.821C 46.1719 129.863 47.297 129.891 48.4283 129.891C 93.7958 129.891 131.261 96.0678 137 52.2589Z"/>
<path id="path1_fill" d="M 96.857 0L 0 0L 0 60.5424L 96.857 60.5424L 96.857 0Z"/>
<path id="path2_fill" d="M 48.3261 0L 0 0L 0 60.5424L 48.3261 60.5424L 48.3261 0Z"/>
<path id="path3_fill" d="M -7.24186e-07 36.3274L 48.4283 72.6548L 96.8566 36.3274L 48.4283 -1.00125e-06L -7.24186e-07 36.3274Z"/>
<path id="path4_fill" d="M -1.95956e-06 1.91728e-07L -1.95956e-06 72.5041L 48.3278 36.252L -1.95956e-06 1.91728e-07Z"/>
<path id="path5_fill" d="M 2.21516e-06 1.74686e-06L 2.21516e-06 33.3003L 36.3214 60.5456L 72.6428 33.3003L 72.6428 1.74686e-06L 2.21516e-06 1.74686e-06Z"/>
<path id="path6_fill" d="M 36.2209 1.74686e-06L -1.95956e-06 1.74686e-06L -1.95956e-06 60.4702L 36.2209 33.3003L 36.2209 1.74686e-06Z"/>
<path id="path7_fill" d="M 51.7373 -2.00249e-06L -2.08736e-06 -2.00249e-06L -2.08736e-06 2.40691L 51.7373 2.40691L 51.7373 -2.00249e-06Z"/>
<path id="path8_fill" d="M 51.7373 -2.64159e-06L -2.08736e-06 -2.64159e-06L -2.08736e-06 2.40691L 51.7373 2.40691L 51.7373 -2.64159e-06Z"/>
<path id="path9_fill" d="M 25.7681 -2.00249e-06L 0 -2.00249e-06L 0 2.40691L 25.7681 2.40691L 25.7681 -2.00249e-06Z"/>
<path id="path10_fill" d="M 25.7681 -2.64159e-06L 0 -2.64159e-06L 0 2.40691L 25.7681 2.40691L 25.7681 -2.64159e-06Z"/>
</defs>
</svg>
