<svg width="16" height="22" viewBox="0 0 16 22" version="1.1" xmlns="http://www.w3.org/2000/svg" xmlns:xlink="http://www.w3.org/1999/xlink">
<title>Stroke 454</title>
<desc>Created using Figma</desc>
<g id="Canvas" transform="translate(-835 -1846)">
<g id="Stroke 454">
<use xlink:href="#path0_stroke" transform="translate(836 1847)" fill="#005F91" fill-opacity="0.54"/>
</g>
</g>
<defs>
<path id="path0_stroke" d="M 14 20L 13.3676 20.7747C 13.6668 21.0189 14.0798 21.069 14.4287 20.9034C 14.7776 20.7379 15 20.3862 15 20L 14 20ZM 0 20L -1 20C -1 20.3862 -0.777628 20.7379 -0.428733 20.9034C -0.0798378 21.069 0.333211 21.0189 0.632376 20.7747L 0 20ZM 7 14.2857L 7.63238 13.5111C 7.26432 13.2106 6.73568 13.2106 6.36762 13.5111L 7 14.2857ZM 15 20L 15 1.42857L 13 1.42857L 13 20L 15 20ZM 15 1.42857C 15 0.104771 13.9434 -1 12.6 -1L 12.6 1C 12.8022 1 13 1.17237 13 1.42857L 15 1.42857ZM 12.6 -1L 1.4 -1L 1.4 1L 12.6 1L 12.6 -1ZM 1.4 -1C 0.0566105 -1 -1 0.104771 -1 1.42857L 1 1.42857C 1 1.17237 1.19779 1 1.4 1L 1.4 -1ZM -1 1.42857L -1 20L 1 20L 1 1.42857L -1 1.42857ZM 0.632376 20.7747L 7.63238 15.0604L 6.36762 13.5111L -0.632376 19.2253L 0.632376 20.7747ZM 6.36762 15.0604L 13.3676 20.7747L 14.6324 19.2253L 7.63238 13.5111L 6.36762 15.0604Z"/>
</defs>
</svg>
