<svg width="23" height="23" viewBox="0 0 23 23" version="1.1" xmlns="http://www.w3.org/2000/svg" xmlns:xlink="http://www.w3.org/1999/xlink">
<title>Group</title>
<desc>Created using Figma</desc>
<g id="Canvas" transform="translate(-832 -1485)">
<g id="Group">
<g id="Stroke 441">
<use xlink:href="#path0_stroke" transform="translate(833 1486)" fill="#005F91" fill-opacity="0.54"/>
</g>
<g id="Stroke 442">
<use xlink:href="#path1_stroke" transform="translate(837.5 1495)" fill="#005F91" fill-opacity="0.54"/>
</g>
<g id="Stroke 443">
<use xlink:href="#path2_stroke" transform="translate(842 1489)" fill="#005F91" fill-opacity="0.54"/>
</g>
<g id="Stroke 444">
<use xlink:href="#path3_stroke" transform="translate(846.5 1499.5)" fill="#005F91" fill-opacity="0.54"/>
</g>
<g id="Stroke 445">
<use xlink:href="#path4_stroke" transform="translate(851 1493.5)" fill="#005F91" fill-opacity="0.54"/>
</g>
</g>
</g>
<defs>
<path id="path0_stroke" d="M 21 22C 21.5523 22 22 21.5523 22 21C 22 20.4477 21.5523 20 21 20L 21 22ZM 1 0C 1 -0.552285 0.552285 -1 0 -1C -0.552285 -1 -1 -0.552285 -1 0L 1 0ZM 21 20L 1.5 20L 1.5 22L 21 22L 21 20ZM 1.5 20C 1.22363 20 1 19.7766 1 19.5L -1 19.5C -1 20.8824 0.120367 22 1.5 22L 1.5 20ZM 1 19.5L 1 0L -1 0L -1 19.5L 1 19.5Z"/>
<path id="path1_stroke" d="M -1 7.5C -1 8.05229 -0.552285 8.5 0 8.5C 0.552285 8.5 1 8.05229 1 7.5L -1 7.5ZM 1 0C 1 -0.552285 0.552285 -1 0 -1C -0.552285 -1 -1 -0.552285 -1 0L 1 0ZM 1 7.5L 1 0L -1 0L -1 7.5L 1 7.5Z"/>
<path id="path2_stroke" d="M 1 0C 1 -0.552285 0.552285 -1 0 -1C -0.552285 -1 -1 -0.552285 -1 0L 1 0ZM -1 13.5C -1 14.0523 -0.552285 14.5 0 14.5C 0.552285 14.5 1 14.0523 1 13.5L -1 13.5ZM -1 0L -1 13.5L 1 13.5L 1 0L -1 0Z"/>
<path id="path3_stroke" d="M -1 3C -1 3.55228 -0.552285 4 0 4C 0.552285 4 1 3.55228 1 3L -1 3ZM 1 0C 1 -0.552285 0.552285 -1 0 -1C -0.552285 -1 -1 -0.552285 -1 0L 1 0ZM 1 3L 1 0L -1 0L -1 3L 1 3Z"/>
<path id="path4_stroke" d="M -1 9C -1 9.55229 -0.552285 10 0 10C 0.552285 10 1 9.55229 1 9L -1 9ZM 1 0C 1 -0.552285 0.552285 -1 0 -1C -0.552285 -1 -1 -0.552285 -1 0L 1 0ZM 1 9L 1 0L -1 0L -1 9L 1 9Z"/>
</defs>
</svg>
