<svg width="16" height="18" viewBox="0 0 16 18" version="1.1" xmlns="http://www.w3.org/2000/svg" xmlns:xlink="http://www.w3.org/1999/xlink">
<title>Group</title>
<desc>Created using Figma</desc>
<g id="Canvas" transform="translate(-5596 -3564)">
<g id="Group">
<g id="Stroke 9">
<use xlink:href="#path0_stroke" transform="translate(5600.5 3573.01)" fill="#FFFFFF"/>
</g>
<g id="Stroke 11">
<use xlink:href="#path1_stroke" transform="translate(5600.5 3576.44)" fill="#FFFFFF"/>
</g>
<g id="Stroke 13">
<use xlink:href="#path2_stroke" transform="translate(5597 3565)" fill="#FFFFFF"/>
</g>
<g id="Stroke 15">
<use xlink:href="#path3_stroke" transform="translate(5600.5 3569.57)" fill="#FFFFFF"/>
</g>
</g>
</g>
<defs>
<path id="path0_stroke" d="M 0 -1C -0.552285 -1 -1 -0.552285 -1 0C -1 0.552285 -0.552285 1 0 1L 0 -1ZM 4.66667 1C 5.21895 1 5.66667 0.552285 5.66667 0C 5.66667 -0.552285 5.21895 -1 4.66667 -1L 4.66667 1ZM 0 1L 4.66667 1L 4.66667 -1L 0 -1L 0 1Z"/>
<path id="path1_stroke" d="M 0 -1C -0.552285 -1 -1 -0.552285 -1 0C -1 0.552285 -0.552285 1 0 1L 0 -1ZM 2.33333 1C 2.88562 1 3.33333 0.552285 3.33333 0C 3.33333 -0.552285 2.88562 -1 2.33333 -1L 2.33333 1ZM 0 1L 2.33333 1L 2.33333 -1L 0 -1L 0 1Z"/>
<path id="path2_stroke" d="M 12.8333 15L 1.16667 15L 1.16667 17L 12.8333 17L 12.8333 15ZM 1.16667 15C 1.05541 15 1 14.9164 1 14.8571L -1 14.8571C -1 16.0596 -0.010079 17 1.16667 17L 1.16667 15ZM 1 14.8571L 1 1.14286L -1 1.14286L -1 14.8571L 1 14.8571ZM 1 1.14286C 1 1.08362 1.05541 1 1.16667 1L 1.16667 -1C -0.0100795 -1 -1 -0.0596229 -1 1.14286L 1 1.14286ZM 1.16667 1L 12.8333 1L 12.8333 -1L 1.16667 -1L 1.16667 1ZM 12.8333 1C 12.9451 1 13 1.08298 13 1.14286L 15 1.14286C 15 -0.0589783 14.0119 -1 12.8333 -1L 12.8333 1ZM 13 1.14286L 13 14.8571L 15 14.8571L 15 1.14286L 13 1.14286ZM 13 14.8571C 13 14.917 12.9451 15 12.8333 15L 12.8333 17C 14.0119 17 15 16.059 15 14.8571L 13 14.8571Z"/>
<path id="path3_stroke" d="M 0 -1C -0.552285 -1 -1 -0.552285 -1 0C -1 0.552285 -0.552285 1 0 1L 0 -1ZM 7 1C 7.55228 1 8 0.552285 8 0C 8 -0.552285 7.55228 -1 7 -1L 7 1ZM 0 1L 7 1L 7 -1L 0 -1L 0 1Z"/>
</defs>
</svg>
