<svg width="22" height="22" viewBox="0 0 22 22" version="1.1" xmlns="http://www.w3.org/2000/svg" xmlns:xlink="http://www.w3.org/1999/xlink">
<title>Group</title>
<desc>Created using Figma</desc>
<g id="Canvas" transform="translate(-832 -1774)">
<g id="Group">
<g id="Stroke 247">
<use xlink:href="#path0_stroke" transform="translate(833 1775)" fill="#005F91" fill-opacity="0.54"/>
</g>
<g id="Stroke 248">
<use xlink:href="#path1_stroke" transform="translate(840.143 1782.14)" fill="#005F91" fill-opacity="0.54"/>
</g>
</g>
</g>
<defs>
<path id="path0_stroke" d="M 7.77714 0L 7.77714 -1C 7.2993 -1 6.88823 -0.66194 6.79596 -0.193093L 7.77714 0ZM 7.65429 0.624286L 8.6338 0.825825L 8.63547 0.817378L 7.65429 0.624286ZM 7.18429 2.90857L 7.54124 3.84269C 7.86022 3.7208 8.09495 3.44457 8.16377 3.1101L 7.18429 2.90857ZM 5.13571 4.08571L 4.81843 5.03404C 5.13722 5.14071 5.48828 5.08005 5.75281 4.8726L 5.13571 4.08571ZM 2.83857 3.31714L 3.15586 2.36881C 3.14888 2.36648 3.14187 2.36422 3.13483 2.36204L 2.83857 3.31714ZM 2.22143 3.12571L 2.51769 2.17061C 2.07231 2.03246 1.59057 2.22047 1.35651 2.6238L 2.22143 3.12571ZM 1.90143 3.67714L 2.75985 4.19025L 2.76634 4.17906L 1.90143 3.67714ZM 0.32 6.32286L -0.538422 5.80975L -0.544914 5.82094L 0.32 6.32286ZM 0 6.87429L -0.864914 6.37237C -1.105 6.78608 -1.01848 7.31188 -0.658504 7.62686L 0 6.87429ZM 0.468571 7.28429L -0.189994 8.03693L -0.179645 8.04574L 0.468571 7.28429ZM 2.24571 8.79714L 3.23277 8.9575C 3.28888 8.61211 3.16038 8.26251 2.89393 8.03569L 2.24571 8.79714ZM 2.24571 11.2029L 2.89393 11.9643C 3.16038 11.7375 3.28888 11.3879 3.23277 11.0425L 2.24571 11.2029ZM 0.468571 12.7157L -0.179705 11.9542L -0.189933 11.9631L 0.468571 12.7157ZM 0 13.1257L -0.658504 12.3731C -1.01848 12.6881 -1.105 13.2139 -0.864914 13.6276L 0 13.1257ZM 0.32 13.6771L -0.544987 14.1791L -0.538351 14.1902L 0.32 13.6771ZM 1.90143 16.3229L 2.76699 15.8219L 2.75978 15.8098L 1.90143 16.3229ZM 2.22143 16.8757L 1.35595 17.3767C 1.59016 17.7813 2.07346 17.9696 2.5197 17.8302L 2.22143 16.8757ZM 2.83857 16.6829L 3.13685 17.6373C 3.1432 17.6354 3.14954 17.6333 3.15586 17.6312L 2.83857 16.6829ZM 5.13571 15.9143L 5.75281 15.1274C 5.48828 14.9199 5.13722 14.8593 4.81843 14.966L 5.13571 15.9143ZM 7.18429 17.0914L 8.16377 16.8899C 8.09495 16.5554 7.86022 16.2792 7.54124 16.1573L 7.18429 17.0914ZM 7.65429 19.3757L 8.6355 19.1826L 8.63377 19.1742L 7.65429 19.3757ZM 7.77714 20L 6.79596 20.1931C 6.88823 20.6619 7.2993 21 7.77714 21L 7.77714 20ZM 12.2214 20L 12.2214 21C 12.6984 21 13.109 20.6631 13.2022 20.1953L 12.2214 20ZM 12.3457 19.3757L 11.3661 19.1748L 11.365 19.1805L 12.3457 19.3757ZM 12.8143 17.0914L 12.4573 16.1573C 12.1382 16.2793 11.9033 16.5558 11.8347 16.8905L 12.8143 17.0914ZM 14.8629 15.9143L 15.1801 14.966C 14.8613 14.8593 14.5103 14.9199 14.2458 15.1274L 14.8629 15.9143ZM 17.16 16.6829L 16.8427 17.6312C 16.849 17.6333 16.8554 17.6354 16.8617 17.6373L 17.16 16.6829ZM 17.7771 16.8757L 17.4789 17.8302C 17.9244 17.9694 18.407 17.7819 18.6417 17.3783L 17.7771 16.8757ZM 18.0986 16.3229L 17.24 15.8101L 17.2341 15.8202L 18.0986 16.3229ZM 19.6786 13.6771L 20.5372 14.1899L 20.5425 14.1807L 19.6786 13.6771ZM 20 13.1257L 20.8639 13.6293C 21.1055 13.2149 21.0188 12.6874 20.6574 12.3721L 20 13.1257ZM 19.53 12.7157L 20.1874 11.9621L 20.1782 11.9543L 19.53 12.7157ZM 17.7529 11.2029L 16.7664 11.039C 16.7088 11.3855 16.8372 11.7367 17.1046 11.9643L 17.7529 11.2029ZM 17.7529 8.79714L 17.1046 8.03569C 16.8372 8.26332 16.7088 8.61454 16.7664 8.96096L 17.7529 8.79714ZM 19.53 7.28429L 20.1783 8.0458L 20.1874 8.03786L 19.53 7.28429ZM 20 6.87429L 20.6574 7.62786C 21.0188 7.31256 21.1055 6.78506 20.8639 6.37069L 20 6.87429ZM 19.6786 6.32286L 20.5426 5.81924L 20.5371 5.81014L 19.6786 6.32286ZM 18.0986 3.67714L 17.2346 4.18076L 17.24 4.18987L 18.0986 3.67714ZM 17.7771 3.12571L 18.6411 2.62212C 18.4066 2.21988 17.9256 2.03267 17.4809 2.17061L 17.7771 3.12571ZM 17.16 3.31714L 16.8637 2.36204C 16.8567 2.36422 16.8497 2.36648 16.8427 2.36881L 17.16 3.31714ZM 14.8629 4.08571L 14.2458 4.8726C 14.5103 5.08005 14.8613 5.14071 15.1801 5.03404L 14.8629 4.08571ZM 12.8143 2.90857L 11.8347 3.10952C 11.9033 3.44423 12.1382 3.72073 12.4573 3.84269L 12.8143 2.90857ZM 12.3457 0.624286L 11.3649 0.819542L 11.3661 0.82523L 12.3457 0.624286ZM 12.2214 0L 13.2022 -0.195253C 13.109 -0.663084 12.6984 -1 12.2214 -1L 12.2214 0ZM 6.79596 -0.193093L 6.6731 0.431193L 8.63547 0.817378L 8.75832 0.193093L 6.79596 -0.193093ZM 6.6748 0.422754L 6.2048 2.70704L 8.16377 3.1101L 8.63377 0.825818L 6.6748 0.422754ZM 6.82733 1.97445C 5.99628 2.29605 5.1853 2.77854 4.51862 3.29883L 5.75281 4.8726C 6.31756 4.42717 6.86943 4.09538 7.54124 3.84269L 6.82733 1.97445ZM 5.453 3.13739L 3.15586 2.36881L 2.52128 4.26547L 4.81843 5.03404L 5.453 3.13739ZM 3.13483 2.36204L 2.51769 2.17061L 1.92517 4.08082L 2.54231 4.27225L 3.13483 2.36204ZM 1.35651 2.6238L 1.03651 3.17522L 2.76634 4.17906L 3.08634 3.62763L 1.35651 2.6238ZM 1.04308 3.16408L -0.538351 5.80979L 1.17835 6.83592L 2.75978 4.19021L 1.04308 3.16408ZM -0.544914 5.82094L -0.864914 6.37237L 0.864914 7.3762L 1.18491 6.82478L -0.544914 5.82094ZM -0.658504 7.62686L -0.189933 8.03686L 1.12708 6.53171L 0.658504 6.12171L -0.658504 7.62686ZM -0.179645 8.04574L 1.5975 9.5586L 2.89393 8.03569L 1.11679 6.52283L -0.179645 8.04574ZM 1.25865 8.63679C 1.19846 9.00908 1.10401 9.48018 1.09857 10L 3.09857 10C 3.09314 9.6884 3.1644 9.37663 3.23277 8.9575L 1.25865 8.63679ZM 1.09857 10C 1.10401 10.5198 1.19846 10.9909 1.25865 11.3632L 3.23277 11.0425C 3.1644 10.6234 3.09314 10.3116 3.09857 10L 1.09857 10ZM 1.5975 10.4414L -0.179646 11.9543L 1.11679 13.4772L 2.89393 11.9643L 1.5975 10.4414ZM -0.189933 11.9631L -0.658504 12.3731L 0.658504 13.8783L 1.12708 13.4683L -0.189933 11.9631ZM -0.864914 13.6276L -0.544914 14.1791L 1.18491 13.1752L 0.864914 12.6238L -0.864914 13.6276ZM -0.538351 14.1902L 1.04308 16.8359L 2.75978 15.8098L 1.17835 13.1641L -0.538351 14.1902ZM 1.03595 16.8238L 1.35595 17.3767L 3.08691 16.3748L 2.76691 15.8219L 1.03595 16.8238ZM 2.5197 17.8302L 3.13685 17.6373L 2.5403 15.7284L 1.92315 15.9212L 2.5197 17.8302ZM 3.15586 17.6312L 5.453 16.8626L 4.81843 14.966L 2.52128 15.7345L 3.15586 17.6312ZM 4.51862 16.7012C 5.1853 17.2215 5.99628 17.704 6.82733 18.0256L 7.54124 16.1573C 6.86943 15.9046 6.31756 15.5728 5.75281 15.1274L 4.51862 16.7012ZM 6.2048 17.293L 6.6748 19.5772L 8.63377 19.1742L 8.16377 16.8899L 6.2048 17.293ZM 6.6731 19.5688L 6.79596 20.1931L 8.75832 19.8069L 8.63547 19.1826L 6.6731 19.5688ZM 7.77714 21L 8.42 21L 8.42 19L 7.77714 19L 7.77714 21ZM 8.42 21L 11.58 21L 11.58 19L 8.42 19L 8.42 21ZM 11.58 21L 12.2214 21L 12.2214 19L 11.58 19L 11.58 21ZM 13.2022 20.1953L 13.3265 19.571L 11.365 19.1805L 11.2407 19.8047L 13.2022 20.1953ZM 13.3253 19.5767L 13.7939 17.2924L 11.8347 16.8905L 11.3661 19.1748L 13.3253 19.5767ZM 13.1712 18.0256C 14.0023 17.704 14.8133 17.2215 15.48 16.7012L 14.2458 15.1274C 13.681 15.5728 13.1291 15.9046 12.4573 16.1573L 13.1712 18.0256ZM 14.5456 16.8626L 16.8427 17.6312L 17.4773 15.7345L 15.1801 14.966L 14.5456 16.8626ZM 16.8617 17.6373L 17.4789 17.8302L 18.0754 15.9212L 17.4583 15.7284L 16.8617 17.6373ZM 18.6417 17.3783L 18.9631 16.8255L 17.2341 15.8202L 16.9126 16.3731L 18.6417 17.3783ZM 18.9571 16.8356L 20.5371 14.1899L 18.82 13.1644L 17.24 15.8101L 18.9571 16.8356ZM 20.5425 14.1807L 20.8639 13.6293L 19.1361 12.6221L 18.8146 13.1735L 20.5425 14.1807ZM 20.6574 12.3721L 20.1874 11.9621L 18.8726 13.4693L 19.3426 13.8793L 20.6574 12.3721ZM 20.1782 11.9543L 18.4011 10.4414L 17.1046 11.9643L 18.8818 13.4772L 20.1782 11.9543ZM 18.7393 11.3667C 18.8015 10.9909 18.8947 10.5181 18.9 10L 16.9 10C 16.9053 10.3133 16.8356 10.6234 16.7664 11.039L 18.7393 11.3667ZM 18.9 10C 18.8947 9.48191 18.8015 9.00908 18.7393 8.63332L 16.7664 8.96096C 16.8356 9.37664 16.9053 9.68666 16.9 10L 18.9 10ZM 18.4011 9.5586L 20.1782 8.04574L 18.8818 6.52283L 17.1046 8.03569L 18.4011 9.5586ZM 20.1874 8.03786L 20.6574 7.62786L 19.3426 6.12072L 18.8726 6.53072L 20.1874 8.03786ZM 20.8639 6.37069L 20.5425 5.81926L 18.8146 6.82645L 19.1361 7.37788L 20.8639 6.37069ZM 20.5371 5.81014L 18.9571 3.16442L 17.24 4.18987L 18.82 6.83558L 20.5371 5.81014ZM 18.9625 3.17355L 18.6411 2.62212L 16.9132 3.62931L 17.2346 4.18073L 18.9625 3.17355ZM 17.4809 2.17061L 16.8637 2.36204L 17.4563 4.27225L 18.0734 4.08082L 17.4809 2.17061ZM 16.8427 2.36881L 14.5456 3.13739L 15.1801 5.03404L 17.4773 4.26547L 16.8427 2.36881ZM 15.48 3.29883C 14.8133 2.77854 14.0023 2.29605 13.1712 1.97445L 12.4573 3.84269C 13.1291 4.09538 13.681 4.42717 14.2458 4.8726L 15.48 3.29883ZM 13.7939 2.70763L 13.3253 0.423342L 11.3661 0.82523L 11.8347 3.10952L 13.7939 2.70763ZM 13.3265 0.429033L 13.2022 -0.195253L 11.2407 0.195253L 11.365 0.819538L 13.3265 0.429033ZM 12.2214 -1L 11.58 -1L 11.58 1L 12.2214 1L 12.2214 -1ZM 11.58 -1L 8.42 -1L 8.42 1L 11.58 1L 11.58 -1ZM 8.42 -1L 7.77714 -1L 7.77714 1L 8.42 1L 8.42 -1Z"/>
<path id="path1_stroke" d="M 4.71429 2.85714C 4.71429 3.882 3.882 4.71429 2.85714 4.71429L 2.85714 6.71429C 4.98657 6.71429 6.71429 4.98657 6.71429 2.85714L 4.71429 2.85714ZM 2.85714 4.71429C 1.83228 4.71429 1 3.882 1 2.85714L -1 2.85714C -1 4.98657 0.727715 6.71429 2.85714 6.71429L 2.85714 4.71429ZM 1 2.85714C 1 1.83228 1.83228 1 2.85714 1L 2.85714 -1C 0.727715 -1 -1 0.727715 -1 2.85714L 1 2.85714ZM 2.85714 1C 3.882 1 4.71429 1.83228 4.71429 2.85714L 6.71429 2.85714C 6.71429 0.727715 4.98657 -1 2.85714 -1L 2.85714 1Z"/>
</defs>
</svg>
