<svg width="29" height="22" viewBox="0 0 29 22" version="1.1" xmlns="http://www.w3.org/2000/svg" xmlns:xlink="http://www.w3.org/1999/xlink">
<title>Group</title>
<desc>Created using Figma</desc>
<g id="Canvas" transform="translate(-829 -1702)">
<g id="Group">
<g id="Group">
<g id="Stroke 103">
<use xlink:href="#path0_stroke" transform="translate(834.263 1703)" fill="#005F91" fill-opacity="0.54"/>
</g>
<g id="Stroke 104">
<use xlink:href="#path1_stroke" transform="translate(830 1715.85)" fill="#005F91" fill-opacity="0.54"/>
</g>
</g>
<g id="Group">
<g id="Stroke 103">
<use xlink:href="#path2_stroke" transform="translate(846.342 1705.86)" fill="#005F91" fill-opacity="0.54"/>
</g>
<g id="Stroke 104">
<use xlink:href="#path3_stroke" transform="translate(851.079 1716.88)" fill="#005F91" fill-opacity="0.54"/>
</g>
</g>
</g>
</g>
<defs>
<path id="path0_stroke" d="M 7.52632 4.28294C 7.52632 6.10063 6.0612 7.56587 4.26316 7.56587L 4.26316 9.56587C 7.17449 9.56587 9.52632 7.19646 9.52632 4.28294L 7.52632 4.28294ZM 4.26316 7.56587C 2.46512 7.56587 1 6.10063 1 4.28294L -1 4.28294C -1 7.19646 1.35183 9.56587 4.26316 9.56587L 4.26316 7.56587ZM 1 4.28294C 1 2.46524 2.46512 1 4.26316 1L 4.26316 -1C 1.35183 -1 -1 1.36941 -1 4.28294L 1 4.28294ZM 4.26316 1C 6.0612 1 7.52632 2.46524 7.52632 4.28294L 9.52632 4.28294C 9.52632 1.36941 7.17449 -1 4.26316 -1L 4.26316 1Z"/>
<path id="path1_stroke" d="M 17.0526 7.13823L 17.0526 8.13823C 17.6049 8.13823 18.0526 7.69051 18.0526 7.13823L 17.0526 7.13823ZM 0 7.13823L -1 7.13823C -1 7.69051 -0.552285 8.13823 2.22045e-16 8.13823L 0 7.13823ZM 17.0526 6.13823L 0 6.13823L 0 8.13823L 17.0526 8.13823L 17.0526 6.13823ZM 1 7.13823C 1 3.74428 3.73709 1 7.10526 1L 7.10526 -1C 2.62354 -1 -1 2.64871 -1 7.13823L 1 7.13823ZM 7.10526 1L 9.94737 1L 9.94737 -1L 7.10526 -1L 7.10526 1ZM 9.94737 1C 13.3155 1 16.0526 3.74428 16.0526 7.13823L 18.0526 7.13823C 18.0526 2.64871 14.4291 -1 9.94737 -1L 9.94737 1Z"/>
<path id="path2_stroke" d="M 6.10526 3.67348C 6.10526 5.18198 4.93132 6.34696 3.55263 6.34696L 3.55263 8.34696C 6.09842 8.34696 8.10526 6.22296 8.10526 3.67348L 6.10526 3.67348ZM 3.55263 6.34696C 2.17395 6.34696 1 5.18198 1 3.67348L -1 3.67348C -1 6.22296 1.00684 8.34696 3.55263 8.34696L 3.55263 6.34696ZM 1 3.67348C 1 2.16499 2.17395 1 3.55263 1L 3.55263 -1C 1.00684 -1 -1 1.124 -1 3.67348L 1 3.67348ZM 3.55263 1C 4.93132 1 6.10526 2.16499 6.10526 3.67348L 8.10526 3.67348C 8.10526 1.124 6.09842 -1 3.55263 -1L 3.55263 1Z"/>
<path id="path3_stroke" d="M 5.92105 6.12247L 5.92107 7.12247C 6.47335 7.12246 6.92105 6.67475 6.92105 6.12247L 5.92105 6.12247ZM 0.236944 5.12255C -0.315341 5.12256 -0.76305 5.57028 -0.763042 6.12256C -0.763035 6.67485 -0.315313 7.12256 0.236972 7.12255L 0.236944 5.12255ZM 0 -1C -0.552285 -1 -1 -0.552285 -1 0C -1 0.552285 -0.552285 1 0 1L 0 -1ZM 5.92104 5.12247L 0.236944 5.12255L 0.236972 7.12255L 5.92107 7.12247L 5.92104 5.12247ZM 0 1C 2.68711 1 4.92105 3.262 4.92105 6.12247L 6.92105 6.12247C 6.92105 2.22128 3.85447 -1 0 -1L 0 1Z"/>
</defs>
</svg>
