<svg width="22" height="20" viewBox="0 0 22 20" version="1.1" xmlns="http://www.w3.org/2000/svg" xmlns:xlink="http://www.w3.org/1999/xlink">
<title>Group</title>
<desc>Created using Figma</desc>
<g id="Canvas" transform="translate(-832 -1919)">
<g id="Group">
<g id="Stroke 271">
<use xlink:href="#path0_stroke" transform="translate(847.286 1937.54)" fill="#005F91" fill-opacity="0.54"/>
</g>
<g id="Stroke 272">
<use xlink:href="#path0_stroke" transform="translate(835.857 1937.54)" fill="#005F91" fill-opacity="0.54"/>
</g>
<g id="Fill 273">
<use xlink:href="#path1_fill" transform="translate(837.286 1930.23)" fill="#005F91"/>
</g>
<g id="Fill 274">
<use xlink:href="#path1_fill" transform="translate(845.857 1930.23)" fill="#005F91"/>
</g>
<g id="Stroke 275">
<use xlink:href="#path2_stroke" transform="translate(833 1925.85)" fill="#005F91" fill-opacity="0.54"/>
</g>
<g id="Stroke 276">
<use xlink:href="#path3_stroke" transform="translate(834.429 1920)" fill="#005F91" fill-opacity="0.54"/>
</g>
</g>
</g>
<defs>
<path id="path0_stroke" d="M 2.85714 1C 3.40943 1 3.85714 0.552285 3.85714 0C 3.85714 -0.552285 3.40943 -1 2.85714 -1L 2.85714 1ZM 0 -1C -0.552285 -1 -1 -0.552285 -1 0C -1 0.552285 -0.552285 1 0 1L 0 -1ZM 2.85714 -1L 0 -1L 0 1L 2.85714 1L 2.85714 -1Z"/>
<path id="path1_fill" fill-rule="evenodd" d="M 2.85714 1.46154C 2.85714 2.26831 2.21857 2.92307 1.42857 2.92307C 0.638572 2.92307 0 2.26831 0 1.46154C 0 0.654769 0.638572 0 1.42857 0C 2.21857 0 2.85714 0.654769 2.85714 1.46154Z"/>
<path id="path2_stroke" d="M 18.5714 9.23076L 1.42857 9.23076L 1.42857 11.2308L 18.5714 11.2308L 18.5714 9.23076ZM 1.42857 9.23076C 1.21288 9.23076 1 9.046 1 8.76922L -1 8.76922C -1 10.106 0.0642589 11.2308 1.42857 11.2308L 1.42857 9.23076ZM 1 8.76922L 1 1.46154L -1 1.46154L -1 8.76922L 1 8.76922ZM 1 1.46154C 1 1.18477 1.21288 1 1.42857 1L 1.42857 -1C 0.064259 -1 -1 0.124772 -1 1.46154L 1 1.46154ZM 1.42857 1L 18.5714 1L 18.5714 -1L 1.42857 -1L 1.42857 1ZM 18.5714 1C 18.7871 1 19 1.18477 19 1.46154L 21 1.46154C 21 0.124772 19.9357 -1 18.5714 -1L 18.5714 1ZM 19 1.46154L 19 8.76922L 21 8.76922L 21 1.46154L 19 1.46154ZM 19 8.76922C 19 9.046 18.7871 9.23076 18.5714 9.23076L 18.5714 11.2308C 19.9357 11.2308 21 10.106 21 8.76922L 19 8.76922Z"/>
<path id="path3_stroke" d="M -0.898393 5.40696C -1.14095 5.90313 -0.935361 6.50198 -0.439192 6.74454C 0.0569768 6.9871 0.655834 6.78151 0.898393 6.28534L -0.898393 5.40696ZM 2.46286 0.80823L 3.36125 1.24742L 3.36181 1.24627L 2.46286 0.80823ZM 14.68 0.80823L 13.781 1.24627L 13.7816 1.24742L 14.68 0.80823ZM 16.2445 6.28534C 16.487 6.78151 17.0859 6.9871 17.582 6.74454C 18.0782 6.50198 18.2838 5.90313 18.0413 5.40696L 16.2445 6.28534ZM 0.898393 6.28534L 3.36125 1.24742L 1.56446 0.369038L -0.898393 5.40696L 0.898393 6.28534ZM 3.36181 1.24627C 3.43952 1.08679 3.58967 1 3.74 1L 3.74 -1C 2.80748 -1 1.96905 -0.461255 1.5639 0.370187L 3.36181 1.24627ZM 3.74 1L 13.4029 1L 13.4029 -1L 3.74 -1L 3.74 1ZM 13.4029 1C 13.5532 1 13.7033 1.08679 13.781 1.24627L 15.579 0.370187C 15.1738 -0.461255 14.3354 -1 13.4029 -1L 13.4029 1ZM 13.7816 1.24742L 16.2445 6.28534L 18.0413 5.40696L 15.5784 0.369038L 13.7816 1.24742Z"/>
</defs>
</svg>
