<svg width="27" height="22" viewBox="0 0 27 22" version="1.1" xmlns="http://www.w3.org/2000/svg" xmlns:xlink="http://www.w3.org/1999/xlink">
<title>Group</title>
<desc>Created using Figma</desc>
<g id="Canvas" transform="translate(-827 -1270)">
<g id="Group">
<g id="Group">
<g id="Stroke 9">
<use xlink:href="#path0_stroke" transform="translate(843.5 1281)" fill="#005F91" fill-opacity="0.54"/>
</g>
<g id="Stroke 11">
<use xlink:href="#path1_stroke" transform="matrix(1 -5.44289e-16 1.10218e-16 1 846 1285)" fill="#005F91" fill-opacity="0.54"/>
</g>
<g id="Stroke 13">
<use xlink:href="#path2_stroke" transform="translate(843.5 1271)" fill="#005F91" fill-opacity="0.54"/>
</g>
<g id="Stroke 15">
<use xlink:href="#path3_stroke" transform="matrix(1 -2.44929e-16 2.44929e-16 1 845.857 1276.71)" fill="#005F91" fill-opacity="0.54"/>
</g>
</g>
<g id="Group">
<g id="Stroke 103">
<use xlink:href="#path4_stroke" transform="translate(832.286 1271)" fill="#005F91" fill-opacity="0.54"/>
</g>
<g id="Stroke 104">
<use xlink:href="#path5_stroke" transform="translate(828 1283.86)" fill="#005F91" fill-opacity="0.54"/>
</g>
</g>
</g>
</g>
<defs>
<path id="path0_stroke" d="M 0 -1C -0.552285 -1 -1 -0.552285 -1 0C -1 0.552285 -0.552285 1 0 1L 0 -1ZM 5.5 1C 6.05228 1 6.5 0.552285 6.5 0C 6.5 -0.552285 6.05228 -1 5.5 -1L 5.5 1ZM 0 1L 5.5 1L 5.5 -1L 0 -1L 0 1Z"/>
<path id="path1_stroke" d="M 0 -1C -0.552285 -1 -1 -0.552285 -1 0C -1 0.552285 -0.552285 1 0 1L 0 -1ZM 3 1C 3.55228 1 4 0.552285 4 0C 4 -0.552285 3.55228 -1 3 -1L 3 1ZM 0 1L 3 1L 3 -1L 0 -1L 0 1Z"/>
<path id="path2_stroke" d="M 5 18.987C 4.44772 18.987 4 19.4347 4 19.987C 4 20.5392 4.44772 20.987 5 20.987L 5 18.987ZM 0 -1C -0.552285 -1 -1 -0.552285 -1 0C -1 0.552285 -0.552285 1 0 1L 0 -1ZM 8.07132 18.987L 5 18.987L 5 20.987L 8.07132 20.987L 8.07132 18.987ZM 0 1L 8.07132 1L 8.07132 -1L 0 -1L 0 1ZM 8.07132 1C 8.309 1 8.4999 1.19183 8.4999 1.42764L 10.4999 1.42764C 10.4999 0.0873344 9.41364 -1 8.07132 -1L 8.07132 1ZM 8.4999 1.42764L 8.4999 18.5593L 10.4999 18.5593L 10.4999 1.42764L 8.4999 1.42764ZM 8.4999 18.5593C 8.4999 18.7951 8.309 18.987 8.07132 18.987L 8.07132 20.987C 9.41364 20.987 10.4999 19.8996 10.4999 18.5593L 8.4999 18.5593Z"/>
<path id="path3_stroke" d="M 0 -1C -0.552285 -1 -1 -0.552285 -1 0C -1 0.552285 -0.552285 1 0 1L 0 -1ZM 2.85714 1C 3.40943 1 3.85714 0.552285 3.85714 0C 3.85714 -0.552285 3.40943 -1 2.85714 -1L 2.85714 1ZM 0 1L 2.85714 1L 2.85714 -1L 0 -1L 0 1Z"/>
<path id="path4_stroke" d="M 7.57143 4.28571C 7.57143 6.10057 6.10057 7.57142 4.28571 7.57142L 4.28571 9.57142C 7.20514 9.57142 9.57143 7.20514 9.57143 4.28571L 7.57143 4.28571ZM 4.28571 7.57142C 2.47086 7.57142 1 6.10057 1 4.28571L -1 4.28571C -1 7.20514 1.36629 9.57142 4.28571 9.57142L 4.28571 7.57142ZM 1 4.28571C 1 2.47086 2.47086 1 4.28571 1L 4.28571 -1C 1.36629 -1 -1 1.36628 -1 4.28571L 1 4.28571ZM 4.28571 1C 6.10057 1 7.57143 2.47086 7.57143 4.28571L 9.57143 4.28571C 9.57143 1.36628 7.20514 -1 4.28571 -1L 4.28571 1Z"/>
<path id="path5_stroke" d="M 17.1429 7.14285L 17.1429 8.14285C 17.6951 8.14285 18.1429 7.69514 18.1429 7.14285L 17.1429 7.14285ZM 0 7.14285L -1 7.14285C -1 7.69514 -0.552285 8.14285 2.22045e-16 8.14285L 0 7.14285ZM 17.1429 6.14285L 0 6.14285L 0 8.14285L 17.1429 8.14285L 17.1429 6.14285ZM 1 7.14285C 1 3.75072 3.74956 1 7.14286 1L 7.14286 -1C 2.64473 -1 -1 2.64641 -1 7.14285L 1 7.14285ZM 7.14286 1L 10 1L 10 -1L 7.14286 -1L 7.14286 1ZM 10 1C 13.3933 1 16.1429 3.75072 16.1429 7.14285L 18.1429 7.14285C 18.1429 2.64641 14.4981 -1 10 -1L 10 1Z"/>
</defs>
</svg>
