<svg width="25" height="25" viewBox="0 0 25 25" version="1.1" xmlns="http://www.w3.org/2000/svg" xmlns:xlink="http://www.w3.org/1999/xlink">
<title>Group</title>
<desc>Created using Figma</desc>
<g id="Canvas" transform="translate(-1171 168)">
<g id="Group">
<g id="Stroke 46">
<use xlink:href="#path0_stroke" transform="matrix(6.11924e-17 -1 1 6.12723e-17 1180.21 -155.493)" fill="#FFFFFF"/>
</g>
<g id="Stroke 47">
<use xlink:href="#path1_stroke" transform="matrix(6.11924e-17 -1 1 6.12723e-17 1183.5 -152.204)" fill="#FFFFFF"/>
</g>
<g id="Stroke 48">
<use xlink:href="#path2_stroke" transform="matrix(6.11924e-17 -1 1 6.12723e-17 1183.5 -155.493)" fill="#FFFFFF"/>
</g>
<g id="Stroke 49">
<use xlink:href="#path3_stroke" transform="translate(1172 -167)" fill="#FFFFFF"/>
</g>
</g>
</g>
<defs>
<path id="path0_stroke" d="M 1 0C 1 -0.552285 0.552285 -1 0 -1C -0.552285 -1 -1 -0.552285 -1 0L 1 0ZM -1 6.56714C -1 7.11943 -0.552285 7.56714 0 7.56714C 0.552285 7.56714 1 7.11943 1 6.56714L -1 6.56714ZM -1 0L -1 6.56714L 1 6.56714L 1 0L -1 0Z"/>
<path id="path1_stroke" d="M 0.706646 -0.707568C 0.315867 -1.09784 -0.317298 -1.09742 -0.707568 -0.706646C -1.09784 -0.315867 -1.09742 0.317298 -0.706646 0.707568L 0.706646 -0.707568ZM 2.58121 3.99114C 2.97199 4.38141 3.60516 4.381 3.99543 3.99022C 4.38569 3.59944 4.38528 2.96627 3.9945 2.576L 2.58121 3.99114ZM -0.706646 0.707568L 2.58121 3.99114L 3.9945 2.576L 0.706646 -0.707568L -0.706646 0.707568Z"/>
<path id="path2_stroke" d="M -0.706646 2.576C -1.09742 2.96627 -1.09784 3.59944 -0.707568 3.99022C -0.317298 4.381 0.315867 4.38141 0.706646 3.99114L -0.706646 2.576ZM 3.9945 0.707568C 4.38528 0.317298 4.38569 -0.315867 3.99543 -0.706646C 3.60516 -1.09742 2.97199 -1.09784 2.58121 -0.707568L 3.9945 0.707568ZM 0.706646 3.99114L 3.9945 0.707568L 2.58121 -0.707568L -0.706646 2.576L 0.706646 3.99114Z"/>
<path id="path3_stroke" d="M 22 11.5C 22 17.299 17.299 22 11.5 22L 11.5 24C 18.4036 24 24 18.4036 24 11.5L 22 11.5ZM 11.5 22C 5.701 22 1 17.299 1 11.5L -1 11.5C -1 18.4036 4.59643 24 11.5 24L 11.5 22ZM 1 11.5C 1 5.701 5.701 1 11.5 1L 11.5 -1C 4.59643 -1 -1 4.59643 -1 11.5L 1 11.5ZM 11.5 1C 17.299 1 22 5.701 22 11.5L 24 11.5C 24 4.59643 18.4036 -1 11.5 -1L 11.5 1Z"/>
</defs>
</svg>
