<svg width="14" height="14" viewBox="0 0 14 14" version="1.1" xmlns="http://www.w3.org/2000/svg" xmlns:xlink="http://www.w3.org/1999/xlink">
<title>Breadcrumb home</title>
<desc>Created using Figma</desc>
<g id="Canvas" transform="translate(5935 2668)">
<g id="Breadcrumb home">
<g id="Ellipse 4">
<use xlink:href="#path0_fill" transform="translate(-5935 -2668)" fill="#46C35F"/>
</g>
<g id="Subtract">
<use xlink:href="#path1_fill" transform="translate(-5931.5 -2664.92)" fill="#FFFFFF"/>
</g>
</g>
</g>
<defs>
<path id="path0_fill" d="M 14 7C 14 10.866 10.866 14 7 14C 3.13401 14 0 10.866 0 7C 0 3.13401 3.13401 0 7 0C 10.866 0 14 3.13401 14 7Z"/>
<path id="path1_fill" d="M 3.18257 0.120445C 3.36053 -0.0401483 3.63947 -0.0401483 3.81743 0.120445L 6.85524 2.86179C 7.15768 3.13471 6.95465 3.61903 6.53781 3.61903L 6.49821 3.61903C 6.24346 3.61903 6.03694 3.81551 6.03694 4.05788L 6.03694 5.97782C 6.03694 6.22019 5.83043 6.41667 5.57568 6.41667L 4.88379 6.41667C 4.62904 6.41667 4.42252 6.22019 4.42252 5.97782L 4.42252 5.10013C 4.42252 4.85776 4.21601 4.66129 3.96126 4.66129L 3.03874 4.66129C 2.78399 4.66129 2.57748 4.85776 2.57748 5.10013L 2.57748 5.97782C 2.57748 6.22019 2.37096 6.41667 2.11621 6.41667L 1.42432 6.41667C 1.16957 6.41667 0.963057 6.22019 0.963057 5.97782L 0.963057 4.05788C 0.963057 3.81551 0.756543 3.61903 0.501795 3.61903L 0.462191 3.61903C 0.0453474 3.61903 -0.157677 3.13471 0.14476 2.86179L 3.18257 0.120445Z"/>
</defs>
</svg>
