<svg width="18" height="18" viewBox="0 0 18 18" version="1.1" xmlns="http://www.w3.org/2000/svg" xmlns:xlink="http://www.w3.org/1999/xlink">
<title>Group</title>
<desc>Created using Figma</desc>
<g id="Canvas" transform="translate(-2311 -4612)">
<g id="Group">
<g id="Stroke 193">
<use xlink:href="#path0_stroke" transform="translate(2318.38 4619.38)" fill="#005F91"/>
</g>
<g id="Stroke 194">
<use xlink:href="#path1_stroke" transform="translate(2318.38 4619.38)" fill="#005F91"/>
</g>
<g id="Stroke 195">
<use xlink:href="#path2_stroke" transform="translate(2312 4613)" fill="#005F91"/>
</g>
</g>
</g>
<defs>
<path id="path0_stroke" d="M 0.353553 -0.353553C 0.158291 -0.548816 -0.158291 -0.548816 -0.353553 -0.353553C -0.548816 -0.158291 -0.548816 0.158291 -0.353553 0.353553L 0.353553 -0.353553ZM 2.87845 3.58555C 3.07371 3.78082 3.39029 3.78082 3.58555 3.58555C 3.78082 3.39029 3.78082 3.07371 3.58555 2.87845L 2.87845 3.58555ZM -0.353553 0.353553L 2.87845 3.58555L 3.58555 2.87845L 0.353553 -0.353553L -0.353553 0.353553Z"/>
<path id="path1_stroke" d="M 3.58555 0.353553C 3.78082 0.158291 3.78082 -0.158291 3.58555 -0.353553C 3.39029 -0.548816 3.07371 -0.548816 2.87845 -0.353553L 3.58555 0.353553ZM -0.353553 2.87845C -0.548816 3.07371 -0.548816 3.39029 -0.353553 3.58555C -0.158291 3.78082 0.158291 3.78082 0.353553 3.58555L -0.353553 2.87845ZM 2.87845 -0.353553L -0.353553 2.87845L 0.353553 3.58555L 3.58555 0.353553L 2.87845 -0.353553Z"/>
<path id="path2_stroke" d="M 14.8571 15.5L 1.14286 15.5L 1.14286 16.5L 14.8571 16.5L 14.8571 15.5ZM 1.14286 15.5C 0.788142 15.5 0.5 15.2119 0.5 14.8571L -0.5 14.8571C -0.5 15.7641 0.235858 16.5 1.14286 16.5L 1.14286 15.5ZM 0.5 14.8571L 0.5 1.14286L -0.5 1.14286L -0.5 14.8571L 0.5 14.8571ZM 0.5 1.14286C 0.5 0.788142 0.788142 0.5 1.14286 0.5L 1.14286 -0.5C 0.235858 -0.5 -0.5 0.235858 -0.5 1.14286L 0.5 1.14286ZM 1.14286 0.5L 14.8571 0.5L 14.8571 -0.5L 1.14286 -0.5L 1.14286 0.5ZM 14.8571 0.5C 15.2127 0.5 15.5 0.787817 15.5 1.14286L 16.5 1.14286C 16.5 0.236183 15.7656 -0.5 14.8571 -0.5L 14.8571 0.5ZM 15.5 1.14286L 15.5 14.8571L 16.5 14.8571L 16.5 1.14286L 15.5 1.14286ZM 15.5 14.8571C 15.5 15.2122 15.2127 15.5 14.8571 15.5L 14.8571 16.5C 15.7656 16.5 16.5 15.7638 16.5 14.8571L 15.5 14.8571Z"/>
</defs>
</svg>
