<svg width="22" height="22" viewBox="0 0 22 22" version="1.1" xmlns="http://www.w3.org/2000/svg" xmlns:xlink="http://www.w3.org/1999/xlink">
<title>Group</title>
<desc>Created using Figma</desc>
<g id="Canvas" transform="translate(-832 -1342)">
<g id="Group">
<g id="Stroke 277">
<use xlink:href="#path0_stroke" transform="translate(833 1343)" fill="#005F91" fill-opacity="0.54"/>
</g>
<g id="Stroke 278">
<use xlink:href="#path1_stroke" transform="translate(843 1343)" fill="#005F91" fill-opacity="0.54"/>
</g>
</g>
</g>
<defs>
<path id="path0_stroke" d="M 10 20L 9.72528 20.9615C 10.027 21.0477 10.3517 20.9873 10.6022 20.7983C 10.8527 20.6094 11 20.3138 11 20L 10 20ZM 0 17.1429L -1 17.1429C -1 17.5893 -0.704023 17.9817 -0.274721 18.1044L 0 17.1429ZM 0 0L 0.274721 -0.961524C -0.0269961 -1.04773 -0.351681 -0.987312 -0.602196 -0.798349C -0.85271 -0.609385 -1 -0.313791 -1 0L 0 0ZM 10 2.85714L 11 2.85714C 11 2.41066 10.704 2.01828 10.2747 1.89562L 10 2.85714ZM 10.2747 19.0385L 0.274721 16.1813L -0.274721 18.1044L 9.72528 20.9615L 10.2747 19.0385ZM 1 17.1429L 1 0L -1 0L -1 17.1429L 1 17.1429ZM -0.274721 0.961524L 9.72528 3.81867L 10.2747 1.89562L 0.274721 -0.961524L -0.274721 0.961524ZM 9 2.85714L 9 20L 11 20L 11 2.85714L 9 2.85714Z"/>
<path id="path1_stroke" d="M 10 17.1429L 10.2747 18.1044C 10.704 17.9817 11 17.5893 11 17.1429L 10 17.1429ZM 0 20L -1 20C -1 20.3138 -0.85271 20.6094 -0.602196 20.7983C -0.351681 20.9873 -0.0269961 21.0477 0.274721 20.9615L 0 20ZM 0 2.85714L -0.274721 1.89562C -0.704023 2.01828 -1 2.41066 -1 2.85714L 0 2.85714ZM 10 0L 11 0C 11 -0.313791 10.8527 -0.609385 10.6022 -0.798349C 10.3517 -0.987312 10.027 -1.04773 9.72528 -0.961524L 10 0ZM 9.72528 16.1813L -0.274721 19.0385L 0.274721 20.9615L 10.2747 18.1044L 9.72528 16.1813ZM 1 20L 1 2.85714L -1 2.85714L -1 20L 1 20ZM 0.274721 3.81867L 10.2747 0.961524L 9.72528 -0.961524L -0.274721 1.89562L 0.274721 3.81867ZM 9 0L 9 17.1429L 11 17.1429L 11 0L 9 0Z"/>
</defs>
</svg>
