<svg width="18" height="18" viewBox="0 0 18 18" version="1.1" xmlns="http://www.w3.org/2000/svg" xmlns:xlink="http://www.w3.org/1999/xlink">
<title>Group</title>
<desc>Created using Figma</desc>
<g id="Canvas" transform="translate(-2201 -4613)">
<g id="Group">
<g id="Stroke 446">
<use xlink:href="#path0_stroke" transform="translate(2202 4614)" fill="#005F91"/>
</g>
<g id="Stroke 447">
<use xlink:href="#path1_stroke" transform="translate(2208.86 4614)" fill="#005F91"/>
</g>
</g>
</g>
<defs>
<path id="path0_stroke" d="M 16.5 9.14286C 16.5 8.86671 16.2761 8.64286 16 8.64286C 15.7239 8.64286 15.5 8.86671 15.5 9.14286L 16.5 9.14286ZM 5.71429 0.5C 5.99043 0.5 6.21429 0.276142 6.21429 0C 6.21429 -0.276142 5.99043 -0.5 5.71429 -0.5L 5.71429 0.5ZM 15.5 9.14286L 15.5 14.8571L 16.5 14.8571L 16.5 9.14286L 15.5 9.14286ZM 15.5 14.8571C 15.5 15.2127 15.2122 15.5 14.8571 15.5L 14.8571 16.5C 15.7638 16.5 16.5 15.7656 16.5 14.8571L 15.5 14.8571ZM 14.8571 15.5L 1.14286 15.5L 1.14286 16.5L 14.8571 16.5L 14.8571 15.5ZM 1.14286 15.5C 0.787816 15.5 0.5 15.2127 0.5 14.8571L -0.5 14.8571C -0.5 15.7656 0.236184 16.5 1.14286 16.5L 1.14286 15.5ZM 0.5 14.8571L 0.5 1.14286L -0.5 1.14286L -0.5 14.8571L 0.5 14.8571ZM 0.5 1.14286C 0.5 0.787325 0.787817 0.5 1.14286 0.5L 1.14286 -0.5C 0.236183 -0.5 -0.5 0.234389 -0.5 1.14286L 0.5 1.14286ZM 1.14286 0.5L 5.71429 0.5L 5.71429 -0.5L 1.14286 -0.5L 1.14286 0.5Z"/>
<path id="path1_stroke" d="M 6.85714 0L 7.2107 -0.353553C 7.01543 -0.548816 6.69885 -0.548816 6.50359 -0.353553L 6.85714 0ZM 9.14286 2.28571L 9.49641 2.63927C 9.69167 2.44401 9.69167 2.12742 9.49641 1.93216L 9.14286 2.28571ZM 2.28571 9.14286L 2.28571 9.64286C 2.41832 9.64286 2.5455 9.59018 2.63927 9.49641L 2.28571 9.14286ZM 0 9.14286L -0.5 9.14286C -0.5 9.419 -0.276142 9.64286 1.11022e-16 9.64286L 0 9.14286ZM 0 6.85714L -0.353553 6.50359C -0.447322 6.59736 -0.5 6.72453 -0.5 6.85714L 0 6.85714ZM 6.50359 0.353553L 8.7893 2.63927L 9.49641 1.93216L 7.2107 -0.353553L 6.50359 0.353553ZM 8.7893 1.93216L 1.93216 8.7893L 2.63927 9.49641L 9.49641 2.63927L 8.7893 1.93216ZM 2.28571 8.64286L 0 8.64286L 0 9.64286L 2.28571 9.64286L 2.28571 8.64286ZM 0.5 9.14286L 0.5 6.85714L -0.5 6.85714L -0.5 9.14286L 0.5 9.14286ZM 0.353553 7.2107L 7.2107 0.353553L 6.50359 -0.353553L -0.353553 6.50359L 0.353553 7.2107Z"/>
</defs>
</svg>
