<svg width="20" height="20" viewBox="0 0 26 26" version="1.1" xmlns="http://www.w3.org/2000/svg" xmlns:xlink="http://www.w3.org/1999/xlink">
<title>Group</title>
<desc>Created using Figma</desc>
<g id="Canvas" transform="translate(13639 4613)">
<g id="Group">
<g id="Group">
<g id="Stroke 158">
<use xlink:href="#path0_stroke" transform="translate(-13638 -4612)" fill="#005F91"/>
</g>
<g id="Stroke 159">
<use xlink:href="#path1_stroke" transform="translate(-13622.6 -4612)" fill="#005F91"/>
</g>
<g id="Stroke 160">
<use xlink:href="#path0_stroke" transform="translate(-13638 -4596.57)" fill="#005F91"/>
</g>
<g id="Stroke 161">
<use xlink:href="#path1_stroke" transform="translate(-13622.6 -4596.57)" fill="#005F91"/>
</g>
</g>
</g>
</g>
<defs>
<path id="path0_stroke" d="M 6.85712 7.57135L 1.71428 7.57135L 1.71428 9.57135L 6.85712 9.57135L 6.85712 7.57135ZM 1.71428 7.57135C 1.32028 7.57135 1 7.25107 1 6.85708L -1 6.85708C -1 8.35565 0.215718 9.57135 1.71428 9.57135L 1.71428 7.57135ZM 1 6.85708L 1 1.71427L -1 1.71427L -1 6.85708L 1 6.85708ZM 1 1.71427C 1 1.32028 1.32028 1 1.71428 1L 1.71428 -1C 0.215717 -1 -1 0.215704 -1 1.71427L 1 1.71427ZM 1.71428 1L 6.85712 1L 6.85712 -1L 1.71428 -1L 1.71428 1ZM 6.85712 1C 7.25112 1 7.5714 1.32028 7.5714 1.71427L 9.5714 1.71427C 9.5714 0.215704 8.35568 -1 6.85712 -1L 6.85712 1ZM 7.5714 1.71427L 7.5714 6.85708L 9.5714 6.85708L 9.5714 1.71427L 7.5714 1.71427ZM 7.5714 6.85708C 7.5714 7.25107 7.25112 7.57135 6.85712 7.57135L 6.85712 9.57135C 8.35568 9.57135 9.5714 8.35565 9.5714 6.85708L 7.5714 6.85708Z"/>
<path id="path1_stroke" d="M 6.85712 7.57135L 1.71428 7.57135L 1.71428 9.57135L 6.85712 9.57135L 6.85712 7.57135ZM 1.71428 7.57135C 1.31921 7.57135 1 7.25172 1 6.85708L -1 6.85708C -1 8.355 0.213352 9.57135 1.71428 9.57135L 1.71428 7.57135ZM 1 6.85708L 1 1.71427L -1 1.71427L -1 6.85708L 1 6.85708ZM 1 1.71427C 1 1.31963 1.31921 1 1.71428 1L 1.71428 -1C 0.213352 -1 -1 0.216355 -1 1.71427L 1 1.71427ZM 1.71428 1L 6.85712 1L 6.85712 -1L 1.71428 -1L 1.71428 1ZM 6.85712 1C 7.25218 1 7.5714 1.31963 7.5714 1.71427L 9.5714 1.71427C 9.5714 0.216355 8.35805 -1 6.85712 -1L 6.85712 1ZM 7.5714 1.71427L 7.5714 6.85708L 9.5714 6.85708L 9.5714 1.71427L 7.5714 1.71427ZM 7.5714 6.85708C 7.5714 7.25172 7.25218 7.57135 6.85712 7.57135L 6.85712 9.57135C 8.35805 9.57135 9.5714 8.355 9.5714 6.85708L 7.5714 6.85708Z"/>
</defs>
</svg>
