<svg width="22" height="26" viewBox="0 0 22 26" version="1.1" xmlns="http://www.w3.org/2000/svg" xmlns:xlink="http://www.w3.org/1999/xlink">
<title>Group</title>
<desc>Created using Figma</desc>
<g id="Canvas" transform="translate(6641 4132)">
<g id="Group">
<g id="Stroke 120">
<use xlink:href="#path0_stroke" transform="translate(-6635 -4114.33)" fill="#ADB7BE"/>
</g>
<g id="Stroke 121">
<use xlink:href="#path1_stroke" transform="translate(-6640 -4126)" fill="#ADB7BE"/>
</g>
<g id="Stroke 122">
<use xlink:href="#path0_stroke" transform="translate(-6635 -4119.33)" fill="#ADB7BE"/>
</g>
<g id="Stroke 123">
<use xlink:href="#path2_stroke" transform="translate(-6635 -4131)" fill="#ADB7BE"/>
</g>
</g>
</g>
<defs>
<path id="path0_stroke" d="M 0 -1C -0.552285 -1 -1 -0.552285 -1 0C -1 0.552285 -0.552285 1 0 1L 0 -1ZM 5 1C 5.55228 1 6 0.552285 6 0C 6 -0.552285 5.55228 -1 5 -1L 5 1ZM 0 1L 5 1L 5 -1L 0 -1L 0 1Z"/>
<path id="path1_stroke" d="M 13.3333 17.3325L 1.66667 17.3325L 1.66667 19.3325L 13.3333 19.3325L 13.3333 17.3325ZM 1.66667 17.3325C 1.29789 17.3325 1 17.0342 1 16.6659L -1 16.6659C -1 18.1376 0.192105 19.3325 1.66667 19.3325L 1.66667 17.3325ZM 1 16.6659L 1 1.66659L -1 1.66659L -1 16.6659L 1 16.6659ZM 1 1.66659C 1 1.29831 1.29789 1 1.66667 1L 1.66667 -1C 0.192106 -1 -1 0.194958 -1 1.66659L 1 1.66659ZM 1.66667 1L 13.3333 1L 13.3333 -1L 1.66667 -1L 1.66667 1ZM 13.3333 1C 13.7021 1 14 1.29831 14 1.66659L 16 1.66659C 16 0.194958 14.8079 -1 13.3333 -1L 13.3333 1ZM 14 1.66659L 14 16.6659L 16 16.6659L 16 1.66659L 14 1.66659ZM 14 16.6659C 14 17.0342 13.7021 17.3325 13.3333 17.3325L 13.3333 19.3325C 14.8079 19.3325 16 18.1376 16 16.6659L 14 16.6659Z"/>
<path id="path2_stroke" d="M 0 -1C -0.552285 -1 -1 -0.552285 -1 0C -1 0.552285 -0.552285 1 0 1L 0 -1ZM 14 18.3325C 14 18.8848 14.4477 19.3325 15 19.3325C 15.5523 19.3325 16 18.8848 16 18.3325L 14 18.3325ZM 0 1L 13.3333 1L 13.3333 -1L 0 -1L 0 1ZM 13.3333 1C 13.7021 1 14 1.29831 14 1.66659L 16 1.66659C 16 0.194958 14.8079 -1 13.3333 -1L 13.3333 1ZM 14 1.66659L 14 18.3325L 16 18.3325L 16 1.66659L 14 1.66659Z"/>
</defs>
</svg>
