<svg width="25" height="20" viewBox="0 0 25 20" version="1.1" xmlns="http://www.w3.org/2000/svg" xmlns:xlink="http://www.w3.org/1999/xlink">
<title>Canvas.svg</title>
<desc>Created using Figma</desc>
<g id="Canvas" transform="translate(4732 2854)">
<g id="Capa 1 2">
<g id="Group">
<g id="email">
<g id="Vector">
<use xlink:href="#path0_fill" transform="translate(-4731.1 -2850.89)" fill="#ADB7BE"/>
</g>
</g>
</g>
</g>
<g id="Ellipse 2">
<use xlink:href="#path1_fill" transform="translate(-4716.1 -2852.89)" fill="#46C35F"/>
<use xlink:href="#path2_stroke" transform="translate(-4716.1 -2852.89)" fill="#FFFFFF"/>
</g>
</g>
<defs>
<path id="path0_fill" d="M 17.1 0L 1.9 0C 0.855 0 0 0.9 0 2L 0 14C 0 15.1 0.855 16 1.9 16L 17.1 16C 18.145 16 19 15.1 19 14L 19 2C 19 0.9 18.145 0 17.1 0ZM 17.1 4L 9.5 9L 1.9 4L 1.9 2L 9.5 7L 17.1 2L 17.1 4Z"/>
<path id="path1_fill" d="M 8 4C 8 6.20914 6.20914 8 4 8C 1.79086 8 0 6.20914 0 4C 0 1.79086 1.79086 0 4 0C 6.20914 0 8 1.79086 8 4Z"/>
<path id="path2_stroke" d="M 7 4C 7 5.65685 5.65685 7 4 7L 4 9C 6.76142 9 9 6.76142 9 4L 7 4ZM 4 7C 2.34315 7 1 5.65685 1 4L -1 4C -1 6.76142 1.23858 9 4 9L 4 7ZM 1 4C 1 2.34315 2.34315 1 4 1L 4 -1C 1.23858 -1 -1 1.23858 -1 4L 1 4ZM 4 1C 5.65685 1 7 2.34315 7 4L 9 4C 9 1.23858 6.76142 -1 4 -1L 4 1Z"/>
</defs>
</svg>
