<svg width="26" height="26" viewBox="0 0 26 26" version="1.1" xmlns="http://www.w3.org/2000/svg" xmlns:xlink="http://www.w3.org/1999/xlink">
<title>Group</title>
<desc>Created using Figma</desc>
<g id="Canvas" transform="translate(-2385 -1042)">
<g id="Group">
<g id="Stroke 247">
<use xlink:href="#path0_stroke" transform="translate(2386 1043)" fill="#005F91"/>
</g>
<g id="Stroke 248">
<use xlink:href="#path1_stroke" transform="translate(2394.57 1051.57)" fill="#005F91"/>
</g>
</g>
</g>
<defs>
<path id="path0_stroke" d="M 9.33257 0L 9.33257 -1C 8.85473 -1 8.44366 -0.66194 8.35139 -0.193093L 9.33257 0ZM 9.18514 0.749143L 10.1647 0.950682L 10.1663 0.942236L 9.18514 0.749143ZM 8.62114 3.49029L 8.9781 4.42441C 9.29708 4.30252 9.53181 4.02629 9.60062 3.69182L 8.62114 3.49029ZM 6.16286 4.90286L 5.84557 5.85119C 6.16437 5.95785 6.51543 5.89719 6.77995 5.68975L 6.16286 4.90286ZM 3.40629 3.98057L 3.72357 3.03224C 3.71659 3.02991 3.70958 3.02765 3.70255 3.02546L 3.40629 3.98057ZM 2.66571 3.75086L 2.96197 2.79575C 2.5166 2.6576 2.03485 2.84562 1.8008 3.24894L 2.66571 3.75086ZM 2.28171 4.41257L 3.14014 4.92568L 3.14663 4.91449L 2.28171 4.41257ZM 0.384 7.58743L -0.474422 7.07432L -0.480914 7.08551L 0.384 7.58743ZM 0 8.24914L -0.864914 7.74722C -1.105 8.16094 -1.01848 8.68674 -0.658504 9.00172L 0 8.24914ZM 0.562286 8.74114L -0.0962795 9.49379L -0.085931 9.5026L 0.562286 8.74114ZM 2.69486 10.5566L 3.68192 10.7169C 3.73803 10.3715 3.60952 10.0219 3.34307 9.79512L 2.69486 10.5566ZM 2.69486 13.4434L 3.34307 14.2049C 3.60952 13.9781 3.73803 13.6285 3.68192 13.2831L 2.69486 13.4434ZM 0.562286 15.2589L -0.0859911 14.4973L -0.0962187 14.5063L 0.562286 15.2589ZM 0 15.7509L -0.658504 14.9983C -1.01848 15.3133 -1.105 15.8391 -0.864914 16.2528L 0 15.7509ZM 0.384 16.4126L -0.480987 16.9145L -0.474351 16.9256L 0.384 16.4126ZM 2.28171 19.5874L 3.14728 19.0864L 3.14006 19.0744L 2.28171 19.5874ZM 2.66571 20.2509L 1.80024 20.7518C 2.03444 21.1564 2.51775 21.3448 2.96399 21.2053L 2.66571 20.2509ZM 3.40629 20.0194L 3.70456 20.9739C 3.71092 20.9719 3.71726 20.9699 3.72357 20.9678L 3.40629 20.0194ZM 6.16286 19.0971L 6.77995 18.3103C 6.51543 18.1028 6.16437 18.0422 5.84557 18.1488L 6.16286 19.0971ZM 8.62114 20.5097L 9.60062 20.3082C 9.53181 19.9737 9.29708 19.6975 8.9781 19.5756L 8.62114 20.5097ZM 9.18514 23.2509L 10.1664 23.0578L 10.1646 23.0493L 9.18514 23.2509ZM 9.33257 24L 8.35139 24.1931C 8.44366 24.6619 8.85473 25 9.33257 25L 9.33257 24ZM 14.6657 24L 14.6657 25C 15.1427 25 15.5533 24.6631 15.6465 24.1953L 14.6657 24ZM 14.8149 23.2509L 13.8352 23.0499L 13.8341 23.0556L 14.8149 23.2509ZM 15.3771 20.5097L 15.0202 19.5756C 14.701 19.6976 14.4662 19.9741 14.3975 20.3088L 15.3771 20.5097ZM 17.8354 19.0971L 18.1527 18.1488C 17.8339 18.0422 17.4829 18.1028 17.2183 18.3103L 17.8354 19.0971ZM 20.592 20.0194L 20.2747 20.9678C 20.281 20.9699 20.2874 20.9719 20.2937 20.9739L 20.592 20.0194ZM 21.3326 20.2509L 21.0343 21.2053C 21.4798 21.3446 21.9625 21.157 22.1971 20.7535L 21.3326 20.2509ZM 21.7183 19.5874L 20.8597 19.0747L 20.8538 19.0848L 21.7183 19.5874ZM 23.6143 16.4126L 24.4729 16.9253L 24.4782 16.9162L 23.6143 16.4126ZM 24 15.7509L 24.8639 16.2545C 25.1055 15.8401 25.0188 15.3126 24.6574 14.9973L 24 15.7509ZM 23.436 15.2589L 24.0934 14.5052L 24.0842 14.4974L 23.436 15.2589ZM 21.3034 13.4434L 20.3169 13.2796C 20.2594 13.626 20.3878 13.9772 20.6552 14.2049L 21.3034 13.4434ZM 21.3034 10.5566L 20.6552 9.79512C 20.3878 10.0228 20.2594 10.374 20.3169 10.7204L 21.3034 10.5566ZM 23.436 8.74114L 24.0843 9.50265L 24.0934 9.49471L 23.436 8.74114ZM 24 8.24914L 24.6574 9.00271C 25.0188 8.68742 25.1055 8.15992 24.8639 7.74555L 24 8.24914ZM 23.6143 7.58743L 24.4783 7.08381L 24.4728 7.07471L 23.6143 7.58743ZM 21.7183 4.41257L 20.8543 4.91619L 20.8597 4.92529L 21.7183 4.41257ZM 21.3326 3.75086L 22.1965 3.24727C 21.962 2.84502 21.481 2.65781 21.0363 2.79575L 21.3326 3.75086ZM 20.592 3.98057L 20.2957 3.02546C 20.2887 3.02765 20.2817 3.02991 20.2747 3.03224L 20.592 3.98057ZM 17.8354 4.90286L 17.2183 5.68975C 17.4829 5.89719 17.8339 5.95785 18.1527 5.85119L 17.8354 4.90286ZM 15.3771 3.49029L 14.3975 3.69123C 14.4662 4.02595 14.701 4.30244 15.0202 4.42441L 15.3771 3.49029ZM 14.8149 0.749143L 13.8341 0.944399L 13.8353 0.950087L 14.8149 0.749143ZM 14.6657 0L 15.6465 -0.195253C 15.5533 -0.663084 15.1427 -1 14.6657 -1L 14.6657 0ZM 8.35139 -0.193093L 8.20396 0.55605L 10.1663 0.942236L 10.3138 0.193093L 8.35139 -0.193093ZM 8.20566 0.547611L 7.64166 3.28875L 9.60062 3.69182L 10.1646 0.950675L 8.20566 0.547611ZM 8.26419 2.55616C 7.28285 2.93519 6.33558 3.49911 5.54576 4.11597L 6.77995 5.68975C 7.46785 5.14774 8.156 4.73453 8.9781 4.42441L 8.26419 2.55616ZM 6.48015 3.95453L 3.72357 3.03224L 3.089 4.9289L 5.84557 5.85119L 6.48015 3.95453ZM 3.70255 3.02546L 2.96197 2.79575L 2.36945 4.70596L 3.11003 4.93568L 3.70255 3.02546ZM 1.8008 3.24894L 1.4168 3.91065L 3.14663 4.91449L 3.53063 4.25278L 1.8008 3.24894ZM 1.42336 3.89951L -0.474351 7.07437L 1.24235 8.10049L 3.14006 4.92564L 1.42336 3.89951ZM -0.480914 7.08551L -0.864914 7.74722L 0.864914 8.75106L 1.24891 8.08935L -0.480914 7.08551ZM -0.658504 9.00172L -0.0962187 9.49372L 1.22079 7.98857L 0.658504 7.49657L -0.658504 9.00172ZM -0.085931 9.5026L 2.04664 11.318L 3.34307 9.79512L 1.2105 7.97969L -0.085931 9.5026ZM 1.7078 10.3962C 1.63475 10.8477 1.52372 11.397 1.51829 12L 3.51829 12C 3.51285 11.6053 3.60068 11.2152 3.68192 10.7169L 1.7078 10.3962ZM 1.51829 12C 1.52372 12.603 1.63475 13.1523 1.7078 13.6038L 3.68192 13.2831C 3.60068 12.7848 3.51285 12.3947 3.51829 12L 1.51829 12ZM 2.04664 12.682L -0.0859312 14.4974L 1.2105 16.0203L 3.34307 14.2049L 2.04664 12.682ZM -0.0962187 14.5063L -0.658504 14.9983L 0.658504 16.5034L 1.22079 16.0114L -0.0962187 14.5063ZM -0.864914 16.2528L -0.480914 16.9145L 1.24891 15.9107L 0.864914 15.2489L -0.864914 16.2528ZM -0.474351 16.9256L 1.42336 20.1005L 3.14006 19.0744L 1.24235 15.8995L -0.474351 16.9256ZM 1.41624 20.0884L 1.80024 20.7518L 3.53119 19.7499L 3.14719 19.0865L 1.41624 20.0884ZM 2.96399 21.2053L 3.70456 20.9739L 3.10801 19.0649L 2.36744 19.2964L 2.96399 21.2053ZM 3.72357 20.9678L 6.48015 20.0455L 5.84557 18.1488L 3.089 19.0711L 3.72357 20.9678ZM 5.54576 19.884C 6.33558 20.5009 7.28285 21.0648 8.26419 21.4438L 8.9781 19.5756C 8.156 19.2655 7.46785 18.8523 6.77995 18.3103L 5.54576 19.884ZM 7.64166 20.7112L 8.20566 23.4524L 10.1646 23.0493L 9.60062 20.3082L 7.64166 20.7112ZM 8.20396 23.444L 8.35139 24.1931L 10.3138 23.8069L 10.1663 23.0578L 8.20396 23.444ZM 9.33257 25L 10.104 25L 10.104 23L 9.33257 23L 9.33257 25ZM 10.104 25L 13.896 25L 13.896 23L 10.104 23L 10.104 25ZM 13.896 25L 14.6657 25L 14.6657 23L 13.896 23L 13.896 25ZM 15.6465 24.1953L 15.7956 23.4461L 13.8341 23.0556L 13.685 23.8047L 15.6465 24.1953ZM 15.7945 23.4518L 16.3567 20.7107L 14.3975 20.3088L 13.8353 23.0499L 15.7945 23.4518ZM 15.7341 21.4438C 16.7154 21.0648 17.6627 20.5009 18.4525 19.884L 17.2183 18.3103C 16.5304 18.8523 15.8423 19.2655 15.0202 19.5756L 15.7341 21.4438ZM 17.5181 20.0455L 20.2747 20.9678L 20.9093 19.0711L 18.1527 18.1488L 17.5181 20.0455ZM 20.2937 20.9739L 21.0343 21.2053L 21.6308 19.2964L 20.8903 19.0649L 20.2937 20.9739ZM 22.1971 20.7535L 22.5828 20.09L 20.8538 19.0848L 20.4681 19.7482L 22.1971 20.7535ZM 22.5768 20.1002L 24.4728 16.9253L 22.7557 15.8998L 20.8597 19.0747L 22.5768 20.1002ZM 24.4782 16.9162L 24.8639 16.2545L 23.1361 15.2473L 22.7503 15.909L 24.4782 16.9162ZM 24.6574 14.9973L 24.0934 14.5053L 22.7786 16.0124L 23.3426 16.5044L 24.6574 14.9973ZM 24.0842 14.4974L 21.9516 12.682L 20.6552 14.2049L 22.7878 16.0203L 24.0842 14.4974ZM 22.2899 13.6073C 22.3653 13.1524 22.4747 12.6012 22.48 12L 20.48 12C 20.4853 12.3965 20.3993 12.7848 20.3169 13.2796L 22.2899 13.6073ZM 22.48 12C 22.4747 11.3988 22.3653 10.8476 22.2899 10.3927L 20.3169 10.7204C 20.3993 11.2152 20.4853 11.6035 20.48 12L 22.48 12ZM 21.9516 11.318L 24.0842 9.5026L 22.7878 7.97969L 20.6552 9.79512L 21.9516 11.318ZM 24.0934 9.49471L 24.6574 9.00271L 23.3426 7.49557L 22.7786 7.98757L 24.0934 9.49471ZM 24.8639 7.74555L 24.4782 7.08384L 22.7503 8.09102L 23.1361 8.75274L 24.8639 7.74555ZM 24.4728 7.07471L 22.5768 3.89985L 20.8597 4.92529L 22.7557 8.10015L 24.4728 7.07471ZM 22.5822 3.90898L 22.1965 3.24727L 20.4686 4.25445L 20.8543 4.91616L 22.5822 3.90898ZM 21.0363 2.79575L 20.2957 3.02546L 20.8883 4.93568L 21.6288 4.70596L 21.0363 2.79575ZM 20.2747 3.03224L 17.5181 3.95453L 18.1527 5.85119L 20.9093 4.9289L 20.2747 3.03224ZM 18.4525 4.11597C 17.6627 3.49911 16.7154 2.93519 15.7341 2.55616L 15.0202 4.42441C 15.8423 4.73453 16.5304 5.14774 17.2183 5.68975L 18.4525 4.11597ZM 16.3567 3.28934L 15.7945 0.548199L 13.8353 0.950087L 14.3975 3.69123L 16.3567 3.28934ZM 15.7956 0.55389L 15.6465 -0.195253L 13.685 0.195253L 13.8341 0.944395L 15.7956 0.55389ZM 14.6657 -1L 13.896 -1L 13.896 1L 14.6657 1L 14.6657 -1ZM 13.896 -1L 10.104 -1L 10.104 1L 13.896 1L 13.896 -1ZM 10.104 -1L 9.33257 -1L 9.33257 1L 10.104 1L 10.104 -1Z"/>
<path id="path1_stroke" d="M 5.85714 3.42857C 5.85714 4.76886 4.76886 5.85714 3.42857 5.85714L 3.42857 7.85714C 5.87343 7.85714 7.85714 5.87343 7.85714 3.42857L 5.85714 3.42857ZM 3.42857 5.85714C 2.08828 5.85714 1 4.76886 1 3.42857L -1 3.42857C -1 5.87343 0.983715 7.85714 3.42857 7.85714L 3.42857 5.85714ZM 1 3.42857C 1 2.08828 2.08828 1 3.42857 1L 3.42857 -1C 0.983715 -1 -1 0.983715 -1 3.42857L 1 3.42857ZM 3.42857 1C 4.76886 1 5.85714 2.08828 5.85714 3.42857L 7.85714 3.42857C 7.85714 0.983715 5.87343 -1 3.42857 -1L 3.42857 1Z"/>
</defs>
</svg>
