<svg width="26" height="26" viewBox="0 0 26 26" version="1.1" xmlns="http://www.w3.org/2000/svg" xmlns:xlink="http://www.w3.org/1999/xlink">
<title>Group</title>
<desc>Created using Figma</desc>
<g id="Canvas" transform="translate(-2441 -1042)">
<g id="Group">
<g id="Stroke 452">
<use xlink:href="#path0_stroke" transform="translate(2442 1043)" fill="#005F91"/>
</g>
<g id="Stroke 453">
<use xlink:href="#path1_stroke" transform="translate(2442 1055)" fill="#005F91"/>
</g>
</g>
</g>
<defs>
<path id="path0_stroke" d="M 0 12L -0.919145 11.6061C -0.972492 11.7306 -1 11.8646 -1 12L 0 12ZM 5.14286 0L 5.14286 -1C 4.74283 -1 4.38129 -0.761603 4.22371 -0.393919L 5.14286 0ZM 18.8571 0L 19.7763 -0.393919C 19.6187 -0.761603 19.2572 -1 18.8571 -1L 18.8571 0ZM 24 12L 25 12C 25 11.8646 24.9725 11.7306 24.9191 11.6061L 24 12ZM 22.2857 23L 1.71429 23L 1.71429 25L 22.2857 25L 22.2857 23ZM 1.71429 23C 1.31857 23 1 22.6814 1 22.2857L -1 22.2857C -1 23.786 0.214002 25 1.71429 25L 1.71429 23ZM 1 22.2857L 1 12L -1 12L -1 22.2857L 1 22.2857ZM 0.919145 12.3939L 6.062 0.393919L 4.22371 -0.393919L -0.919145 11.6061L 0.919145 12.3939ZM 5.14286 1L 18.8571 1L 18.8571 -1L 5.14286 -1L 5.14286 1ZM 17.938 0.393919L 23.0809 12.3939L 24.9191 11.6061L 19.7763 -0.393919L 17.938 0.393919ZM 23 12L 23 22.2857L 25 22.2857L 25 12L 23 12ZM 23 22.2857C 23 22.6814 22.6814 23 22.2857 23L 22.2857 25C 23.786 25 25 23.786 25 22.2857L 23 22.2857Z"/>
<path id="path1_stroke" d="M 0 -1C -0.552285 -1 -1 -0.552285 -1 0C -1 0.552285 -0.552285 1 0 1L 0 -1ZM 6.85714 0L 7.75157 -0.447214C 7.58218 -0.785998 7.23591 -1 6.85714 -1L 6.85714 0ZM 17.1429 0L 17.1429 -1C 16.7641 -1 16.4178 -0.785998 16.2484 -0.447214L 17.1429 0ZM 24 1C 24.5523 1 25 0.552285 25 0C 25 -0.552285 24.5523 -1 24 -1L 24 1ZM 0 1L 6.85714 1L 6.85714 -1L 0 -1L 0 1ZM 6.85714 0C 5.96272 0.447214 5.9629 0.447577 5.96309 0.447952C 5.96316 0.448095 5.96335 0.448485 5.9635 0.448771C 5.96367 0.44911 5.9641 0.449971 5.96444 0.450649C 5.96489 0.451536 5.96592 0.453578 5.96682 0.45535C 5.96814 0.457954 5.97088 0.463303 5.97354 0.468478C 5.97791 0.476928 5.98606 0.492531 5.99488 0.509093C 6.01049 0.538341 6.0376 0.587966 6.06926 0.64346C 6.12815 0.746417 6.22642 0.909749 6.34652 1.09041C 6.57652 1.43472 6.95883 1.94092 7.43575 2.42139C 8.40189 3.38753 9.92696 4.42857 12 4.42857L 12 2.42857C 10.6445 2.42857 9.59811 1.75533 8.84996 1.00718C 8.46974 0.630513 8.2092 0.27957 8.01062 -0.0189858C 7.91644 -0.159749 7.85399 -0.264274 7.80574 -0.348817C 7.78383 -0.387073 7.77076 -0.411109 7.75958 -0.432084C 7.75501 -0.440633 7.75312 -0.444283 7.75079 -0.448808C 7.75011 -0.450119 7.74963 -0.451072 7.74998 -0.45038C 7.74991 -0.450505 7.7505 -0.449343 7.75047 -0.449399C 7.75034 -0.449662 7.75101 -0.448328 7.75095 -0.448458C 7.75104 -0.448277 7.75119 -0.447965 7.75124 -0.447874C 7.7514 -0.44755 7.75157 -0.447214 6.85714 0ZM 12 4.42857C 14.073 4.42857 15.5981 3.38753 16.5642 2.42139C 17.0412 1.94092 17.4235 1.43472 17.6535 1.09041C 17.7736 0.909749 17.8718 0.746417 17.9307 0.64346C 17.9624 0.587966 17.9895 0.538341 18.0051 0.509093C 18.0139 0.492531 18.0221 0.476928 18.0265 0.468478C 18.0291 0.463303 18.0319 0.457954 18.0332 0.45535C 18.0341 0.453578 18.0351 0.451536 18.0356 0.450649C 18.0359 0.449971 18.0363 0.44911 18.0365 0.448771C 18.0366 0.448485 18.0368 0.448095 18.0369 0.447952C 18.0371 0.447577 18.0373 0.447214 17.1429 0C 16.2484 -0.447214 16.2486 -0.44755 16.2488 -0.447874C 16.2488 -0.447965 16.249 -0.448277 16.2491 -0.448458C 16.249 -0.448328 16.2497 -0.449662 16.2495 -0.449399C 16.2495 -0.449343 16.2501 -0.450505 16.25 -0.45038C 16.2504 -0.451072 16.2499 -0.450119 16.2492 -0.448808C 16.2469 -0.444283 16.245 -0.440633 16.2404 -0.432084C 16.2292 -0.411109 16.2162 -0.387073 16.1943 -0.348817C 16.146 -0.264274 16.0836 -0.159749 15.9894 -0.0189858C 15.7908 0.27957 15.5303 0.630513 15.15 1.00718C 14.4019 1.75533 13.3555 2.42857 12 2.42857L 12 4.42857ZM 17.1429 1L 24 1L 24 -1L 17.1429 -1L 17.1429 1Z"/>
</defs>
</svg>
