<svg width="26" height="19" viewBox="0 0 26 19" version="1.1" xmlns="http://www.w3.org/2000/svg" xmlns:xlink="http://www.w3.org/1999/xlink">
<title>Group</title>
<desc>Created using Figma</desc>
<g id="Canvas" transform="translate(6597 4040)">
<g id="Group">
<g id="Stroke 124">
<use xlink:href="#path0_stroke" transform="translate(-6596 -4039)" fill="#ADB7BE"/>
</g>
<g id="Stroke 125">
<use xlink:href="#path1_stroke" transform="translate(-6594.33 -4037.33)" fill="#ADB7BE"/>
</g>
</g>
</g>
<defs>
<path id="path0_stroke" d="M 21.6667 15.6659L 1.66667 15.6659L 1.66667 17.6659L 21.6667 17.6659L 21.6667 15.6659ZM 1.66667 15.6659C 1.29891 15.6659 1 15.367 1 14.9993L -1 14.9993C -1 16.4716 0.194424 17.6659 1.66667 17.6659L 1.66667 15.6659ZM 1 14.9993L 1 1.66659L -1 1.66659L -1 14.9993L 1 14.9993ZM 1 1.66659C 1 1.29896 1.29891 1 1.66667 1L 1.66667 -1C 0.194424 -1 -1 0.194307 -1 1.66659L 1 1.66659ZM 1.66667 1L 21.6667 1L 21.6667 -1L 1.66667 -1L 1.66667 1ZM 21.6667 1C 22.0354 1 22.3333 1.29831 22.3333 1.66659L 24.3333 1.66659C 24.3333 0.194958 23.1412 -1 21.6667 -1L 21.6667 1ZM 22.3333 1.66659L 22.3333 14.9993L 24.3333 14.9993L 24.3333 1.66659L 22.3333 1.66659ZM 22.3333 14.9993C 22.3333 15.3676 22.0354 15.6659 21.6667 15.6659L 21.6667 17.6659C 23.1412 17.6659 24.3333 16.471 24.3333 14.9993L 22.3333 14.9993Z"/>
<path id="path1_stroke" d="M 20.6402 0.768235C 21.0645 0.41468 21.1218 -0.215883 20.7682 -0.640168C 20.4147 -1.06445 19.7841 -1.12179 19.3598 -0.768235L 20.6402 0.768235ZM 10 8.33296L 9.35983 9.1012C 9.73067 9.41022 10.2693 9.41022 10.6402 9.1012L 10 8.33296ZM 0.640168 -0.768235C 0.215883 -1.12179 -0.41468 -1.06445 -0.768235 -0.640168C -1.12179 -0.215883 -1.06445 0.41468 -0.640168 0.768235L 0.640168 -0.768235ZM 19.3598 -0.768235L 9.35983 7.56473L 10.6402 9.1012L 20.6402 0.768235L 19.3598 -0.768235ZM 10.6402 7.56473L 0.640168 -0.768235L -0.640168 0.768235L 9.35983 9.1012L 10.6402 7.56473Z"/>
</defs>
</svg>
