<svg width="22" height="22" viewBox="0 0 22 22" version="1.1" xmlns="http://www.w3.org/2000/svg" xmlns:xlink="http://www.w3.org/1999/xlink">
<title>Group</title>
<desc>Created using Figma</desc>
<g id="Canvas" transform="translate(-832 -1558)">
<g id="Group">
<g id="Stroke 263">
<use xlink:href="#path0_stroke" transform="translate(833 1559)" fill="#005F91" fill-opacity="0.54"/>
</g>
<g id="Fill 264">
<use xlink:href="#path1_fill" transform="translate(837.286 1564.71)" fill="#005F91"/>
</g>
<g id="Fill 265">
<use xlink:href="#path1_fill" transform="translate(841.571 1564.71)" fill="#005F91"/>
</g>
<g id="Fill 266">
<use xlink:href="#path1_fill" transform="translate(845.857 1564.71)" fill="#005F91"/>
</g>
</g>
</g>
<defs>
<path id="path0_stroke" d="M 9.5 15.7143L 10.4933 15.5984C 10.4345 15.0944 10.0075 14.7143 9.5 14.7143L 9.5 15.7143ZM 10 20L 9.00674 20.1159C 9.05533 20.5324 9.35857 20.8743 9.76625 20.9723C 10.1739 21.0703 10.5995 20.9036 10.8321 20.5547L 10 20ZM 12.8571 15.7143L 12.8571 14.7143C 12.5228 14.7143 12.2106 14.8814 12.0251 15.1596L 12.8571 15.7143ZM 8.50674 15.8302L 9.00674 20.1159L 10.9933 19.8841L 10.4933 15.5984L 8.50674 15.8302ZM 10.8321 20.5547L 13.6892 16.269L 12.0251 15.1596L 9.16795 19.4453L 10.8321 20.5547ZM 12.8571 16.7143L 18.5714 16.7143L 18.5714 14.7143L 12.8571 14.7143L 12.8571 16.7143ZM 18.5714 16.7143C 19.9137 16.7143 21 15.628 21 14.2857L 19 14.2857C 19 14.5234 18.8091 14.7143 18.5714 14.7143L 18.5714 16.7143ZM 21 14.2857L 21 1.42857L 19 1.42857L 19 14.2857L 21 14.2857ZM 21 1.42857C 21 0.0862865 19.9137 -1 18.5714 -1L 18.5714 1C 18.8091 1 19 1.19086 19 1.42857L 21 1.42857ZM 18.5714 -1L 1.42857 -1L 1.42857 1L 18.5714 1L 18.5714 -1ZM 1.42857 -1C 0.0862868 -1 -1 0.0862868 -1 1.42857L 1 1.42857C 1 1.19086 1.19086 1 1.42857 1L 1.42857 -1ZM -1 1.42857L -1 14.2857L 1 14.2857L 1 1.42857L -1 1.42857ZM -1 14.2857C -1 15.628 0.0862865 16.7143 1.42857 16.7143L 1.42857 14.7143C 1.19086 14.7143 1 14.5234 1 14.2857L -1 14.2857ZM 1.42857 16.7143L 9.5 16.7143L 9.5 14.7143L 1.42857 14.7143L 1.42857 16.7143Z"/>
<path id="path1_fill" fill-rule="evenodd" d="M 2.85714 1.42857C 2.85714 2.21857 2.21857 2.85714 1.42857 2.85714C 0.638572 2.85714 0 2.21857 0 1.42857C 0 0.638571 0.638572 0 1.42857 0C 2.21857 0 2.85714 0.638571 2.85714 1.42857Z"/>
</defs>
</svg>
