<svg width="17" height="21" viewBox="0 0 17 21" version="1.1" xmlns="http://www.w3.org/2000/svg" xmlns:xlink="http://www.w3.org/1999/xlink">
<title>Group</title>
<desc>Created using Figma</desc>
<g id="Canvas" transform="translate(3533 4133)">
<rect x="-3533" y="-4133" width="17" height="21" fill="#E5E5E5"/>
<clipPath id="clip-0" clip-rule="evenodd">
<path d="M -4031 -4693L -2111 -4693L -2111 -3613L -4031 -3613L -4031 -4693Z" fill="#FFFFFF"/>
</clipPath>
<g id="Documents" clip-path="url(#clip-0)">
<path d="M -4031 -4693L -2111 -4693L -2111 -3613L -4031 -3613L -4031 -4693Z" fill="#ECF2F5"/>
<g id="Rectangle 23" filter="url(#filter0_d)">
<use xlink:href="#path0_fill" transform="translate(-3691 -4166)" fill="#FFFFFF"/>
</g>
<g id="Document Table">
<g id="Group">
<g id="Group">
<g id="Stroke 120">
<use xlink:href="#path1_stroke" transform="translate(-3527 -4120.14)" fill="#ADB7BE"/>
</g>
<g id="Stroke 121">
<use xlink:href="#path2_stroke" transform="translate(-3532 -4132)" fill="#ADB7BE"/>
</g>
<g id="Stroke 122">
<use xlink:href="#path3_stroke" transform="translate(-3527 -4125.14)" fill="#ADB7BE"/>
</g>
</g>
</g>
<g id="Group">
</g>
</g>
</g>
</g>
<defs>
<filter id="filter0_d" filterUnits="userSpaceOnUse" x="-3695" y="-4166" width="1564" height="537" color-interpolation-filters="sRGB">
<feFlood flood-opacity="0" result="BackgroundImageFix"/>
<feColorMatrix in="SourceAlpha" type="matrix" values="0 0 0 0 0 0 0 0 0 0 0 0 0 0 0 0 0 0 255 0"/>
<feOffset dx="0" dy="4"/>
<feGaussianBlur stdDeviation="2"/>
<feColorMatrix type="matrix" values="0 0 0 0 0 0 0 0 0 0 0 0 0 0 0 0 0 0 0.03 0"/>
<feBlend mode="normal" in2="BackgroundImageFix" result="effect1_dropShadow"/>
<feBlend mode="normal" in="SourceGraphic" in2="effect1_dropShadow" result="shape"/>
</filter>
<path id="path0_fill" d="M 0 0L 1556 0L 1556 529L 0 529L 0 0Z"/>
<path id="path1_stroke" d="M 0 -1C -0.552285 -1 -1 -0.552285 -1 0C -1 0.552285 -0.552285 1 0 1L 0 -1ZM 3 1C 3.55228 1 4 0.552285 4 0C 4 -0.552285 3.55228 -1 3 -1L 3 1ZM 0 1L 3 1L 3 -1L 0 -1L 0 1Z"/>
<path id="path2_stroke" d="M 13.3333 17.8571L 1.66667 17.8571L 1.66667 19.8571L 13.3333 19.8571L 13.3333 17.8571ZM 1.66667 17.8571C 1.3243 17.8571 1 17.5643 1 17.1429L -1 17.1429C -1 18.614 0.165705 19.8571 1.66667 19.8571L 1.66667 17.8571ZM 1 17.1429L 1 1.71429L -1 1.71429L -1 17.1429L 1 17.1429ZM 1 1.71429C 1 1.29288 1.32429 1 1.66667 1L 1.66667 -1C 0.165705 -1 -1 0.243118 -1 1.71429L 1 1.71429ZM 1.66667 1L 13.3333 1L 13.3333 -1L 1.66667 -1L 1.66667 1ZM 13.3333 1C 13.6757 1 14 1.29288 14 1.71429L 16 1.71429C 16 0.243118 14.8343 -1 13.3333 -1L 13.3333 1ZM 14 1.71429L 14 17.1429L 16 17.1429L 16 1.71429L 14 1.71429ZM 14 17.1429C 14 17.5643 13.6757 17.8571 13.3333 17.8571L 13.3333 19.8571C 14.8343 19.8571 16 18.614 16 17.1429L 14 17.1429Z"/>
<path id="path3_stroke" d="M 0 -1C -0.552285 -1 -1 -0.552285 -1 0C -1 0.552285 -0.552285 1 0 1L 0 -1ZM 5 1C 5.55228 1 6 0.552285 6 0C 6 -0.552285 5.55228 -1 5 -1L 5 1ZM 0 1L 5 1L 5 -1L 0 -1L 0 1Z"/>
</defs>
</svg>
