<svg width="20" height="20" viewBox="0 0 20 20" version="1.1" xmlns="http://www.w3.org/2000/svg" xmlns:xlink="http://www.w3.org/1999/xlink">
<title>Group</title>
<desc>Created using Figma</desc>
<g id="Canvas" transform="translate(-832 -1632)">
<g id="Group">
<g id="Stroke 215">
<use xlink:href="#path0_stroke" transform="translate(833 1633.5)" fill="#005F91" fill-opacity="0.54"/>
</g>
<g id="Stroke 216">
<use xlink:href="#path1_stroke" transform="translate(838 1638.5)" fill="#005F91" fill-opacity="0.54"/>
</g>
<g id="Stroke 217">
<use xlink:href="#path2_stroke" transform="translate(838 1642.26)" fill="#005F91" fill-opacity="0.54"/>
</g>
</g>
</g>
<defs>
<path id="path0_stroke" d="M 6.25 13.7489L 7.08203 13.1941C 6.89656 12.916 6.58434 12.7489 6.25 12.7489L 6.25 13.7489ZM 8.75 17.4986L 7.91797 18.0533C 8.10344 18.3315 8.41566 18.4986 8.75 18.4986C 9.08434 18.4986 9.39656 18.3315 9.58203 18.0533L 8.75 17.4986ZM 11.25 13.7489L 11.25 12.7489C 10.9157 12.7489 10.6034 12.916 10.418 13.1941L 11.25 13.7489ZM 18.5 6.25357C 18.5 5.70128 18.0523 5.25357 17.5 5.25357C 16.9477 5.25357 16.5 5.70128 16.5 6.25357L 18.5 6.25357ZM 11.25 1C 11.8023 1 12.25 0.552285 12.25 0C 12.25 -0.552285 11.8023 -1 11.25 -1L 11.25 1ZM 5.41797 14.3036L 7.91797 18.0533L 9.58203 16.9438L 7.08203 13.1941L 5.41797 14.3036ZM 9.58203 18.0533L 12.082 14.3036L 10.418 13.1941L 7.91797 16.9438L 9.58203 18.0533ZM 11.25 14.7489L 16.25 14.7489L 16.25 12.7489L 11.25 12.7489L 11.25 14.7489ZM 16.25 14.7489C 17.4916 14.7489 18.5 13.7432 18.5 12.499L 16.5 12.499C 16.5 12.6372 16.3884 12.7489 16.25 12.7489L 16.25 14.7489ZM 18.5 12.499L 18.5 6.25357L 16.5 6.25357L 16.5 12.499L 18.5 12.499ZM 11.25 -1L 1.25 -1L 1.25 1L 11.25 1L 11.25 -1ZM 1.25 -1C 0.0084436 -1 -1 0.00569167 -1 1.2499L 1 1.2499C 1 1.11172 1.11156 1 1.25 1L 1.25 -1ZM -1 1.2499L -1 12.499L 1 12.499L 1 1.2499L -1 1.2499ZM -1 12.499C -1 13.7432 0.0084429 14.7489 1.25 14.7489L 1.25 12.7489C 1.11156 12.7489 1 12.6372 1 12.499L -1 12.499ZM 1.25 14.7489L 6.25 14.7489L 6.25 12.7489L 1.25 12.7489L 1.25 14.7489Z"/>
<path id="path1_stroke" d="M 0 -1C -0.552285 -1 -1 -0.552285 -1 0C -1 0.552285 -0.552285 1 0 1L 0 -1ZM 7.5 1C 8.05229 1 8.5 0.552285 8.5 0C 8.5 -0.552285 8.05229 -1 7.5 -1L 7.5 1ZM 0 1L 7.5 1L 7.5 -1L 0 -1L 0 1Z"/>
<path id="path2_stroke" d="M 0 -1C -0.552285 -1 -1 -0.552285 -1 0C -1 0.552285 -0.552285 1 0 1L 0 -1ZM 5 1C 5.55228 1 6 0.552285 6 0C 6 -0.552285 5.55228 -1 5 -1L 5 1ZM 0 1L 5 1L 5 -1L 0 -1L 0 1Z"/>
</defs>
</svg>
