<svg width="20" height="26" viewBox="0 0 20 26" version="1.1" xmlns="http://www.w3.org/2000/svg" xmlns:xlink="http://www.w3.org/1999/xlink">
<title>Group</title>
<desc>Created using Figma</desc>
<g id="Canvas" transform="translate(-842 -1194)">
<g id="Group">
<g id="Stroke 232">
<use xlink:href="#path0_stroke" transform="matrix(0.96897 0.247178 -0.24277 0.970084 846.701 1196)" fill="#005F91"/>
</g>
<g id="Group">
<g id="Stroke 103">
<use xlink:href="#path1_stroke" transform="translate(847.5 1197.81)" fill="#005F91"/>
</g>
<g id="Stroke 104">
<use xlink:href="#path2_stroke" transform="translate(843 1211.43)" fill="#005F91"/>
</g>
</g>
</g>
</g>
<defs>
<path id="path0_stroke" d="M 13.2101 1C 13.7624 1 14.2101 0.552285 14.2101 0C 14.2101 -0.552285 13.7624 -1 13.2101 -1L 13.2101 1ZM 0 -1C -0.552285 -1 -1 -0.552285 -1 0C -1 0.552285 -0.552285 1 0 1L 0 -1ZM 13.2101 -1L 0 -1L 0 1L 13.2101 1L 13.2101 -1Z"/>
<path id="path1_stroke" d="M 8 4.54031C 8 6.50422 6.42483 8.08062 4.5 8.08062L 4.5 10.0806C 7.54617 10.0806 10 7.59193 10 4.54031L 8 4.54031ZM 4.5 8.08062C 2.57517 8.08062 1 6.50422 1 4.54031L -1 4.54031C -1 7.59193 1.45383 10.0806 4.5 10.0806L 4.5 8.08062ZM 1 4.54031C 1 2.5764 2.57517 1 4.5 1L 4.5 -1C 1.45383 -1 -1 1.48869 -1 4.54031L 1 4.54031ZM 4.5 1C 6.42483 1 8 2.5764 8 4.54031L 10 4.54031C 10 1.48869 7.54617 -1 4.5 -1L 4.5 1Z"/>
<path id="path2_stroke" d="M 18 7.56718L 18 8.56718C 18.5523 8.56718 19 8.11947 19 7.56718L 18 7.56718ZM 0 7.56718L -1 7.56718C -1 8.11947 -0.552285 8.56718 2.22045e-16 8.56718L 0 7.56718ZM 18 6.56718L 0 6.56718L 0 8.56718L 18 8.56718L 18 6.56718ZM 1 7.56718C 1 3.93231 3.9178 1 7.5 1L 7.5 -1C 2.7962 -1 -1 2.84486 -1 7.56718L 1 7.56718ZM 7.5 1L 10.5 1L 10.5 -1L 7.5 -1L 7.5 1ZM 10.5 1C 14.0822 1 17 3.93231 17 7.56718L 19 7.56718C 19 2.84486 15.2038 -1 10.5 -1L 10.5 1Z"/>
</defs>
</svg>
