<svg width="26" height="26" viewBox="0 0 26 26" version="1.1" xmlns="http://www.w3.org/2000/svg" xmlns:xlink="http://www.w3.org/1999/xlink">
<title>Group</title>
<desc>Created using Figma</desc>
<g id="Canvas" transform="translate(6688 4044)">
<g id="Group">
<g id="Stroke 97">
<use xlink:href="#path0_stroke" transform="translate(-6675.33 -4031.33)" fill="#ADB7BE"/>
</g>
<g id="Stroke 98">
<use xlink:href="#path1_stroke" transform="translate(-6680.33 -4029.67)" fill="#ADB7BE"/>
</g>
<g id="Stroke 99">
<use xlink:href="#path1_stroke" transform="translate(-6670.33 -4029.67)" fill="#ADB7BE"/>
</g>
<g id="Stroke 100">
<use xlink:href="#path2_stroke" transform="translate(-6685.33 -4036.33)" fill="#ADB7BE"/>
</g>
<g id="Stroke 101">
<use xlink:href="#path3_stroke" transform="translate(-6687 -4038)" fill="#ADB7BE"/>
</g>
<g id="Stroke 102">
<use xlink:href="#path4_stroke" transform="translate(-6680.33 -4043)" fill="#ADB7BE"/>
</g>
</g>
</g>
<defs>
<path id="path0_stroke" d="M 1 0C 1 -0.552285 0.552285 -1 0 -1C -0.552285 -1 -1 -0.552285 -1 0L 1 0ZM -1 6.66637C -1 7.21866 -0.552285 7.66637 0 7.66637C 0.552285 7.66637 1 7.21866 1 6.66637L -1 6.66637ZM -1 0L -1 6.66637L 1 6.66637L 1 0L -1 0Z"/>
<path id="path1_stroke" d="M 1 0C 1 -0.552285 0.552285 -1 0 -1C -0.552285 -1 -1 -0.552285 -1 0L 1 0ZM -1 4.99978C -1 5.55206 -0.552285 5.99978 0 5.99978C 0.552285 5.99978 1 5.55206 1 4.99978L -1 4.99978ZM -1 0L -1 4.99978L 1 4.99978L 1 0L -1 0Z"/>
<path id="path2_stroke" d="M 21 0C 21 -0.552285 20.5523 -1 20 -1C 19.4477 -1 19 -0.552285 19 0L 21 0ZM 1 0C 1 -0.552285 0.552285 -1 0 -1C -0.552285 -1 -1 -0.552285 -1 0L 1 0ZM 19 0L 19 14.9993L 21 14.9993L 21 0L 19 0ZM 19 14.9993C 19 15.367 18.7011 15.6659 18.3333 15.6659L 18.3333 17.6659C 19.8056 17.6659 21 16.4716 21 14.9993L 19 14.9993ZM 18.3333 15.6659L 1.66667 15.6659L 1.66667 17.6659L 18.3333 17.6659L 18.3333 15.6659ZM 1.66667 15.6659C 1.29891 15.6659 1 15.367 1 14.9993L -1 14.9993C -1 16.4716 0.194424 17.6659 1.66667 17.6659L 1.66667 15.6659ZM 1 14.9993L 1 0L -1 0L -1 14.9993L 1 14.9993Z"/>
<path id="path3_stroke" d="M 0 -1C -0.552285 -1 -1 -0.552285 -1 0C -1 0.552285 -0.552285 1 0 1L 0 -1ZM 23.3333 1C 23.8856 1 24.3333 0.552285 24.3333 0C 24.3333 -0.552285 23.8856 -1 23.3333 -1L 23.3333 1ZM 0 1L 23.3333 1L 23.3333 -1L 0 -1L 0 1Z"/>
<path id="path4_stroke" d="M -1 4.99978C -1 5.55206 -0.552285 5.99978 0 5.99978C 0.552285 5.99978 1 5.55206 1 4.99978L -1 4.99978ZM 9 4.99978C 9 5.55206 9.44771 5.99978 10 5.99978C 10.5523 5.99978 11 5.55206 11 4.99978L 9 4.99978ZM 1 4.99978L 1 1.66659L -1 1.66659L -1 4.99978L 1 4.99978ZM 1 1.66659C 1 1.29896 1.29891 1 1.66667 1L 1.66667 -1C 0.194424 -1 -1 0.194307 -1 1.66659L 1 1.66659ZM 1.66667 1L 8.33333 1L 8.33333 -1L 1.66667 -1L 1.66667 1ZM 8.33333 1C 8.70109 1 9 1.29896 9 1.66659L 11 1.66659C 11 0.194307 9.80558 -1 8.33333 -1L 8.33333 1ZM 9 1.66659L 9 4.99978L 11 4.99978L 11 1.66659L 9 1.66659Z"/>
</defs>
</svg>
