<svg width="20" height="20" viewBox="0 0 26 26" version="1.1" xmlns="http://www.w3.org/2000/svg" xmlns:xlink="http://www.w3.org/1999/xlink">
<title>Group</title>
<desc>Created using Figma</desc>
<g id="Canvas" transform="translate(13639 4356)">
<g id="Group">
<g id="Stroke 126">
<use xlink:href="#path0_stroke" transform="translate(-13638 -4355)" fill="#005F91"/>
</g>
<g id="Stroke 127">
<use xlink:href="#path1_stroke" transform="translate(-13629.4 -4334.69)" fill="#005F91"/>
</g>
</g>
</g>
<defs>
<path id="path0_stroke" d="M 22.2857 14.2308L 1.71429 14.2308L 1.71429 16.2308L 22.2857 16.2308L 22.2857 14.2308ZM 1.71429 14.2308C 1.30702 14.2308 1 13.9088 1 13.5385L -1 13.5385C -1 15.0364 0.225551 16.2308 1.71429 16.2308L 1.71429 14.2308ZM 1 13.5385L 1 1.69231L -1 1.69231L -1 13.5385L 1 13.5385ZM 1 1.69231C 1 1.32192 1.30702 1 1.71429 1L 1.71429 -1C 0.225551 -1 -1 0.194389 -1 1.69231L 1 1.69231ZM 1.71429 1L 22.2857 1L 22.2857 -1L 1.71429 -1L 1.71429 1ZM 22.2857 1C 22.693 1 23 1.32192 23 1.69231L 25 1.69231C 25 0.194389 23.7744 -1 22.2857 -1L 22.2857 1ZM 23 1.69231L 23 13.5385L 25 13.5385L 25 1.69231L 23 1.69231ZM 23 13.5385C 23 13.9088 22.693 14.2308 22.2857 14.2308L 22.2857 16.2308C 23.7744 16.2308 25 15.0364 25 13.5385L 23 13.5385Z"/>
<path id="path1_stroke" d="M 6.85714 1C 7.40943 1 7.85714 0.552285 7.85714 0C 7.85714 -0.552285 7.40943 -1 6.85714 -1L 6.85714 1ZM 0 -1C -0.552285 -1 -1 -0.552285 -1 0C -1 0.552285 -0.552285 1 0 1L 0 -1ZM 6.85714 -1L 0 -1L 0 1L 6.85714 1L 6.85714 -1Z"/>
</defs>
</svg>
