<svg width="26" height="26" viewBox="0 0 26 26" version="1.1" xmlns="http://www.w3.org/2000/svg" xmlns:xlink="http://www.w3.org/1999/xlink">
<title>Group</title>
<desc>Created using Figma</desc>
<g id="Canvas" transform="translate(13639 4485)">
<g id="Group">
<g id="Stroke 132">
<use xlink:href="#path0_stroke" transform="translate(-13638 -4477.14)" fill="#005F91"/>
</g>
<g id="Fill 133">
<use xlink:href="#path1_fill" transform="translate(-13620.9 -4470.29)" fill="#005F91"/>
</g>
<g id="Stroke 134">
<use xlink:href="#path2_stroke" transform="translate(-13636.3 -4484)" fill="#005F91"/>
</g>
</g>
</g>
<defs>
<path id="path0_stroke" d="M 22.2857 16.1425L 1.71429 16.1425L 1.71429 18.1425L 22.2857 18.1425L 22.2857 16.1425ZM 1.71429 16.1425C 1.3192 16.1425 1 15.8229 1 15.4283L -1 15.4283C -1 16.9262 0.21337 18.1425 1.71429 18.1425L 1.71429 16.1425ZM 1 15.4283L 1 1.71425L -1 1.71425L -1 15.4283L 1 15.4283ZM 1 1.71425C 1 1.31964 1.3192 1 1.71429 1L 1.71429 -1C 0.213369 -1 -1 0.216331 -1 1.71425L 1 1.71425ZM 1.71429 1L 22.2857 1L 22.2857 -1L 1.71429 -1L 1.71429 1ZM 22.2857 1C 22.6808 1 23 1.31964 23 1.71425L 25 1.71425C 25 0.216331 23.7866 -1 22.2857 -1L 22.2857 1ZM 23 1.71425L 23 15.4283L 25 15.4283L 25 1.71425L 23 1.71425ZM 23 15.4283C 23 15.8229 22.6808 16.1425 22.2857 16.1425L 22.2857 18.1425C 23.7866 18.1425 25 16.9262 25 15.4283L 23 15.4283Z"/>
<path id="path1_fill" fill-rule="evenodd" d="M 3.42857 1.71425C 3.42857 2.66052 2.66229 3.4285 1.71429 3.4285C 0.766286 3.4285 0 2.66052 0 1.71425C 0 0.767984 0.766286 0 1.71429 0C 2.66229 0 3.42857 0.767984 3.42857 1.71425"/>
<path id="path2_stroke" d="M 16.1429 6.857C 16.1429 7.40929 16.5906 7.857 17.1429 7.857C 17.6951 7.857 18.1429 7.40929 18.1429 6.857L 16.1429 6.857ZM 17.1429 0L 18.1429 0C 18.1429 -0.331823 17.9783 -0.642035 17.7035 -0.828065C 17.4287 -1.0141 17.0796 -1.05171 16.7715 -0.928479L 17.1429 0ZM -0.371384 5.92852C -0.884169 6.13363 -1.13359 6.7156 -0.928479 7.22839C -0.723369 7.74117 -0.141401 7.99059 0.371384 7.78548L -0.371384 5.92852ZM 18.1429 6.857L 18.1429 0L 16.1429 0L 16.1429 6.857L 18.1429 6.857ZM 16.7715 -0.928479L -0.371384 5.92852L 0.371384 7.78548L 17.5142 0.928479L 16.7715 -0.928479Z"/>
</defs>
</svg>
