<svg width="530" height="530" viewBox="0 0 530 530" version="1.1" xmlns="http://www.w3.org/2000/svg" xmlns:xlink="http://www.w3.org/1999/xlink">
<title>broken-link (1)</title>
<desc>Created using Figma</desc>
<g id="Canvas" transform="translate(5121 -2488)">
<g id="broken-link (1)">
<g id="Group">
<g id="Group">
<g id="Vector">
<use xlink:href="#path0_fill" transform="translate(-5121 2488)" fill="#828282"/>
</g>
</g>
</g>
<g id="Group">
<g id="Group">
<g id="Vector">
<use xlink:href="#path1_fill" transform="translate(-4754.52 2853.5)" fill="#828282"/>
</g>
</g>
</g>
<g id="Group">
<g id="Group">
<g id="Vector">
<use xlink:href="#path2_fill" transform="translate(-4712.2 2817.27)" fill="#828282"/>
</g>
</g>
</g>
<g id="Group">
<g id="Group">
<g id="Vector">
<use xlink:href="#path3_fill" transform="translate(-4790.75 2895.82)" fill="#828282"/>
</g>
</g>
</g>
</g>
</g>
<defs>
<path id="path0_fill" d="M 517.819 12.1793C 501.579 -4.05926 475.152 -4.06029 458.909 12.1793L 352.429 118.66C 309.246 96.4331 254.828 103.35 218.691 139.49L 140.471 217.708C 104.334 253.846 97.415 308.265 119.642 351.447L 12.1812 458.91C -4.0604 475.152 -4.0604 501.58 12.1812 517.82C 20.303 525.94 30.9693 530 41.6355 530C 52.3018 530 62.9701 525.94 71.0899 517.82L 178.526 410.384C 194.585 418.679 212.504 423.1 231.126 423.1C 261.816 423.1 290.64 411.177 312.29 389.528C 317.712 384.105 317.712 375.314 312.29 369.892L 273.017 330.619C 270.413 328.015 266.881 326.552 263.198 326.552C 259.516 326.552 255.983 328.015 253.38 330.619C 251.716 332.281 249.886 333.71 247.945 334.941C 252.904 320.378 249.592 303.595 237.999 292.001C 226.405 280.408 209.622 277.097 195.058 282.055C 196.288 280.114 197.719 278.283 199.381 276.621L 277.599 198.402C 279.036 196.965 280.584 195.708 282.207 194.61C 277.025 209.277 280.287 226.289 291.998 238.002C 300.12 246.122 310.787 250.181 321.453 250.181C 326.176 250.181 330.899 249.381 335.401 247.789C 334.29 249.425 333.026 250.971 331.598 252.399C 328.995 255.002 327.531 258.534 327.531 262.217C 327.531 265.899 328.995 269.432 331.598 272.036L 370.872 311.309C 376.294 316.731 385.086 316.73 390.508 311.309C 426.645 275.171 433.564 220.752 411.338 177.57L 517.818 71.0883C 534.06 54.8487 534.06 28.422 517.819 12.1793ZM 262.047 358.92L 282.06 378.933C 267.348 389.582 249.692 395.331 231.128 395.331C 220.116 395.331 209.424 393.305 199.477 389.436L 222.028 366.885C 225.012 367.344 228.052 367.585 231.13 367.585C 242.219 367.586 252.839 364.568 262.047 358.92ZM 198.727 311.637C 201.433 308.931 204.988 307.577 208.545 307.577C 212.101 307.577 215.657 308.931 218.364 311.637C 223.778 317.051 223.778 325.859 218.364 331.273L 51.454 498.183C 46.0412 503.597 37.232 503.597 31.8181 498.183C 26.4043 492.769 26.4043 483.961 31.8181 478.547L 198.727 311.637ZM 257.964 178.764L 179.745 256.982C 168.57 268.158 162.413 283.035 162.413 298.873C 162.413 301.952 162.655 304.99 163.114 307.975L 140.592 330.497C 128.47 299.306 134.966 262.487 160.106 237.345L 238.326 159.127C 255.289 142.163 277.57 133.682 299.853 133.682C 310.596 133.682 321.335 135.663 331.479 139.61L 308.939 162.152C 290.904 159.37 271.826 164.901 257.964 178.764ZM 379.908 281.073L 359.9 261.066C 365.546 251.857 368.565 241.239 368.565 230.147C 368.565 227.068 368.322 224.029 367.864 221.045L 390.375 198.534C 400.888 225.578 397.416 256.846 379.908 281.073ZM 498.183 51.4523L 331.272 218.364C 325.859 223.778 317.05 223.778 311.636 218.364C 306.223 212.95 306.223 204.14 311.636 198.726L 478.545 31.8174C 483.96 26.4035 492.769 26.4024 498.183 31.8174C 503.597 37.2312 503.597 46.0394 498.183 51.4523Z"/>
<path id="path1_fill" d="M 68.8668 49.2307L 23.7029 4.06662C 18.2807 -1.35556 9.48915 -1.35556 4.067 4.06662C -1.35515 9.48879 -1.35619 18.2804 4.067 23.7026L 49.2309 68.8667C 51.943 71.5788 55.4956 72.9338 59.0493 72.9338C 62.602 72.9338 66.1567 71.5778 68.8678 68.8667C 74.2889 63.4455 74.2899 54.6529 68.8668 49.2307Z"/>
<path id="path2_fill" d="M 84.7226 10.0856L 15.8713 0.143985C 8.28359 -0.95018 1.23936 4.31049 0.144165 11.9024C -0.95103 19.4922 4.31274 26.5333 11.9015 27.6296L 80.7528 37.5712C 81.4267 37.6685 82.0944 37.7162 82.7548 37.7162C 89.5444 37.7162 95.4821 32.7298 96.48 25.8139C 97.5752 18.223 92.3114 11.1819 84.7226 10.0856Z"/>
<path id="path3_fill" d="M 37.5713 80.7525L 27.6296 11.9019C 26.5344 4.31207 19.4871 -0.948628 11.9025 0.143467C 4.31272 1.24074 -0.951029 8.27983 0.144167 15.8707L 10.0858 84.7213C 11.0837 91.6372 17.0213 96.6236 23.8109 96.6236C 24.4714 96.6236 25.1411 96.576 25.8129 96.4797C 33.4037 95.3835 38.6675 88.3433 37.5713 80.7525Z"/>
</defs>
</svg>
