<svg width="378" height="442" viewBox="0 0 378 442" version="1.1" xmlns="http://www.w3.org/2000/svg" xmlns:xlink="http://www.w3.org/1999/xlink">
<title>compass</title>
<desc>Created using Figma</desc>
<g id="Canvas" transform="translate(7435 -2532)">
<g id="compass">
<g id="Group">
<g id="Group">
<g id="Vector">
<use xlink:href="#path0_fill" transform="translate(-7384.39 2646.73)" fill="#828282"/>
</g>
</g>
</g>
<g id="Group">
<g id="Group">
<g id="Vector">
<use xlink:href="#path1_fill" transform="translate(-7435 2532)" fill="#828282"/>
</g>
</g>
</g>
<g id="Group">
<g id="Group">
<g id="Vector">
<use xlink:href="#path2_fill" transform="translate(-7314.61 2716.48)" fill="#828282"/>
</g>
</g>
</g>
</g>
</g>
<defs>
<path id="path0_fill" d="M 138.39 3.68833e-06C 62.0814 3.68833e-06 4.74382e-07 62.0594 4.74382e-07 138.341C 4.74382e-07 214.622 62.0814 276.681 138.39 276.681C 214.698 276.681 276.779 214.622 276.779 138.341C 276.779 62.0594 214.698 3.68833e-06 138.39 3.68833e-06ZM 147.354 258.428L 147.354 246.882C 147.354 241.932 143.34 237.921 138.39 237.921C 133.439 237.921 129.426 241.932 129.426 246.882L 129.426 258.428C 70.1327 254.047 22.6423 206.574 18.2596 147.302L 29.8101 147.302C 34.761 147.302 38.7741 143.29 38.7741 138.341C 38.7741 133.392 34.761 129.381 29.8101 129.381L 18.2596 129.381C 22.6423 70.1078 70.1318 22.6352 129.426 18.254L 129.426 29.8004C 129.426 34.7487 133.439 38.7613 138.39 38.7613C 143.34 38.7613 147.354 34.7487 147.354 29.8004L 147.354 18.254C 206.646 22.6352 254.137 70.1078 258.519 129.381L 246.969 129.381C 242.018 129.381 238.005 133.392 238.005 138.341C 238.005 143.29 242.018 147.302 246.969 147.302L 258.52 147.302C 254.136 206.573 206.646 254.047 147.354 258.428Z"/>
<path id="path1_fill" d="M 197.963 64.3532L 197.963 52.7118L 212.363 52.7118C 217.314 52.7118 221.327 48.7002 221.327 43.751L 221.327 8.96084C 221.327 4.01166 217.314 -4.1001e-11 212.363 -4.1001e-11L 165.631 -4.1001e-11C 160.68 -4.1001e-11 156.667 4.01166 156.667 8.96084L 156.667 43.751C 156.667 48.7002 160.68 52.7118 165.631 52.7118L 180.037 52.7118L 180.037 64.3532C 79.968 69.0477 3.95318e-07 151.894 3.95318e-07 253.067C 3.95318e-07 357.245 84.7842 442 189 442C 293.216 442 378 357.245 378 253.067C 378 151.894 298.031 69.0477 197.963 64.3532ZM 174.594 34.791L 174.594 17.9217L 203.399 17.9217L 203.399 34.791L 174.594 34.791ZM 188.999 423.136C 95.1896 423.136 18.8702 346.843 18.8702 253.067C 18.8702 159.291 95.1896 82.9992 188.999 82.9992C 282.809 82.9992 359.128 159.291 359.128 253.068C 359.129 346.844 282.81 423.136 188.999 423.136Z"/>
<path id="path2_fill" d="M 134.598 2.62547C 131.956 -0.0161613 127.952 -0.742186 124.55 0.803084L 42.5348 38.0691C 42.4666 38.1002 42.4027 38.1382 42.3345 38.171C 42.198 38.2366 42.0616 38.3048 41.9277 38.3782C 41.8068 38.4438 41.6911 38.5154 41.5737 38.588C 41.4536 38.6613 41.3327 38.733 41.2153 38.8133C 41.0762 38.9074 40.9432 39.0093 40.8094 39.1111C 40.7204 39.1793 40.6289 39.2432 40.5425 39.3149C 40.1004 39.68 39.6945 40.0858 39.3292 40.5278C 39.2567 40.6167 39.1919 40.709 39.1228 40.7988C 39.0218 40.9309 38.9207 41.0621 38.8283 41.1994C 38.7471 41.3185 38.6737 41.4411 38.5986 41.5637C 38.5287 41.6776 38.4587 41.7916 38.3939 41.9099C 38.3188 42.0463 38.2506 42.1844 38.1824 42.3242C 38.1504 42.3899 38.1133 42.4529 38.083 42.5194L 0.803792 124.505C -0.742889 127.905 -0.0157497 131.908 2.62596 134.548C 4.34363 136.266 6.63731 137.174 8.9664 137.174C 10.2195 137.174 11.4829 136.91 12.6738 136.37L 94.6885 99.1039C 94.7567 99.0728 94.8197 99.0348 94.8862 99.0029C 95.0235 98.9355 95.1609 98.8682 95.2956 98.7948C 95.4156 98.7292 95.5305 98.6584 95.6462 98.5876C 95.7671 98.5143 95.8889 98.4417 96.0063 98.3606C 96.1436 98.2674 96.2766 98.1663 96.4079 98.0653C 96.4986 97.9963 96.591 97.9315 96.6791 97.859C 97.1203 97.4947 97.5262 97.089 97.8906 96.6478C 97.9658 96.5572 98.0331 96.4614 98.104 96.369C 98.2024 96.2395 98.3008 96.1117 98.3924 95.9771C 98.4744 95.8562 98.5487 95.7328 98.6247 95.6093C 98.6938 95.4962 98.7638 95.384 98.8277 95.2666C 98.9028 95.1302 98.9719 94.9903 99.0401 94.8505C 99.072 94.7857 99.1092 94.7227 99.1394 94.6562L 136.419 12.6706C 137.967 9.2684 137.241 5.26625 134.598 2.62547ZM 27.0145 110.168L 49.0506 61.7057L 75.4936 88.1394L 27.0145 110.168ZM 88.171 75.4681L 61.728 49.0345L 110.207 27.0062L 88.171 75.4681Z"/>
</defs>
</svg>
