<svg width="397" height="493" viewBox="0 0 397 493" version="1.1" xmlns="http://www.w3.org/2000/svg" xmlns:xlink="http://www.w3.org/1999/xlink">
<title>hold</title>
<desc>Created using Figma</desc>
<g id="Canvas" transform="translate(2935 -2494)">
<g id="hold">
<g id="Vector">
<use xlink:href="#path0_fill" transform="translate(-2935 2494)" fill="#828282"/>
</g>
</g>
</g>
<defs>
<path id="path0_fill" d="M 393.362 226.326C 389.751 220.317 383.707 217.011 376.317 217.011C 376.284 217.011 376.25 217.011 376.217 217.011C 362.282 217.062 345.513 222.579 332.456 231.401C 320.411 239.539 302.948 254.621 288.211 280.337C 285.444 285.161 280.905 288.433 276.048 289.21C 276.031 288.091 276.04 286.814 276.04 285.604C 276.04 283.025 276.048 279.953 275.939 276.564L 275.939 91.8125C 275.939 73.4 260.943 58.4262 242.502 58.4262C 224.062 58.4262 209.065 73.4 209.065 91.8125L 209.065 221.185C 209.065 223.48 207.184 225.358 204.886 225.358C 202.587 225.358 200.706 223.48 200.706 221.185L 200.706 33.3864C 200.706 14.9738 185.709 0 167.269 0C 148.828 0 133.832 14.9738 133.832 33.3864L 133.832 221.185C 133.832 223.48 131.951 225.358 129.652 225.358C 127.353 225.358 125.473 223.48 125.473 221.185L 125.473 70.9461C 125.473 54.8371 112.349 41.733 96.2151 41.733C 80.0818 41.733 66.9577 54.8371 66.9577 70.9461L 66.9577 237.878C 66.9577 240.173 65.0769 242.051 62.7781 242.051C 60.4793 242.051 58.5984 240.173 58.5984 237.878L 58.5984 133.546C 58.5984 117.437 45.4744 104.332 29.2574 104.332C 13.124 104.332 1.49874e-06 117.437 1.49874e-06 133.546L 0.0167188 360.548C 8.10849 477.258 79.8059 493 148.878 493C 206.106 493 257.507 464.655 282.852 419.35C 286.113 414.091 294.932 400.244 305.389 383.843C 331.537 342.828 353.438 308.382 356.673 302.255C 363.887 288.617 371.937 277.958 379.945 271.431C 387.193 265.522 391.623 257.985 395.226 251.366C 397.09 247.919 398.712 235.257 393.362 226.326ZM 380.087 244.213C 376.744 250.298 373.592 255.064 369.371 258.502C 359.507 266.549 350.27 278.643 341.894 294.468C 338.709 300.502 310.179 345.265 291.295 374.887C 280.779 391.38 271.919 405.286 268.449 410.895C 245.871 451.242 200.054 476.315 148.878 476.315C 60.7551 476.315 22.4613 442.436 16.7185 359.98L 16.7185 133.546C 16.7185 126.643 22.3443 121.026 29.341 121.026C 36.2541 121.026 41.8799 126.643 41.8799 133.546L 41.8799 237.878C 41.8799 249.388 51.2506 258.744 62.7781 258.744C 74.3055 258.744 83.6762 249.388 83.6762 237.878L 83.6762 70.9461C 83.6762 64.0434 89.302 58.4262 96.2151 58.4262C 103.128 58.4262 108.754 64.0434 108.754 70.9461L 108.754 221.185C 108.754 232.695 118.125 242.051 129.652 242.051C 141.18 242.051 150.55 232.695 150.55 221.185L 150.55 33.3864C 150.55 24.1801 158.049 16.6932 167.269 16.6932C 176.489 16.6932 183.987 24.1801 183.987 33.3864L 183.987 221.185C 183.987 232.695 193.358 242.051 204.886 242.051C 216.413 242.051 225.784 232.695 225.784 221.185L 225.784 91.8125C 225.784 82.6063 233.282 75.1194 242.502 75.1194C 251.723 75.1194 259.221 82.6063 259.221 91.8125L 259.221 276.823C 259.329 280.254 259.321 283.15 259.321 285.587C 259.304 293.057 259.296 298.449 263.417 302.481C 266.87 305.844 271.342 306.053 274.502 306.086C 285.878 305.828 296.695 299.134 302.722 288.625C 315.855 265.689 331.228 252.368 341.819 245.231C 352.117 238.27 365.651 233.746 376.284 233.705C 376.292 233.705 376.309 233.705 376.317 233.705C 378.106 233.705 378.516 234.23 378.758 234.539C 380.405 236.626 380.48 241.876 380.087 244.213Z"/>
</defs>
</svg>
