<svg width="149" height="54" viewBox="0 0 149 54" version="1.1" xmlns="http://www.w3.org/2000/svg" xmlns:xlink="http://www.w3.org/1999/xlink">
<title>MyNTI Logo</title>
<desc>Created using Figma</desc>
<g id="Canvas" transform="translate(8177 -2238)">
<g id="MyNTI Logo">
<g id="Group">
<g id="Layer 1">
<g id="Group">
<g id="Group">
<g id="Vector">
<use xlink:href="#path0_fill" transform="translate(-8177 2238)" fill="#46C35F"/>
</g>
</g>
</g>
</g>
</g>
<g id="Group">
<g id="Vector">
<use xlink:href="#path1_fill" transform="translate(-8118 2243)" fill="#46C35F"/>
</g>
<g id="Vector">
<use xlink:href="#path2_fill" transform="translate(-8091.71 2249.9)" fill="#46C35F"/>
</g>
<g id="Vector">
<use xlink:href="#path3_fill" transform="translate(-8073 2243)" fill="#46C35F"/>
</g>
<g id="Vector">
<use xlink:href="#path4_fill" transform="translate(-8052.36 2243)" fill="#46C35F"/>
</g>
<g id="Vector">
<use xlink:href="#path5_fill" transform="translate(-8031.57 2243)" fill="#46C35F"/>
</g>
</g>
<g id="Group">
<g id="Vector">
<use xlink:href="#path6_fill" transform="translate(-8118 2280.34)" fill="#B4CB01"/>
</g>
<g id="Vector">
<use xlink:href="#path7_fill" transform="translate(-8107.29 2280.4)" fill="#B4CB01"/>
</g>
<g id="Vector">
<use xlink:href="#path8_fill" transform="translate(-8099.67 2285.75)" fill="#B4CB01"/>
</g>
<g id="Vector">
<use xlink:href="#path9_fill" transform="translate(-8096.55 2280.35)" fill="#B4CB01"/>
</g>
<g id="Vector">
<use xlink:href="#path10_fill" transform="translate(-8090.03 2278.95)" fill="#B4CB01"/>
</g>
<g id="Vector">
<use xlink:href="#path11_fill" transform="translate(-8083.34 2277.54)" fill="#B4CB01"/>
</g>
<g id="Vector">
<use xlink:href="#path12_fill" transform="translate(-8080.22 2285.75)" fill="#B4CB01"/>
</g>
<g id="Vector">
<use xlink:href="#path13_fill" transform="translate(-8077.1 2280.37)" fill="#B4CB01"/>
</g>
<g id="Vector">
<use xlink:href="#path14_fill" transform="translate(-8070.26 2276.88)" fill="#B4CB01"/>
</g>
<g id="Vector">
<use xlink:href="#path15_fill" transform="translate(-8063.03 2280.4)" fill="#B4CB01"/>
</g>
<g id="Vector">
<use xlink:href="#path16_fill" transform="translate(-8055.71 2285.75)" fill="#B4CB01"/>
</g>
<g id="Vector">
<use xlink:href="#path17_fill" transform="translate(-8052.59 2280.35)" fill="#B4CB01"/>
</g>
<g id="Vector">
<use xlink:href="#path18_fill" transform="translate(-8045.8 2280.4)" fill="#B4CB01"/>
</g>
</g>
</g>
</g>
<defs>
<path id="path0_fill" d="M 53.6373 4.08758C 53.4557 3.93573 53.227 3.85438 52.9944 3.85438C 52.9331 3.85438 52.872 3.86021 52.8117 3.87134L 49.2694 4.52827L 49.2694 1.00752C 49.2694 0.672033 49.1034 0.35854 48.8256 0.171187C 48.6569 0.0577686 48.4613 3.07308e-07 48.2641 3.07308e-07C 48.1362 3.07308e-07 48.0072 0.0243797 47.885 0.0741991L 42.247 2.37517L 42.247 1.00964C 42.247 0.645532 42.0516 0.309516 41.7349 0.130908C 41.5811 0.0447836 41.4108 0.00185427 41.2411 0.00185427C 41.0608 0.00185427 40.8797 0.0506139 40.719 0.148663L 27.0003 8.51329L 13.2802 0.148133C 13.12 0.0506142 12.9387 0.00185427 12.7586 0.00185427C 12.5887 0.00185427 12.4187 0.0447835 12.2654 0.131172C 11.9484 0.310045 11.7528 0.645797 11.7528 1.00964L 11.7528 2.37517L 6.1147 0.0741991C 5.99283 0.0243797 5.86383 3.07308e-07 5.73588 3.07308e-07C 5.53921 3.07308e-07 5.34253 0.0580336 5.17493 0.171187C 4.8971 0.35854 4.73003 0.672298 4.73003 1.00752L 4.73003 4.52827L 1.18879 3.87134C 1.12772 3.86021 1.06639 3.85438 1.00585 3.85438C 0.772962 3.85438 0.545091 3.93573 0.363218 4.08758C 0.132968 4.27917 -1.45212e-07 4.56272 -1.45212e-07 4.86216L -1.45212e-07 47.8412C -1.45212e-07 48.3813 0.424019 48.8254 0.961972 48.8482L 18.3565 49.6082C 18.3721 49.609 18.3864 49.6101 18.4015 49.6101C 18.9006 49.6101 19.3169 49.2396 19.3904 48.7499C 19.4523 48.527 19.4393 48.2885 19.3444 48.0741C 19.2469 47.855 19.0724 47.6812 18.8569 47.5783C 18.8432 47.5714 18.83 47.5632 18.8152 47.5577C 18.8064 47.5532 18.7969 47.5465 18.7866 47.5428L 6.85937 42.9451L 6.85937 2.68177L 11.7528 4.67905L 11.7528 40.6741C 11.7528 41.0332 11.9436 41.3655 12.2537 41.5459L 26.2826 49.7139C 26.3917 49.8403 26.5302 49.9413 26.6939 50.0025C 26.8078 50.0444 26.9257 50.0643 27.0428 50.0643C 27.3294 50.0643 27.6091 49.9416 27.8031 49.7163L 32.766 43.9617L 36.8227 53.391C 36.9866 53.7724 37.3573 54 37.7464 54C 37.8791 54 38.0147 53.9735 38.1448 53.9173L 41.1679 52.6101C 41.4127 52.5041 41.6051 52.3056 41.704 52.057C 41.8029 51.8085 41.7981 51.531 41.6921 51.2854L 40.8467 49.3188L 53.0444 48.73C 53.5794 48.7035 54 48.2607 54 47.723L 54 4.86216C 53.9997 4.56272 53.8668 4.27917 53.6373 4.08758ZM 11.9241 47.1838L 2.13648 46.7566L 2.13648 6.22478L 4.73056 6.70601L 4.73056 43.7189C 4.73056 44.1358 4.98671 44.5102 5.37557 44.6594L 11.9241 47.1838ZM 47.1412 2.68177L 47.1412 42.9449L 39.3893 45.9324L 37.6211 41.8213L 45.3941 42.112C 45.407 42.1128 45.4189 42.1133 45.4327 42.1133C 45.8347 42.1133 46.2006 41.8711 46.3579 41.4967C 46.5202 41.11 46.4277 40.6638 46.1245 40.3747L 42.247 36.6785L 42.247 4.67905L 47.1412 2.68177ZM 40.1398 34.6693L 28.0685 23.1599L 28.0685 10.3349L 40.1398 2.97459L 40.1398 34.6693ZM 13.861 2.97432L 25.9328 10.3346L 25.9328 23.7435C 25.9328 23.7657 25.9384 23.7869 25.9397 23.8086L 26.0296 47.1228L 13.861 40.0381L 13.861 2.97432ZM 38.3301 51.5186L 34.009 41.476C 33.8718 41.1575 33.5807 40.9319 33.2389 40.8795C 33.1879 40.8718 33.1366 40.8678 33.0861 40.8678C 32.7964 40.8678 32.5178 40.994 32.3253 41.2166L 28.1489 46.0588L 28.0719 26.1019L 42.5177 39.8743L 36.0181 39.6316C 36.0181 39.6316 35.9044 39.6268 35.8922 39.6268C 35.5613 39.6268 35.2499 39.7911 35.0624 40.0662C 34.8681 40.3519 34.8322 40.7173 34.9689 41.0345L 39.2992 51.0988L 38.3301 51.5186ZM 51.8635 46.6434L 42.2787 47.1058L 48.6257 44.6589C 49.0141 44.5097 49.2694 44.135 49.2694 43.7189L 49.2694 6.70601L 51.8635 6.22478L 51.8635 46.6434Z"/>
<path id="path1_fill" d="M 14.4103 20.9552C 14.2948 21.3696 14.1907 21.7488 14.0986 22.095C 14.006 22.4171 13.9024 22.7218 13.7869 23.0096C 13.6709 23.2979 13.5558 23.5098 13.4408 23.6483C 13.1864 23.9018 12.9214 24.0512 12.6441 24.0964C 12.3667 24.143 12.0894 24.1654 11.8125 24.1654L 11.0158 24.1654C 10.739 24.1654 10.4616 24.1425 10.1843 24.0964C 9.90742 24.0507 9.64155 23.9013 9.38759 23.6483C 9.27208 23.5094 9.15656 23.2974 9.0415 23.0096C 8.92598 22.7218 8.82193 22.4171 8.72979 22.095C 8.63719 21.7488 8.53359 21.3696 8.41807 20.9552L 4.22646 4.418C 4.20308 4.32709 4.15724 4.28004 4.08802 4.28004C 4.0188 4.28004 3.98396 4.32709 3.98396 4.418L 3.67225 24.1663L -4.47657e-07 24.1663L 0.381389 1.79488C 0.40431 1.19598 0.606463 0.747833 0.987853 0.448609C 1.36878 0.1503 1.80197 5.01888e-06 2.2865 5.01888e-06L 4.33051 5.01888e-06C 4.95394 5.01888e-06 5.45039 0.0465993 5.82032 0.137508C 6.18933 0.230245 6.48958 0.425759 6.72062 0.724983C 6.95119 1.02421 7.14785 1.43901 7.31012 1.96848C 7.47102 2.49749 7.65575 3.19964 7.86387 4.07401L 11.3285 18.4358L 11.3977 18.8154L 11.5017 18.4358L 14.9659 4.07401C 15.174 3.19964 15.3583 2.49749 15.5201 1.96848C 15.6814 1.43901 15.8781 1.02466 16.1091 0.724983C 16.3397 0.425759 16.64 0.230245 17.0099 0.137508C 17.3789 0.0465993 17.8763 5.01888e-06 18.4997 5.01888e-06L 20.5432 5.01888e-06C 21.0287 5.01888e-06 21.4614 0.1503 21.8423 0.448609C 22.2237 0.747833 22.4254 1.19644 22.4488 1.79488L 22.8297 24.1663L 19.1575 24.1663L 18.8458 4.418C 18.8458 4.32709 18.8109 4.28004 18.7417 4.28004C 18.6725 4.28004 18.6262 4.32709 18.6033 4.418L 14.4103 20.9552Z"/>
<path id="path2_fill" d="M 3.60349 0.000907748L 5.61221 11.2901C 5.72772 11.9347 5.86065 12.4294 6.01055 12.7748C 6.16091 13.1206 6.35711 13.3737 6.60006 13.534C 6.84255 13.6958 7.13639 13.7876 7.48294 13.81C 7.82949 13.8337 8.25672 13.8447 8.76463 13.8447L 9.1804 13.8447L 11.6053 0.000461626L 15.2432 0.000461626L 11.9867 18.3668C 11.7319 19.7711 11.4898 20.9561 11.2588 21.9233C 11.0278 22.8895 10.722 23.6661 10.3411 24.2536C 9.96014 24.8401 9.46323 25.2599 8.85172 25.5135C 8.2393 25.767 7.43664 25.8926 6.44374 25.8926C 5.70434 25.8926 5.06945 25.8639 4.53863 25.8072C 4.00688 25.7492 3.56865 25.6747 3.2221 25.582C 2.80633 25.4897 2.46024 25.3751 2.18245 25.2371L 2.49462 22.1645C 2.70181 22.1873 2.93285 22.2102 3.18726 22.233C 3.41784 22.2558 3.68371 22.2673 3.98396 22.2673C 4.28376 22.2673 4.61885 22.2673 4.98878 22.2673C 5.49669 22.2673 5.92391 22.2558 6.27046 22.233C 6.61656 22.2097 6.91131 22.1179 7.1538 21.9571C 7.3963 21.7953 7.59249 21.5432 7.74239 21.1978C 7.89229 20.8525 8.02523 20.3573 8.1412 19.7131L 8.55697 17.4345C 8.34886 17.4345 8.1412 17.4404 7.93355 17.4523C 7.72589 17.4637 7.51777 17.4692 7.30966 17.4692C 6.3163 17.4692 5.5141 17.3426 4.90214 17.0891C 4.28971 16.8365 3.79372 16.4166 3.41233 15.8296C 3.03094 15.2421 2.72473 14.466 2.49462 13.4989C 2.26312 12.5327 2.02063 11.3467 1.76668 9.94335L -2.40616e-06 1.56143e-06L 3.60349 1.56143e-06L 3.60349 0.000907748Z"/>
<path id="path3_fill" d="M 13.7177 19.7478C 13.7635 19.8401 13.8098 19.8858 13.8565 19.8858C 13.9253 19.8858 13.9601 19.8511 13.9601 19.7816L 13.9601 19.7136L 13.995 0.000458614L 17.5279 0.000458614L 17.5279 22.3714C 17.505 22.9708 17.3033 23.4189 16.9223 23.7177C 16.5414 24.0174 16.1087 24.1667 15.6237 24.1667L 13.9601 24.1667C 13.5677 24.1667 13.1346 24.1096 12.661 23.9936C 12.1875 23.8794 11.7901 23.5916 11.4664 23.1311C 11.3509 22.947 11.201 22.6761 11.0158 22.3198C 10.8311 21.9635 10.6578 21.5893 10.4969 21.1983C 10.2888 20.7606 10.0926 20.2887 9.90742 19.7816L 3.81069 4.41845C 3.76393 4.32755 3.71809 4.28049 3.67133 4.28049C 3.60303 4.28049 3.56774 4.31521 3.56774 4.38465L 3.56774 4.45318L 3.53336 24.1663L -2.79786e-07 24.1663L -2.79786e-07 1.79489C 0.0224614 1.19599 0.225532 0.747826 0.606463 0.448603C 0.987395 0.150293 1.42013 -1.4499e-06 1.90512 -1.4499e-06L 3.56819 -1.4499e-06C 3.96058 -1.4499e-06 4.39377 0.0580117 4.8673 0.172676C 5.34037 0.287797 5.73918 0.575607 6.06236 1.03609C 6.17741 1.22019 6.32135 1.49063 6.49509 1.84696C 6.6679 2.2042 6.84714 2.57834 7.03233 2.96893C 7.21615 3.40657 7.41372 3.87802 7.62138 4.38465L 13.7177 19.7478Z"/>
<path id="path4_fill" d="M 6.96265 3.45226L -3.35743e-06 3.45226L -3.35743e-06 -1.4499e-06L 17.4939 -1.4499e-06L 17.4939 3.45226L 10.5309 3.45226L 10.5309 24.1667L 6.96311 24.1667L 6.96311 3.45226L 6.96265 3.45226Z"/>
<path id="path5_fill" d="M 4.7004e-06 1.78449e-06L 3.56773 1.78449e-06L 3.56773 24.1663L 4.7004e-06 24.1663L 4.7004e-06 1.78449e-06Z"/>
<path id="path6_fill" d="M 7.82444 7.09365L 7.82444 2.99772C 7.82444 2.66971 7.8194 2.40703 7.81023 2.20968C 7.80061 2.01233 7.76531 1.86022 7.70435 1.75195C 7.64338 1.64505 7.54436 1.57424 7.40776 1.54089C 7.27161 1.508 7.08092 1.49201 6.83613 1.49201C 6.7417 1.49201 6.6239 1.50389 6.48271 1.52719C 6.34152 1.55094 6.20033 1.57606 6.05914 1.60484C 5.91796 1.63271 5.78181 1.66058 5.64933 1.6889C 5.51731 1.71768 5.41876 1.74098 5.35275 1.75925C 5.36237 1.94747 5.36696 2.15122 5.36696 2.37232C 5.36696 2.59206 5.36696 2.83418 5.36696 3.09685L 5.36696 7.09365L 3.91199 7.09365L 3.91199 2.99772C 3.91199 2.66971 3.90695 2.40703 3.89778 2.20968C 3.88816 2.01233 3.85286 1.86022 3.79189 1.75195C 3.73047 1.64505 3.63145 1.57424 3.49531 1.54089C 3.3587 1.508 3.16801 1.49201 2.92322 1.49201C 2.82879 1.49201 2.71373 1.50389 2.57713 1.52719C 2.44098 1.55094 2.30163 1.57606 2.16044 1.60484C 2.01926 1.63271 1.88265 1.66058 1.75109 1.6889C 1.61907 1.71768 1.52006 1.74098 1.45451 1.75925L 1.45451 7.09365L -1.51084e-06 7.09365L -1.51084e-06 0.0566529L 1.45451 0.0566529L 1.45451 0.436736C 1.54848 0.399732 1.66858 0.354507 1.81435 0.302885C 1.96058 0.25172 2.12285 0.204657 2.30163 0.161715C 2.48041 0.119686 2.67339 0.0817686 2.88105 0.0493337C 3.08779 0.016442 3.30003 0.00045538 3.51639 0.00045538C 3.95875 0.00045538 4.30026 0.0452244 4.54046 0.134306C 4.77975 0.222931 4.96173 0.366374 5.08413 0.563267C 5.09329 0.553674 5.16893 0.520327 5.31011 0.46505C 5.45176 0.408404 5.63008 0.344448 5.8469 0.274096C 6.06327 0.204658 6.30805 0.141165 6.58126 0.0840616C 6.85447 0.0278715 7.13638 -4.68429e-06 7.42884 -4.68429e-06C 7.90925 -4.68429e-06 8.27643 0.0511661 8.53084 0.15441C 8.78479 0.258567 8.96632 0.429421 9.07451 0.668343C 9.18223 0.907722 9.24411 1.22705 9.25787 1.62586C 9.27162 2.02513 9.27941 2.51531 9.27941 3.09685L 9.27941 7.09365L 7.82444 7.09365Z"/>
<path id="path7_fill" d="M 1.46963 6.02266e-06L 2.28879 4.60256C 2.33601 4.86478 2.3901 5.06762 2.45107 5.20786C 2.51204 5.34857 2.59272 5.45135 2.69127 5.51714C 2.79029 5.58338 2.90993 5.62129 3.05112 5.63042C 3.19277 5.63956 3.3665 5.64367 3.57415 5.64367L 3.7433 5.64367L 4.73207 6.02266e-06L 6.215 6.02266e-06L 4.88747 7.4879C 4.78387 8.06122 4.68485 8.54362 4.59134 8.93787C 4.49691 9.33257 4.37223 9.64916 4.21683 9.88808C 4.06143 10.1275 3.85882 10.2983 3.60991 10.402C 3.36054 10.5053 3.03278 10.5569 2.62801 10.5569C 2.32639 10.5569 2.06784 10.545 1.85102 10.5222C 1.6342 10.4979 1.45543 10.4673 1.31424 10.4299C 1.14463 10.3929 1.00344 10.3463 0.890216 10.2896L 1.01719 9.037C 1.10199 9.0466 1.19597 9.05528 1.30002 9.06487C 1.394 9.07447 1.50218 9.07904 1.62457 9.07904C 1.7465 9.07904 1.88357 9.07904 2.03439 9.07904C 2.24158 9.07904 2.41577 9.07401 2.55696 9.06487C 2.69815 9.05528 2.81779 9.01782 2.91726 8.95249C 3.01628 8.88671 3.09604 8.78392 3.157 8.64276C 3.21797 8.5016 3.27206 8.29969 3.31928 8.03793L 3.48889 7.10828C 3.40362 7.10828 3.31928 7.11056 3.23402 7.11558C 3.14921 7.12061 3.06487 7.12289 2.97961 7.12289C 2.57484 7.12289 2.24754 7.07173 1.99817 6.96849C 1.7488 6.86433 1.54665 6.69347 1.39125 6.45455C 1.23585 6.21517 1.11071 5.89813 1.01673 5.5048C 0.922304 5.11055 0.824201 4.62677 0.720603 4.05482L 7.834e-07 0.00091221L 1.46963 0.00091221L 1.46963 6.02266e-06Z"/>
<path id="path8_fill" d="M -3.24551e-06 0.858835C -3.24551e-06 0.529917 0.0586765 0.305169 0.176486 0.183196C 0.293836 0.0607652 0.517996 6.35725e-06 0.847587 6.35725e-06C 1.17672 6.35725e-06 1.4027 0.061222 1.52556 0.183196C 1.64795 0.305169 1.70892 0.529917 1.70892 0.858835C 1.70892 1.1873 1.64795 1.40978 1.52556 1.52718C 1.4027 1.64504 1.17718 1.70307 0.847587 1.70307C 0.517996 1.70307 0.293836 1.64504 0.176486 1.52718C 0.0582181 1.41023 -3.24551e-06 1.1873 -3.24551e-06 0.858835Z"/>
<path id="path9_fill" d="M -6.15529e-07 0.0561961L 1.45451 0.0561961L 1.45451 0.436279C 1.54848 0.399276 1.66858 0.35405 1.81481 0.302428C 1.96058 0.251263 2.12286 0.2042 2.30209 0.161258C 2.48087 0.11923 2.67385 0.0813118 2.88105 0.0488769C 3.08871 0.0159851 3.30048 -1.4499e-06 3.51685 -1.4499e-06C 3.99725 -1.4499e-06 4.36443 0.0511693 4.61839 0.154413C 4.8728 0.25857 5.05387 0.429424 5.16251 0.668346C 5.2707 0.907725 5.33166 1.22704 5.34587 1.62585C 5.36008 2.02512 5.36696 2.5153 5.36696 3.09684L 5.36696 7.09366L 3.91199 7.09366L 3.91199 2.99772C 3.91199 2.66972 3.90741 2.40704 3.89778 2.20969C 3.88862 2.01234 3.85332 1.86021 3.79235 1.75194C 3.73138 1.64504 3.63237 1.57424 3.49577 1.54089C 3.35962 1.508 3.16892 1.492 2.92414 1.492C 2.82971 1.492 2.71419 1.50389 2.57805 1.52719C 2.44145 1.55094 2.30255 1.57606 2.1609 1.60484C 2.01972 1.63271 1.88357 1.66057 1.75109 1.68889C 1.61953 1.71767 1.52051 1.74098 1.45496 1.75926L 1.45496 7.09366L 0.000461031 7.09366L 0.000461031 0.0561961L -6.15529e-07 0.0561961Z"/>
<path id="path10_fill" d="M 2.42953 8.92246e-07L 2.42953 1.44998L 4.97181 1.44998L 4.92919 2.7026L 2.42907 2.77296L 2.42907 5.91138C 2.42907 6.2403 2.43411 6.49155 2.44328 6.66469C 2.45245 6.83874 2.48774 6.95979 2.54871 7.0306C 2.61013 7.1005 2.70915 7.13887 2.84575 7.14298C 2.9819 7.14755 3.17213 7.14984 3.41783 7.14984C 3.5306 7.14984 3.68371 7.14298 3.8767 7.12928C 4.06968 7.11512 4.26038 7.09959 4.44878 7.0804C 4.66515 7.06167 4.89572 7.03792 5.14097 7.01005L 5.28215 8.24806C 5.02774 8.32389 4.76416 8.38922 4.49142 8.44541C 4.2558 8.49292 3.99451 8.5345 3.70709 8.57196C 3.42013 8.60896 3.12584 8.62906 2.82467 8.62906C 2.3163 8.62906 1.93491 8.56008 1.6805 8.4244C 1.42609 8.28827 1.24502 8.0795 1.13683 7.79809C 1.02865 7.51622 0.974557 7.15303 0.974557 6.70762C 0.974557 6.26176 0.974557 5.72864 0.974557 5.10964L 0.974557 2.8159L 7.27443e-07 2.84377L 7.27443e-07 1.45043L 0.974557 1.45043L 0.974557 0.000460956L 2.42953 0.000460956L 2.42953 8.92246e-07Z"/>
<path id="path11_fill" d="M 2.51807e-06 0.858846C 2.51807e-06 0.529929 0.059137 0.305167 0.176946 0.183193C 0.294755 0.0607626 0.51845 3.79204e-06 0.84804 3.79204e-06C 1.17763 3.79204e-06 1.40317 0.0612194 1.52602 0.183193C 1.64841 0.305167 1.70937 0.529929 1.70937 0.858846C 1.70937 1.18731 1.64795 1.40977 1.52602 1.52718C 1.40317 1.64459 1.17763 1.70306 0.84804 1.70306C 0.51845 1.70306 0.294755 1.64459 0.176946 1.52718C 0.059137 1.40977 2.51807e-06 1.18685 2.51807e-06 0.858846ZM 0.127893 2.85748L 1.5824 2.85748L 1.5824 9.89448L 0.127893 9.89448L 0.127893 2.85748Z"/>
<path id="path12_fill" d="M 1.39893e-06 0.858835C 1.39893e-06 0.529917 0.0582158 0.305169 0.176483 0.183196C 0.294292 0.0607652 0.517991 6.35725e-06 0.847123 6.35725e-06C 1.17671 6.35725e-06 1.40271 0.061222 1.5251 0.183196C 1.64749 0.305169 1.70846 0.529917 1.70846 0.858835C 1.70846 1.1873 1.64749 1.40978 1.5251 1.52718C 1.40271 1.64504 1.17671 1.70307 0.847123 1.70307C 0.517532 1.70307 0.293834 1.64504 0.176483 1.52718C 0.0586742 1.41023 1.39893e-06 1.1873 1.39893e-06 0.858835Z"/>
<path id="path13_fill" d="M 1.48338 4.2243C 1.49255 4.61763 1.52785 4.9228 1.58927 5.13888C 1.6507 5.35542 1.7378 5.51164 1.85057 5.61032C 1.96333 5.709 2.10911 5.7652 2.28834 5.77936C 2.46758 5.79306 2.68394 5.79991 2.93789 5.79991C 3.1075 5.79991 3.32386 5.79123 3.5879 5.77204C 3.85148 5.75331 4.1059 5.73504 4.35068 5.71586C 4.64223 5.68753 4.93881 5.65966 5.23998 5.63088L 5.39584 6.99635C 4.96311 7.07127 4.529 7.12015 4.09627 7.14345C 3.66308 7.1672 3.28169 7.17908 2.9521 7.17908C 2.50012 7.17908 2.09306 7.15989 1.73001 7.12289C 1.36741 7.08451 1.05707 6.95158 0.798076 6.72133C 0.539537 6.49155 0.341505 6.13294 0.204902 5.64505C 0.0682984 5.1567 7.834e-07 4.46186 7.834e-07 3.56145C 7.834e-07 2.7355 0.049052 2.08634 0.148525 1.61169C 0.24754 1.13796 0.3956 0.781632 0.593629 0.542253C 0.791658 0.302874 1.04286 0.152581 1.34907 0.0918226C 1.65483 0.0306074 2.01972 4.90735e-06 2.44328 4.90735e-06L 3.30507 4.90735e-06C 3.74742 4.90735e-06 4.10773 0.0539019 4.38552 0.162171C 4.66286 0.269526 4.88013 0.427595 5.03507 0.633625C 5.19047 0.840112 5.29362 1.09091 5.34587 1.38602C 5.39721 1.68159 5.4238 2.0128 5.4238 2.37872C 5.4238 2.60348 5.4238 2.79351 5.4238 2.94884C 5.4238 3.10324 5.41876 3.24669 5.40959 3.3778C 5.40042 3.50936 5.39034 3.64048 5.38117 3.77204C 5.37154 3.90361 5.35733 4.05299 5.33854 4.22247L 1.48338 4.22247L 1.48338 4.2243ZM 2.47261 1.31018C 2.22737 1.32891 2.03897 1.36364 1.90741 1.41572C 1.77493 1.46734 1.67866 1.55642 1.61769 1.68296C 1.55673 1.80905 1.52143 1.9767 1.51226 2.18273C 1.50264 2.38922 1.49806 2.64687 1.49806 2.95706L 4.12515 2.95706C 4.12515 2.80676 4.13478 2.63773 4.15357 2.45043C 4.17191 2.26268 4.1632 2.08406 4.12515 1.91503C 4.08756 1.74646 4.01467 1.60347 3.90603 1.48607C 3.79785 1.36866 3.61633 1.31018 3.36191 1.31018L 2.47261 1.31018Z"/>
<path id="path14_fill" d="M -1.79063e-06 6.88305C -1.79063e-06 5.98173 0.0678444 5.29055 0.204906 4.80631C 0.34151 4.32344 0.53908 3.97442 0.798535 3.75788C 1.05661 3.5418 1.36741 3.42256 1.73047 3.39927C 2.0926 3.37551 2.50058 3.37323 2.95165 3.39196C 3.1781 3.41023 3.40867 3.43398 3.64428 3.46231C 3.87944 3.49018 4.11919 3.52352 4.36489 3.56053L 4.36489 4.68429e-06L 5.81894 4.68429e-06L 5.81894 10.5555C 5.39538 10.5742 5.04012 10.5861 4.7527 10.5911C 4.46574 10.5962 4.21637 10.5984 4.00413 10.5984C 3.79235 10.5984 3.6067 10.5984 3.44626 10.5984C 3.28536 10.5984 3.12171 10.5984 2.95165 10.5984C 2.50929 10.5984 2.10681 10.572 1.74467 10.5208C 1.38162 10.4696 1.07083 10.3234 0.811831 10.0845C 0.553752 9.84559 0.353428 9.47693 0.211782 8.9799C 0.0710529 8.48287 -1.79063e-06 7.78438 -1.79063e-06 6.88305ZM 2.93881 9.3038C 3.12721 9.3038 3.35045 9.30151 3.60945 9.29694C 3.86753 9.29191 4.11965 9.28506 4.36535 9.27547L 4.36535 4.86935C 4.14807 4.83235 3.90833 4.79763 3.64475 4.76474C 3.38071 4.73139 3.14509 4.7058 2.93881 4.68707C 2.66515 4.67748 2.43411 4.68707 2.24662 4.7154C 2.05776 4.74326 1.90741 4.8328 1.79464 4.98264C 1.68096 5.13294 1.60073 5.36273 1.55489 5.67246C 1.50722 5.98219 1.4843 6.40886 1.4843 6.95386C 1.4843 7.50663 1.50722 7.94153 1.55489 8.25583C 1.60119 8.57013 1.68096 8.80493 1.79464 8.9598C 1.90741 9.1142 2.05776 9.21106 2.24662 9.24806C 2.43411 9.28506 2.66515 9.3038 2.93881 9.3038Z"/>
<path id="path15_fill" d="M 2.95118 7.13613C 2.25395 7.13613 1.71075 7.06578 1.31974 6.92553C 0.92918 6.78437 0.63718 6.51897 0.444651 6.12975C 0.250748 5.74053 0.130642 5.20055 0.0843433 4.51074C 0.0366696 3.82184 0.014208 2.92782 0.014208 1.8296L 1.90254e-06 6.02266e-06L 1.4545 6.02266e-06L 1.46872 2.11146C 1.47834 2.83371 1.47834 3.43033 1.46872 3.8995C 1.45909 4.3682 1.4898 4.74144 1.55994 5.01827C 1.63053 5.29466 1.76942 5.48698 1.97708 5.59479C 2.18336 5.7026 2.50837 5.75651 2.95118 5.75651C 3.394 5.75651 3.71901 5.7026 3.92621 5.59479C 4.13295 5.48744 4.27413 5.29511 4.34977 5.01827C 4.4254 4.74144 4.45749 4.3682 4.44924 3.8995C 4.43915 3.43033 4.43915 2.83371 4.44924 2.11146L 4.44924 6.02266e-06L 5.90328 6.02266e-06L 5.90328 1.8296C 5.90328 2.92782 5.87716 3.82184 5.82582 4.51074C 5.77402 5.20055 5.65162 5.74053 5.45864 6.12975C 5.26611 6.51942 4.97136 6.78483 4.57622 6.92553C 4.18062 7.06532 3.63878 7.13613 2.95118 7.13613Z"/>
<path id="path16_fill" d="M 1.73467e-06 0.858835C 1.73467e-06 0.529917 0.0595913 0.305169 0.176484 0.183196C 0.294751 0.0607652 0.517991 6.35725e-06 0.848039 6.35725e-06C 1.17717 6.35725e-06 1.40362 0.061222 1.52602 0.183196C 1.64887 0.305169 1.70937 0.529917 1.70937 0.858835C 1.70937 1.1873 1.64841 1.40978 1.52602 1.52718C 1.40362 1.64504 1.17717 1.70307 0.848039 1.70307C 0.517991 1.70307 0.294751 1.64504 0.176484 1.52718C 0.0595913 1.41023 1.73467e-06 1.1873 1.73467e-06 0.858835Z"/>
<path id="path17_fill" d="M -2.62999e-06 0.0561961L 1.45451 0.0561961L 1.45451 0.436279C 1.54939 0.399276 1.66949 0.35405 1.81481 0.302428C 1.96104 0.251263 2.12331 0.2042 2.30209 0.161258C 2.48178 0.11923 2.67431 0.0813118 2.88151 0.0488769C 3.08917 0.0159851 3.30049 -1.4499e-06 3.51731 -1.4499e-06C 3.99817 -1.4499e-06 4.36535 0.0511693 4.61885 0.154413C 4.87326 0.25857 5.05479 0.429424 5.16297 0.668346C 5.27116 0.907725 5.33258 1.22704 5.34679 1.62585C 5.36009 2.02512 5.36741 2.5153 5.36741 3.09684L 5.36741 7.09366L 3.91291 7.09366L 3.91291 2.99772C 3.91291 2.66972 3.90787 2.40704 3.8987 2.20969C 3.88953 2.01234 3.85424 1.86021 3.79327 1.75194C 3.73139 1.64504 3.63282 1.57424 3.49622 1.54089C 3.35962 1.508 3.16893 1.492 2.92414 1.492C 2.83063 1.492 2.71511 1.50389 2.5785 1.52719C 2.4419 1.55094 2.30255 1.57606 2.16228 1.60484C 2.02063 1.63271 1.88449 1.66057 1.75201 1.68889C 1.62091 1.71767 1.52235 1.74098 1.45542 1.75926L 1.45542 7.09366L 0.000913668 7.09366L 0.000913668 0.0561961L -2.62999e-06 0.0561961Z"/>
<path id="path18_fill" d="M 6.65278 0.139796L 6.6106 1.40658L 5.48064 1.40658C 5.61175 1.50114 5.70159 1.67199 5.74927 1.92051C 5.79556 2.16948 5.81986 2.51485 5.81986 2.95524C 5.80977 3.34948 5.78411 3.71037 5.74193 4.03929C 5.69976 4.3682 5.58378 4.64916 5.39538 4.88442C 5.20698 5.11832 4.91773 5.30105 4.52671 5.43307C 4.1357 5.56464 3.59707 5.63042 2.90947 5.63042C 2.81504 5.63042 2.7472 5.63042 2.70503 5.63042C 2.6624 5.63042 2.62709 5.62723 2.59913 5.62312C 2.57071 5.61855 2.53816 5.61398 2.50058 5.60895C 2.46344 5.60439 2.41073 5.59662 2.34472 5.58794L 2.24617 6.33395C 2.23654 6.37095 2.23654 6.4043 2.24617 6.43216C 2.2645 6.49886 2.32593 6.52627 2.42952 6.51714L 3.51686 6.46049C 4.11048 6.42349 4.5808 6.43948 4.92965 6.50983C 5.27803 6.58018 5.5439 6.69986 5.72726 6.86843C 5.91062 7.037 6.02842 7.2508 6.08022 7.50891C 6.13202 7.76702 6.15816 8.06944 6.15816 8.41709C 6.15816 8.79123 6.13433 9.11786 6.08757 9.39516C 6.04081 9.67154 5.92345 9.89951 5.73459 10.0777C 5.54573 10.2558 5.26794 10.3874 4.90122 10.4719C 4.53404 10.5564 4.02567 10.598 3.37566 10.598C 2.98098 10.598 2.61381 10.5939 2.27413 10.5843C 1.93583 10.5747 1.63925 10.5605 1.38529 10.5418C 1.08367 10.5235 0.809992 10.4998 0.566123 10.4719L 0.622514 8.9936C 1.02682 9.03152 1.43159 9.06396 1.83681 9.09274C 2.18474 9.12061 2.55466 9.1439 2.94476 9.16309C 3.33624 9.18228 3.68647 9.18639 3.99726 9.17725C 4.18612 9.17725 4.33372 9.15578 4.44236 9.11375C 4.551 9.07081 4.63306 9.01691 4.69036 8.95159C 4.74674 8.8858 4.78157 8.80859 4.79578 8.7186C 4.80908 8.63043 4.81642 8.52947 4.81642 8.41709C 4.81642 8.34171 4.81138 8.26907 4.80313 8.19827C 4.7935 8.12791 4.76508 8.0667 4.71786 8.01554C 4.67065 7.96391 4.59317 7.92143 4.48407 7.88899C 4.37635 7.85656 4.2237 7.84011 4.02567 7.84011L 1.48339 7.88215C 1.33257 7.88215 1.19322 7.85656 1.06716 7.8054C 0.940186 7.75286 0.836118 7.67793 0.75544 7.57972C 0.676137 7.48058 0.626175 7.36089 0.607839 7.2211C 0.589045 7.07994 0.611961 6.926 0.678429 6.75606L 1.15837 5.29283C 0.894793 5.18 0.688063 5.04386 0.537249 4.88442C 0.386435 4.72408 0.271829 4.54409 0.190692 4.34171C 0.110931 4.14025 0.0595914 3.91274 0.0348378 3.6592C 0.0119178 3.40566 4.47657e-06 3.12472 4.47657e-06 2.81499C 4.47657e-06 2.37369 0.0330002 1.97716 0.0994683 1.6254C 0.165478 1.27318 0.301167 0.97761 0.508823 0.738688C 0.716478 0.499766 1.01032 0.316582 1.39262 0.19004C 1.77356 0.0634985 2.27963 6.02266e-06 2.91039 6.02266e-06L 6.65278 0.139796ZM 2.90993 4.34993C 3.2684 4.34993 3.55536 4.3207 3.77173 4.26497C 3.98855 4.20786 4.1554 4.12197 4.27321 4.00365C 4.39102 3.88625 4.46896 3.72956 4.507 3.53267C 4.54413 3.33532 4.56247 3.0964 4.56247 2.81545C 4.56247 2.6085 4.54413 2.41892 4.507 2.24441C 4.46896 2.07173 4.39331 1.92097 4.28054 1.79488C 4.16686 1.66834 4.00322 1.57241 3.78594 1.50617C 3.56912 1.44039 3.27803 1.40704 2.91039 1.40704C 2.5808 1.40704 2.31217 1.43124 2.10543 1.47738C 1.89824 1.52489 1.73826 1.60393 1.62549 1.71677C 1.51272 1.82915 1.43663 1.97487 1.39995 2.15304C 1.36191 2.33211 1.34265 2.55185 1.34265 2.81499C 1.34265 3.07766 1.36191 3.30516 1.39995 3.49748C 1.43663 3.68981 1.51272 3.84924 1.62549 3.97578C 1.73826 4.10232 1.89824 4.19598 2.10543 4.25674C 2.31217 4.31933 2.5808 4.34993 2.90993 4.34993Z"/>
</defs>
</svg>
