<svg width="431" height="505" viewBox="0 0 431 505" version="1.1" xmlns="http://www.w3.org/2000/svg" xmlns:xlink="http://www.w3.org/1999/xlink">
<title>siren</title>
<desc>Created using Figma</desc>
<g id="Canvas" transform="translate(906 -2515)">
<g id="siren">
<g id="Group">
<g id="Group">
<g id="Vector">
<use xlink:href="#path0_fill" transform="translate(-899.687 2649.66)" fill="#828282"/>
</g>
</g>
</g>
<g id="Group">
<g id="Group">
<g id="Vector">
<use xlink:href="#path1_fill" transform="translate(-704.707 2515)" fill="#828282"/>
</g>
</g>
</g>
<g id="Group">
<g id="Group">
<g id="Vector">
<use xlink:href="#path2_fill" transform="translate(-813.687 2536.48)" fill="#828282"/>
</g>
</g>
</g>
<g id="Group">
<g id="Group">
<g id="Vector">
<use xlink:href="#path3_fill" transform="translate(-906 2598.46)" fill="#828282"/>
</g>
</g>
</g>
<g id="Group">
<g id="Group">
<g id="Vector">
<use xlink:href="#path4_fill" transform="translate(-615.199 2536.48)" fill="#828282"/>
</g>
</g>
</g>
<g id="Group">
<g id="Group">
<g id="Vector">
<use xlink:href="#path5_fill" transform="translate(-539.184 2598.46)" fill="#828282"/>
</g>
</g>
</g>
</g>
</g>
<defs>
<path id="path0_fill" d="M 403.988 259.507L 373.128 259.507L 373.128 164.121C 373.128 73.644 299.484 -5.61523e-06 209.007 -5.61523e-06C 118.53 -5.61523e-06 44.887 73.644 44.887 164.121L 44.887 259.507L 14.027 259.507C 6.312 259.507 6.10352e-08 265.819 6.10352e-08 273.534L 6.10352e-08 356.296C 6.10352e-08 364.011 6.312 370.323 14.027 370.323L 404.69 370.323C 412.405 370.323 418.717 364.011 418.717 356.296L 418.717 273.534C 418.015 265.819 411.703 259.507 403.988 259.507ZM 73.643 153.6L 131.155 153.6C 138.87 153.6 145.182 147.288 145.182 139.573C 145.182 131.858 138.87 125.546 131.155 125.546L 78.552 125.546C 95.385 68.735 147.286 27.354 209.007 27.354C 284.054 27.354 345.073 88.373 345.073 163.42L 345.073 258.806L 72.941 258.806L 72.941 209.009L 103.1 209.009C 110.815 209.009 117.127 202.697 117.127 194.982C 117.127 187.267 110.815 180.955 103.1 180.955L 72.941 180.955C 72.941 181.655 72.24 159.912 73.643 153.6ZM 390.662 342.269L 389.961 342.269L 28.054 342.269L 28.054 287.562L 390.662 287.562L 390.662 342.269Z"/>
<path id="path1_fill" d="M 14.027 0C 6.312 0 3.41797e-06 6.312 3.41797e-06 14.027L 3.41797e-06 64.526C 3.41797e-06 72.241 6.312 78.553 14.027 78.553C 21.742 78.553 28.054 72.241 28.054 64.526L 28.054 14.027C 28.055 6.312 21.742 0 14.027 0Z"/>
<path id="path2_fill" d="M 46.5578 55.6757L 26.9198 8.68375C 24.1147 1.66975 15.6977 -1.83726 8.68374 0.968745C 1.66974 3.77375 -1.83725 12.1907 0.968746 19.2047L 20.6067 66.1967C 24.1137 73.2107 32.5297 76.0157 38.8427 73.9117C 45.8557 71.1057 49.3628 62.6887 46.5578 55.6757Z"/>
<path id="path3_fill" d="M 59.6163 39.9783L 23.8463 4.20825C 18.2353 -1.40275 9.81925 -1.40275 4.20825 4.20825C -1.40275 9.81925 -1.40275 18.2352 4.20825 23.8462L 39.9783 59.6162C 44.8883 64.5262 54.7073 64.5262 59.6163 59.6162C 65.2272 54.0062 65.2272 45.5893 59.6163 39.9783Z"/>
<path id="path4_fill" d="M 38.8423 0.968333C 31.8283 -1.83667 23.4123 1.66933 20.6063 8.68333L 0.968319 55.6753C -1.83668 62.6893 1.66935 71.1053 8.68335 73.9113C 15.6973 76.7163 23.4123 73.2103 26.9193 66.1963L 46.5573 19.2043C 49.3633 12.1903 45.8563 3.77333 38.8423 0.968333Z"/>
<path id="path5_fill" d="M 59.6163 4.20825C 54.0053 -1.40275 45.5893 -1.40275 39.9783 4.20825L 4.20824 39.9783C -1.40276 45.5893 -1.40276 54.7072 4.20824 59.6162C 9.11824 64.5262 18.9372 63.8242 23.8462 59.6162L 59.6163 23.8462C 65.2273 18.2362 65.2273 9.81925 59.6163 4.20825Z"/>
</defs>
</svg>
